<svg width="11" height="16" viewBox="0 0 11 16" fill="none" xmlns="http://www.w3.org/2000/svg">
<path d="M6.84184 14.2645C6.85084 14.2824 6.8022 14.3076 6.79963 14.3287C6.78839 14.417 6.75467 14.4498 6.73555 14.5297C6.70714 14.6482 6.77107 15 6.43315 15C6.43315 15 6.43314 15 6.43314 15C6.42982 15 6.42647 15 6.42308 14.9999C6.3587 14.9987 6.28842 14.9687 6.21562 14.9643C6.14278 14.9599 5.67259 14.9632 5.64616 14.9207C5.61132 14.8591 5.73188 14.7113 5.72654 14.6784C5.72286 14.656 5.68012 14.6283 5.67253 14.5996C5.64806 14.507 5.67932 14.4585 5.56321 14.375C5.6244 14.3417 5.68559 14.3083 5.74677 14.2749C5.7184 14.2314 5.7991 14.1654 5.79466 14.1389C5.791 14.1172 5.74262 14.1045 5.74037 14.0819C5.73757 14.0565 5.7898 14.0175 5.78193 13.9714C5.76928 13.8957 5.64305 13.8822 5.62702 13.8368C5.61044 13.7898 5.67904 13.7165 5.63462 13.6565C5.62074 13.6489 5.60685 13.6414 5.59297 13.6339C5.56156 13.6393 5.53016 13.6447 5.49876 13.6501C5.48414 13.6198 5.5485 13.6068 5.54966 13.579C5.55107 13.5463 5.49005 13.5296 5.49033 13.5076C5.49062 13.4896 5.53954 13.4651 5.53648 13.4417C5.53226 13.4076 5.46162 13.4151 5.4484 13.3967C5.44327 13.3894 5.40429 13.2541 5.40373 13.2465C5.40094 13.1884 5.49763 13.1834 5.50608 13.1371C5.52914 13.0087 5.45101 12.8769 5.42149 12.7581C5.40828 12.7051 5.4139 12.6497 5.42936 12.5969C5.67681 12.6802 5.8694 12.4958 5.48219 12.5648C5.53727 12.5059 5.43274 12.4642 5.45042 12.4084C5.46195 12.3724 5.51564 12.3474 5.51423 12.2959C5.51139 12.2045 5.35878 12.1045 5.63462 12.0782C5.586 11.9709 5.68605 11.878 5.44254 11.8393C5.42767 11.8117 5.57271 11.7407 5.59242 11.7097C5.61098 11.6804 5.67647 11.4552 5.68012 11.4183C5.68378 11.3815 5.68776 11.317 5.66639 11.286C5.63996 11.247 5.38742 11.2198 5.68269 11.1504C5.65879 11.0697 5.66724 11.0409 5.70155 10.9659C5.70775 10.9523 5.75159 10.9508 5.75163 10.9428C5.75163 10.9265 5.71923 10.8987 5.71528 10.8695C5.70881 10.8215 5.80105 10.7941 5.66017 10.7994C5.63655 10.7678 5.61292 10.7362 5.5893 10.7045C5.6165 10.6934 5.64369 10.6823 5.67088 10.6712C5.64124 10.6543 5.61161 10.6374 5.58198 10.6205C5.78585 10.6403 5.66554 10.5213 5.54856 10.5599C5.59074 10.4986 5.63291 10.4372 5.67509 10.3759C5.90679 10.3845 5.70183 10.2412 5.57585 10.2533C5.57603 10.2463 5.57621 10.2392 5.57639 10.2322C5.63798 10.1708 5.58761 10.1143 5.62895 10.0394C5.67028 9.96455 5.69284 9.97158 5.79942 9.94881C5.79331 9.93119 5.78721 9.91356 5.78111 9.89594C5.48893 9.80346 5.99479 9.8198 5.77067 9.66145C5.9543 9.61085 5.85784 9.48614 5.80216 9.40344C5.7957 9.39382 5.76005 9.39365 5.74906 9.38084C5.72263 9.34951 5.76845 9.26956 5.65348 9.27229C5.68675 9.24461 5.72001 9.21694 5.75327 9.18926C5.73237 9.16664 5.71147 9.14402 5.69056 9.1214C5.65467 9.12151 5.61878 9.12163 5.58289 9.12174C5.70521 9.07619 5.6582 9.00462 5.68745 8.96931C5.69338 8.96228 5.74288 8.96076 5.75639 8.93892C5.77242 8.9134 5.75777 8.86583 5.77323 8.83541C5.71839 8.82359 5.66355 8.81176 5.60871 8.79994C5.57897 8.74554 5.72372 8.72642 5.73496 8.69448C5.73692 8.68872 5.72652 8.5838 5.72343 8.57815C5.69893 8.53187 5.57562 8.54498 5.60203 8.41112C5.60681 8.38729 5.64948 8.368 5.65119 8.34646C5.65429 8.3084 5.55751 8.19372 5.46809 8.1847C5.58001 8.13854 5.53426 8.01503 5.5666 7.97865C5.57654 7.96767 5.64783 7.96519 5.663 7.93144C5.67538 7.90408 5.61829 7.83362 5.62785 7.79892C5.63825 7.76209 5.69814 7.74893 5.70237 7.73243C5.70631 7.71684 5.65796 7.70246 5.65824 7.68122C5.65993 7.61489 5.73774 7.55482 5.73918 7.5024C5.74143 7.42658 5.59829 7.35961 5.53474 7.29618C5.54402 7.28044 5.57474 7.26496 5.57502 7.24846C5.57952 7.04425 5.60589 6.81389 5.63655 6.60907C5.65062 6.51399 5.84491 6.27754 5.52073 6.34065C5.46396 6.30761 5.59466 6.06735 5.59663 6.02165C5.59858 5.97596 5.54045 5.93974 5.53959 5.90383C5.53706 5.79546 5.57895 5.71914 5.52833 5.58723C5.5151 5.55316 5.44623 5.51665 5.44703 5.49648C5.44816 5.47218 5.51476 5.44602 5.51899 5.41454C5.52855 5.33949 5.50664 5.19963 5.51817 5.12763C5.52042 5.11449 5.5789 5.10987 5.59718 5.09107C5.6686 5.01785 5.6624 4.93579 5.47569 4.95031C5.58169 4.85646 5.485 4.76965 5.47907 4.68269C5.46698 4.4988 5.51056 4.16384 5.43211 4.00365C5.38261 3.90264 5.29887 3.90523 5.37113 3.75651C5.38716 3.7235 5.40878 3.69064 5.4279 3.6506C5.47289 3.55675 5.62759 3.47065 5.44117 3.39911C5.48952 3.29488 5.45523 3.21186 5.61466 3.13453C5.57643 3.12541 5.53819 3.11629 5.49995 3.10718C5.499 3.0944 5.49806 3.08162 5.49711 3.06884C5.53358 3.06485 5.57005 3.06086 5.60652 3.05688C5.61634 2.96533 5.46644 2.84918 5.46754 2.77169C5.46923 2.64176 5.52746 2.30712 5.57667 2.18392C5.6028 2.11851 5.52469 2.115 5.68525 2.07755C5.67408 2.06292 5.66291 2.04829 5.65174 2.03366C5.61659 2.0245 5.58143 2.01535 5.54627 2.00619C5.54487 1.92228 5.59948 1.82275 5.59892 1.74281C5.59779 1.59714 5.50103 1.3784 5.56458 1.23211C5.58061 1.19544 5.65311 1.14959 5.65229 1.11367C5.65117 1.06139 5.53085 1.04869 5.5286 0.982347C5.52495 0.868011 5.66472 0.655081 5.65403 0.547013C5.65094 0.514915 5.60617 0.499939 5.60139 0.477776C5.58086 0.38484 5.58451 0.308539 5.51533 0.219425C5.63062 0.123739 5.77944 0.132005 5.92961 0.102352C6.04294 0.0798785 6.3056 0.010968 6.40486 0.00118577C6.47459 -0.00568564 6.5643 0.01997 6.64106 0.0103411C6.70237 0.124981 6.63488 0.173143 6.5269 0.266231C6.5312 0.438141 6.5355 0.610051 6.53981 0.78196C6.49791 0.797601 6.45601 0.813241 6.4141 0.828881C6.41401 0.828881 6.41392 0.828881 6.41383 0.828881C6.36547 0.8949 6.47338 0.922881 6.49788 0.958486C6.7324 1.29935 6.54884 1.97025 6.52241 2.34551C6.51679 2.42638 6.57325 2.68943 6.5052 2.74491C6.48748 2.75928 6.42287 2.76327 6.42006 2.77856C6.45848 2.9151 6.4969 3.05165 6.53532 3.1882C6.43493 3.46899 6.51784 3.75928 6.53331 4.04222C6.57521 4.80771 6.62613 5.56555 6.61067 6.31851C6.60757 6.46403 6.65598 6.64869 6.62477 6.79115C6.61183 6.85061 6.50807 6.87538 6.5854 6.95349C6.55745 6.95431 6.52949 6.95513 6.50154 6.95595C6.53528 7.02411 6.59889 7.06767 6.60536 7.14409C6.6107 7.20844 6.61485 7.3787 6.60417 7.43557C6.59883 7.46506 6.54659 7.45408 6.54686 7.48157C6.5477 7.52865 6.61991 7.62924 6.61992 7.6942C6.61992 7.75305 6.55975 7.85226 6.56846 7.89751C6.5994 8.06045 6.68859 8.23794 6.66468 8.41158C6.65792 8.45955 6.59019 8.52124 6.59208 8.53626C6.59602 8.5656 6.66181 8.57435 6.67027 8.59406C6.71301 8.69417 6.63483 8.85023 6.63173 8.94837C6.6216 9.26814 6.65032 9.6069 6.63823 9.92529C6.63063 10.1264 6.64221 10.4607 6.59272 10.6464C6.58204 10.6865 6.50996 10.6758 6.50996 10.7094C6.50998 10.7467 6.55867 10.7669 6.5626 10.7843C6.59016 10.905 6.63938 11.1712 6.58961 11.2851C6.58006 11.3068 6.52358 11.3225 6.52378 11.3355C6.52378 11.3421 6.56233 11.3569 6.56627 11.3776C6.60113 11.5598 6.57866 11.6926 6.56544 11.8711C6.54042 12.2131 6.61212 12.6093 6.57331 12.9685C6.56488 13.0467 6.45317 13.1004 6.4543 13.1114C6.45655 13.1355 6.53168 13.151 6.55024 13.1999C6.61125 13.3625 6.53107 13.5816 6.56874 13.7362C6.58729 13.8127 6.68267 13.9177 6.70378 13.9929C6.72065 14.0529 6.68323 14.1948 6.72511 14.2214C6.75041 14.2376 6.83167 14.2451 6.84184 14.2645ZM5.57694 12.241C5.70686 12.2517 5.59889 12.1393 5.52915 12.1814C5.51345 12.1909 5.54322 12.2382 5.57694 12.241ZM5.80253 6.97517C5.76542 6.9762 5.72831 6.97723 5.6912 6.97826C5.70664 6.99302 5.72209 7.00779 5.73753 7.02255C5.75984 7.01425 5.78214 7.00596 5.80445 6.99766C5.80381 6.99016 5.80317 6.98267 5.80253 6.97517ZM9.54634 8.49941C9.54397 8.48678 9.59159 8.50309 9.59974 8.49552C9.63433 8.4641 9.67169 8.4689 9.71042 8.44545C9.76788 8.41071 9.81527 8.22511 10.096 8.41318C10.096 8.41318 10.096 8.41318 10.096 8.41319C10.0988 8.41503 10.1016 8.41691 10.1044 8.41883C10.1575 8.45518 10.2073 8.50706 10.2665 8.54947C10.3258 8.5919 10.7174 8.85217 10.7272 8.88501C10.7385 8.93067 10.5961 8.92661 10.5912 8.9436C10.5878 8.95523 10.6154 8.99082 10.6135 9.00729C10.6074 9.06041 10.5676 9.06368 10.6402 9.16389C10.5798 9.14408 10.5195 9.12426 10.4591 9.10444C10.4702 9.1388 10.3843 9.12204 10.3805 9.1358C10.3773 9.14709 10.4139 9.17944 10.4093 9.19035C10.4043 9.20272 10.3498 9.19027 10.3432 9.21434C10.3321 9.25365 10.4331 9.32964 10.4334 9.35793C10.4338 9.38724 10.3558 9.38028 10.3756 9.43062C10.385 9.44156 10.3943 9.4525 10.4037 9.46345C10.4314 9.47862 10.459 9.4938 10.4866 9.50897C10.4901 9.53001 10.4329 9.49974 10.424 9.51095C10.4135 9.52412 10.4594 9.5652 10.4529 9.57443C10.4475 9.58196 10.3999 9.56516 10.3958 9.57683C10.3895 9.59372 10.4503 9.62986 10.4561 9.64504C10.4583 9.65102 10.452 9.73042 10.4503 9.73399C10.436 9.7603 10.3542 9.70864 10.334 9.72368C10.2781 9.76561 10.3054 9.86531 10.296 9.93239C10.2918 9.96237 10.2713 9.98284 10.2434 9.99678C10.0616 9.82354 9.84891 9.79497 10.1903 9.98107C10.1277 9.97551 10.2027 10.0515 10.172 10.0654C10.1521 10.0744 10.1004 10.0552 10.0869 10.0779C10.0631 10.1185 10.1613 10.2461 9.92465 10.1037C9.93439 10.1766 9.82471 10.1605 10.016 10.3125C10.0204 10.3326 9.87966 10.2821 9.85443 10.2844C9.83062 10.2866 9.71187 10.3462 9.69831 10.3599C9.68475 10.3735 9.66302 10.3988 9.6719 10.4239C9.68273 10.4553 9.88476 10.6075 9.61962 10.4727C9.61642 10.5204 9.60118 10.528 9.55124 10.5409C9.54221 10.5432 9.50535 10.5195 9.50305 10.5229C9.49837 10.5298 9.51734 10.5597 9.51228 10.5744C9.50394 10.5984 9.41949 10.5588 9.53806 10.6349C9.54865 10.6616 9.55923 10.6882 9.56981 10.7148C9.54405 10.7044 9.51829 10.694 9.49253 10.6837C9.51231 10.7074 9.5321 10.7311 9.55188 10.7548C9.38818 10.6328 9.45411 10.7506 9.56235 10.7992C9.50978 10.8019 9.45722 10.8046 9.40465 10.8073C9.2146 10.6747 9.34396 10.8498 9.45207 10.9148C9.44991 10.9177 9.44775 10.9206 9.4456 10.9235C9.37687 10.9154 9.4026 10.9675 9.34686 10.9764C9.29112 10.9854 9.27438 10.9698 9.17933 10.9202C9.17937 10.9311 9.1794 10.942 9.17944 10.953C9.39575 11.155 8.98015 10.8665 9.12111 11.0588C8.9541 10.9782 8.9986 11.085 9.02123 11.1513C9.02385 11.159 9.05342 11.1789 9.05889 11.1905C9.07189 11.2186 9.01099 11.2272 9.10728 11.29C9.07174 11.2833 9.0362 11.2766 9.00065 11.2698C9.01156 11.2911 9.02246 11.3124 9.03337 11.3337C9.06322 11.3536 9.09307 11.3735 9.12292 11.3935C9.00828 11.3448 9.02688 11.4015 8.9925 11.4003C8.98557 11.4 8.944 11.3731 8.92654 11.3749C8.90593 11.3768 8.90451 11.4053 8.88297 11.4097C8.92515 11.4452 8.96734 11.4808 9.00952 11.5163C9.01869 11.5561 8.89297 11.4837 8.8745 11.4911C8.87123 11.4924 8.84989 11.543 8.85085 11.5471C8.85797 11.5805 8.96417 11.6435 8.90398 11.6859C8.8932 11.6934 8.85224 11.6779 8.84466 11.6861C8.83122 11.7006 8.87885 11.8034 8.95057 11.857C8.8444 11.8144 8.84712 11.8925 8.80986 11.8901C8.79846 11.8892 8.73852 11.8506 8.71627 11.8565C8.69818 11.8613 8.72547 11.9231 8.70762 11.9326C8.68845 11.9425 8.63494 11.9148 8.62671 11.9195C8.61898 11.924 8.65504 11.957 8.64874 11.9659C8.62838 11.9933 8.54657 11.9756 8.53041 11.9971C8.50688 12.0282 8.60666 12.1364 8.64133 12.1989C8.62913 12.2004 8.59918 12.1899 8.59423 12.1968C8.53215 12.2814 8.44442 12.365 8.36044 12.4353C8.32157 12.468 8.0926 12.4607 8.37996 12.6142C8.41769 12.6599 8.24046 12.6896 8.22576 12.708C8.21109 12.7264 8.24904 12.7742 8.23949 12.79C8.21063 12.8376 8.15402 12.8469 8.15839 12.9313C8.15965 12.9532 8.20643 13.0071 8.2 13.0153C8.19212 13.025 8.12932 12.9991 8.11681 13.0102C8.08742 13.0368 8.06566 13.1087 8.03552 13.133C8.02989 13.1373 7.97999 13.1067 7.95943 13.1046C7.87917 13.0961 7.86087 13.1345 8.02015 13.2322C7.90526 13.2133 7.96079 13.3041 7.94087 13.3445C7.89838 13.4297 7.76646 13.5483 7.78588 13.6602C7.79814 13.7309 7.86845 13.7764 7.76593 13.7996C7.74318 13.8047 7.71583 13.8067 7.68851 13.8132C7.62431 13.8282 7.47118 13.7788 7.60562 13.913C7.53567 13.9306 7.54044 13.9851 7.38589 13.9293C7.41505 13.9545 7.44422 13.9797 7.47338 14.0048C7.47051 14.0108 7.46765 14.0168 7.46478 14.0228C7.43335 14.0042 7.40191 13.9856 7.37047 13.967C7.33616 14.0006 7.4275 14.1335 7.40445 14.166C7.36593 14.2204 7.22194 14.3307 7.14585 14.3559C7.10545 14.3693 7.16934 14.4142 7.02525 14.3408C7.03035 14.3533 7.03545 14.3657 7.04055 14.3782C7.06714 14.4017 7.09373 14.4251 7.12033 14.4486C7.09752 14.4852 7.02371 14.4972 7.00134 14.5317C6.96065 14.5944 6.97854 14.7416 6.88395 14.7686C6.86015 14.7753 6.78682 14.7545 6.77724 14.7703C6.76324 14.7932 6.85956 14.8656 6.84248 14.8951C6.81285 14.9459 6.63589 14.9589 6.61389 15.011C6.60729 15.0264 6.64021 15.0577 6.63785 15.0698C6.62835 15.1209 6.60352 15.1514 6.63553 15.2279C6.5124 15.2045 6.39113 15.1182 6.2579 15.0473C6.15732 14.9938 5.91941 14.877 5.83415 14.8259C5.77425 14.79 5.70705 14.7291 5.64052 14.6905C5.62235 14.6075 5.69218 14.6245 5.80849 14.6449C5.85403 14.5692 5.89957 14.4935 5.94511 14.4178C5.98439 14.4344 6.02367 14.4511 6.06295 14.4677C6.06303 14.4678 6.0631 14.4678 6.06318 14.4679C6.12222 14.4666 6.04056 14.3947 6.03039 14.3658C5.93293 14.0899 6.27712 13.906 6.40629 13.7606C6.43407 13.7293 6.46232 13.5856 6.53471 13.5999C6.55354 13.6036 6.60836 13.6378 6.61506 13.6329C6.62215 13.5533 6.62924 13.4737 6.63634 13.394C6.79997 13.3301 6.81403 13.1602 6.88201 13.0309C7.06592 12.6811 7.24013 12.3295 7.46811 12.017C7.51226 11.9567 7.5248 11.851 7.59144 11.8076C7.61918 11.7894 7.71246 11.8366 7.67053 11.7603C7.69398 11.7755 7.71744 11.7907 7.7409 11.8059C7.73234 11.758 7.69194 11.7041 7.7084 11.6679C7.72235 11.6374 7.76755 11.5625 7.79267 11.5442C7.80554 11.5346 7.84579 11.5684 7.85343 11.5565C7.86618 11.5359 7.83493 11.4529 7.85348 11.4251C7.8703 11.4 7.94863 11.3912 7.95432 11.3671C7.97517 11.2804 7.95178 11.155 8.02125 11.0943C8.04058 11.0776 8.11447 11.089 8.1172 11.0815C8.12231 11.0668 8.07015 11.0264 8.06875 11.0133C8.06184 10.9468 8.17139 10.9238 8.202 10.8837C8.30178 10.7529 8.37471 10.5925 8.47573 10.4634C8.53951 10.3818 8.62539 10.2328 8.71957 10.1812C8.73989 10.17 8.79672 10.2147 8.80633 10.2003C8.81697 10.1844 8.78229 10.1487 8.784 10.1391C8.79556 10.0723 8.83074 9.93137 8.90463 9.91051C8.91876 9.90657 8.97018 9.9313 8.97372 9.92564C8.9756 9.92284 8.94782 9.89505 8.95044 9.88406C8.97353 9.78694 9.03016 9.7428 9.09215 9.67401C9.21064 9.5421 9.26426 9.33322 9.39913 9.20162C9.4285 9.17294 9.53664 9.21222 9.53885 9.2069C9.54388 9.19534 9.48587 9.14693 9.48443 9.11574C9.48021 9.01243 9.6094 8.96364 9.6223 8.87671C9.62872 8.83379 9.57948 8.73592 9.58343 8.6921C9.58658 8.65709 9.65819 8.61741 9.63101 8.58275C9.61461 8.56176 9.54924 8.51334 9.54634 8.49941ZM10.0191 10.0664C9.9142 9.98955 9.97177 10.0976 10.0418 10.1184C10.0575 10.1231 10.0463 10.0864 10.0191 10.0664ZM8.32713 12.1867C8.35826 12.207 8.38939 12.2272 8.42051 12.2474C8.4119 12.2325 8.40329 12.2176 8.39468 12.2027C8.37377 12.1938 8.35287 12.185 8.33196 12.1761C8.33035 12.1796 8.32874 12.1832 8.32713 12.1867ZM6.41212 14.177C6.42613 14.1807 6.39681 14.2227 6.4028 14.2349C6.42745 14.2866 6.41294 14.3235 6.42808 14.3756C6.4505 14.4529 6.63567 14.5934 6.36522 14.796C6.36522 14.796 6.36522 14.796 6.36521 14.796C6.36256 14.798 6.35986 14.8 6.35712 14.802C6.30513 14.84 6.23749 14.8669 6.17753 14.9083C6.11755 14.9497 5.7425 15.2333 5.70516 15.2276C5.65381 15.2171 5.69399 15.0697 5.6772 15.0562C5.66569 15.0469 5.62095 15.0585 5.60393 15.0484C5.54907 15.016 5.55562 14.9726 5.43091 14.9998C5.46716 14.9462 5.50342 14.8925 5.53967 14.8388C5.50038 14.8337 5.53982 14.7517 5.52618 14.741C5.51498 14.7321 5.47141 14.7547 5.461 14.7445C5.44909 14.7333 5.47605 14.6821 5.45217 14.6634C5.41322 14.6325 5.30707 14.7013 5.27694 14.6879C5.24573 14.6739 5.27275 14.5955 5.21432 14.5916C5.20033 14.5961 5.18635 14.6006 5.17237 14.6051C5.14929 14.6266 5.12621 14.6482 5.10314 14.6698C5.07991 14.6632 5.12646 14.618 5.11681 14.6031C5.10547 14.5857 5.05028 14.6137 5.04212 14.6024C5.03548 14.593 5.06532 14.5513 5.05396 14.5412C5.0376 14.5264 4.9839 14.5726 4.96634 14.5712C4.95944 14.5705 4.8767 14.5251 4.87334 14.5215C4.84899 14.4937 4.92445 14.4331 4.91358 14.4045C4.88312 14.3254 4.77038 14.3052 4.70151 14.2625C4.67073 14.2435 4.65415 14.212 4.64638 14.1758C4.87615 14.0698 4.96006 13.8606 4.67643 14.1278C4.6981 14.0649 4.59855 14.1063 4.59145 14.0674C4.58693 14.0421 4.62039 13.9972 4.59964 13.9719C4.56255 13.9271 4.40233 13.9678 4.61308 13.789C4.53328 13.7636 4.57796 13.6564 4.36834 13.7827C4.3459 13.7775 4.43497 13.6545 4.43892 13.6269C4.44259 13.6009 4.40922 13.4471 4.39811 13.4262C4.38701 13.4053 4.36562 13.3701 4.3367 13.3671C4.3007 13.3631 4.08821 13.5007 4.29808 13.2884C4.24822 13.2617 4.24403 13.242 4.2429 13.1833C4.24269 13.1726 4.27719 13.1456 4.2742 13.1415C4.26797 13.1332 4.23144 13.1385 4.21716 13.126C4.1937 13.1055 4.25709 13.0362 4.14637 13.1234C4.11541 13.1215 4.08445 13.1196 4.05349 13.1176C4.07103 13.0957 4.08856 13.0737 4.10609 13.0518C4.07593 13.061 4.04577 13.0701 4.01561 13.0793C4.18634 12.9672 4.0447 12.9787 3.9658 13.0685C3.97619 13.0121 3.98658 12.9556 3.99696 12.8991C4.18566 12.7645 3.96705 12.8146 3.87082 12.8962C3.86829 12.8926 3.86577 12.8889 3.86324 12.8852C3.88912 12.817 3.82731 12.8185 3.83186 12.7557C3.83641 12.6928 3.85715 12.6829 3.93376 12.6074C3.92217 12.6021 3.91057 12.5968 3.89897 12.5915C3.6299 12.7196 4.04098 12.4246 3.80129 12.4785C3.92897 12.3427 3.80427 12.3371 3.7282 12.3284C3.71936 12.3274 3.69077 12.3487 3.67709 12.3487C3.644 12.3487 3.65022 12.2805 3.55925 12.3508C3.57533 12.3168 3.5914 12.2828 3.60748 12.2488C3.58214 12.2498 3.55679 12.2509 3.53144 12.2519C3.50276 12.2735 3.47408 12.295 3.4454 12.3166C3.52594 12.2201 3.46105 12.2119 3.47101 12.1764C3.47308 12.1693 3.51212 12.1388 3.51461 12.1196C3.51771 12.097 3.48787 12.0816 3.48866 12.0569C3.44026 12.0838 3.39187 12.1106 3.34347 12.1375C3.29894 12.1277 3.40751 12.0312 3.40434 12.0082C3.40371 12.0041 3.35542 11.9569 3.35079 11.9559C3.31356 11.9471 3.21986 12.0277 3.19 11.9438C3.18475 11.9288 3.21155 11.8934 3.20472 11.8814C3.19269 11.8602 3.07155 11.8599 2.99655 11.9089C3.06854 11.8184 2.98487 11.783 2.99689 11.7451C3.00067 11.7336 3.05678 11.6896 3.05607 11.6633C3.05555 11.642 2.98302 11.6404 2.97745 11.617C2.97174 11.592 3.01466 11.5494 3.01176 11.5385C3.00897 11.5282 2.9648 11.5499 2.95693 11.5389C2.93302 11.5042 2.97241 11.427 2.95359 11.3994C2.9265 11.3595 2.78644 11.4113 2.71141 11.4172C2.71284 11.4036 2.73153 11.3773 2.72547 11.3687C2.65128 11.2622 2.58463 11.1292 2.53113 11.0067C2.50618 10.9499 2.5716 10.7132 2.33619 10.9397C2.27816 10.9569 2.29124 10.7563 2.2754 10.7319C2.25956 10.7075 2.19924 10.724 2.18487 10.7062C2.14156 10.6526 2.14601 10.5887 2.05525 10.552C2.03168 10.5426 1.96266 10.5653 1.95561 10.5546C1.94725 10.5415 1.9906 10.4883 1.98199 10.4697C1.96105 10.4259 1.89024 10.3679 1.87203 10.3243C1.86883 10.3163 1.91387 10.2789 1.92134 10.2584C1.95061 10.1783 1.91438 10.1403 1.77048 10.2596C1.81957 10.1484 1.70911 10.1622 1.67124 10.1215C1.59151 10.0353 1.49879 9.8388 1.37497 9.80438C1.29688 9.78269 1.23084 9.83421 1.23203 9.71526C1.23228 9.68887 1.23706 9.6592 1.23711 9.62737C1.23736 9.55267 1.32838 9.41613 1.15193 9.49153C1.15091 9.40953 1.09185 9.38788 1.18998 9.25296C1.15591 9.27125 1.12183 9.28954 1.08775 9.30783C1.08213 9.3019 1.0765 9.29597 1.07088 9.29004C1.09854 9.26615 1.12621 9.24225 1.15388 9.21836C1.12687 9.16592 0.962657 9.19673 0.934011 9.15666C0.885865 9.08958 0.804988 8.8845 0.79744 8.79234C0.793438 8.74341 0.729585 8.78845 0.843818 8.67315C0.829305 8.67241 0.814793 8.67166 0.800281 8.67092C0.768656 8.68734 0.737032 8.70377 0.705408 8.72019C0.672315 8.67836 0.678103 8.59501 0.647202 8.55469C0.590808 8.48129 0.430039 8.42807 0.425174 8.31558C0.424028 8.28732 0.464585 8.22053 0.450247 8.20276C0.429432 8.17685 0.328301 8.24252 0.301229 8.21014C0.254747 8.15419 0.285492 7.96211 0.235771 7.91356C0.221065 7.8991 0.179532 7.91832 0.167263 7.90992C0.115429 7.87496 0.0892802 7.83398 -3.26335e-05 7.83014C0.0557895 7.71235 0.178042 7.62733 0.286926 7.52222C0.369071 7.44284 0.553029 7.25032 0.628744 7.18583C0.681939 7.14053 0.763508 7.09979 0.821275 7.04887C0.914008 7.07041 0.878346 7.13536 0.827386 7.24744C0.896319 7.33228 0.965252 7.41712 1.03419 7.50196C1.00661 7.53504 0.979033 7.56811 0.951457 7.60119C0.951384 7.60124 0.951311 7.6013 0.951237 7.60135C0.937687 7.66392 1.03471 7.61345 1.06787 7.61687C1.38543 7.64959 1.4941 8.10081 1.6159 8.30748C1.64221 8.35198 1.78761 8.45189 1.75428 8.5209C1.74557 8.53884 1.69538 8.57961 1.69895 8.58906C1.78172 8.63546 1.86449 8.68186 1.94726 8.72826C1.97388 8.93124 2.15082 9.02915 2.27099 9.16376C2.59613 9.5279 2.9256 9.88274 3.20006 10.2749C3.25302 10.3508 3.36211 10.4156 3.3914 10.5068C3.40369 10.5448 3.33009 10.6196 3.42173 10.613C3.39967 10.6301 3.37761 10.6473 3.35555 10.6645C3.40853 10.6789 3.47603 10.6629 3.51032 10.6979C3.53911 10.7274 3.60729 10.8115 3.6204 10.8468C3.62737 10.865 3.58137 10.8908 3.59206 10.9046C3.61067 10.928 3.70679 10.9359 3.73154 10.9689C3.75395 10.9989 3.74359 11.0854 3.76781 11.1032C3.85464 11.1675 3.99363 11.2043 4.04065 11.3069C4.05351 11.3353 4.02281 11.4073 4.03004 11.4138C4.04437 11.4264 4.10036 11.3914 4.11464 11.3963C4.18698 11.4216 4.18386 11.5478 4.21876 11.5996C4.33248 11.7683 4.48451 11.9233 4.59613 12.0925C4.66668 12.1993 4.80329 12.3624 4.83443 12.4865C4.84114 12.5133 4.77939 12.5511 4.7922 12.5682C4.80641 12.5871 4.85308 12.5682 4.86286 12.5747C4.93087 12.6195 5.07169 12.7254 5.07523 12.8131C5.07585 12.8299 5.03664 12.8717 5.04176 12.8782C5.04426 12.8816 5.08076 12.866 5.09178 12.8741C5.18909 12.9459 5.22171 13.0269 5.27915 13.1256C5.38938 13.3145 5.59769 13.473 5.70348 13.6789C5.72654 13.7238 5.65758 13.818 5.66267 13.823C5.67368 13.8339 5.7397 13.7967 5.77319 13.8104C5.88396 13.8566 5.90323 14.016 5.9923 14.0721C6.03627 14.0998 6.15261 14.096 6.19815 14.1216C6.23453 14.1421 6.25862 14.2366 6.30228 14.2251C6.3287 14.2181 6.39659 14.1732 6.41212 14.177ZM4.62893 13.9064C4.73698 13.8339 4.60773 13.8415 4.56799 13.9047C4.55904 13.919 4.60089 13.9252 4.62893 13.9064ZM2.80344 11.0934C2.77413 11.1161 2.74483 11.1389 2.71552 11.1617C2.7335 11.1599 2.75148 11.1582 2.76947 11.1564C2.78416 11.1388 2.79885 11.1212 2.81355 11.1036C2.81018 11.1002 2.80681 11.0968 2.80344 11.0934Z" fill="#212121"/>
</svg>
