<svg width="37" height="34" viewBox="0 0 37 34" fill="none" xmlns="http://www.w3.org/2000/svg">
<path d="M27.7502 0.215893C27.7626 0.202165 27.716 0.0539847 27.8157 0.019665C27.8591 0.00472582 28.6042 -0.0138472 28.6328 0.0156274C28.6473 0.0305665 28.6127 0.15977 28.6722 0.198531C28.7172 0.228006 28.8214 0.204588 28.8338 0.217104C28.8523 0.235677 28.821 0.362458 28.8346 0.377801C28.8519 0.396778 29.0916 0.346308 29.1591 0.394759C29.217 0.435943 29.1837 0.563128 29.1977 0.577663C29.2568 0.639438 29.6517 0.446844 29.558 0.740379H30.9445C31.0112 0.740379 30.9955 0.924897 31.0088 0.937818C31.0269 0.955987 31.1234 0.929339 31.1676 0.960025C31.2119 0.99071 31.1938 1.08156 31.2107 1.09771C31.2537 1.13889 31.6083 1.06137 31.6908 1.12072C31.7471 1.1611 31.7125 1.28263 31.7318 1.3012C31.7499 1.31897 31.8456 1.29192 31.8906 1.32341C31.9288 1.35046 31.9143 1.43041 31.9397 1.45544C31.965 1.48047 32.0446 1.46594 32.0715 1.5047C32.1029 1.54992 32.0764 1.64682 32.0937 1.66418C32.111 1.68155 32.2075 1.6549 32.2525 1.68639C32.2907 1.71304 32.2762 1.79298 32.3015 1.81842C32.3269 1.84386 32.4077 1.83094 32.4334 1.86647C32.4869 1.94036 32.4174 2.12286 32.4688 2.19513C32.5098 2.25287 32.6377 2.21976 32.6514 2.23389C32.6699 2.25246 32.6381 2.38005 32.6522 2.39459C32.6663 2.40912 32.7989 2.38005 32.8138 2.39378C32.8319 2.41074 32.7933 2.73577 32.815 2.75555C32.8287 2.76807 32.9296 2.74223 32.9763 2.77533C33.0141 2.80239 33 2.88193 33.0253 2.90736C33.0507 2.9328 33.1315 2.91988 33.1572 2.95582C33.2063 3.02365 33.1528 3.17304 33.1805 3.25581C33.2135 3.35473 33.3575 3.30507 33.3752 3.32284C33.3937 3.34141 33.3623 3.4698 33.376 3.48353C33.3896 3.49726 33.5175 3.46577 33.536 3.48434C33.5485 3.49686 33.5251 3.60143 33.5545 3.64665C33.5931 3.70641 33.7218 3.67168 33.7366 3.68622C33.7604 3.70883 33.7181 3.92323 33.7354 3.98298C33.7483 4.0278 33.8492 3.99994 33.881 4.04557C33.9128 4.09119 33.8874 4.19415 33.9003 4.20788C33.9264 4.23574 34.3064 4.18083 34.3969 4.21394C34.4693 4.24018 34.4431 4.33103 34.4725 4.35969C34.4982 4.38513 34.5774 4.37019 34.604 4.40895C34.6353 4.45417 34.6088 4.55027 34.6261 4.56844C34.645 4.58782 34.7656 4.5535 34.8058 4.60962C34.9003 4.74165 34.7572 6.32803 34.8227 6.38779C34.838 6.40192 34.9639 6.36962 34.9824 6.38859C34.994 6.4003 34.9735 6.50366 35.0021 6.55131C35.0378 6.61107 35.1376 6.53718 35.1657 6.58523C35.2228 6.68253 35.1573 7.08791 35.1838 7.11334C35.1955 7.12465 35.3072 7.10608 35.345 7.11334V7.83931C35.345 7.84859 35.485 7.81589 35.5288 7.87686C35.5771 7.94428 35.5268 8.18533 35.5457 8.20269C35.561 8.21682 35.6868 8.18452 35.7053 8.2039C35.717 8.21561 35.6965 8.31898 35.725 8.36662C35.7608 8.42638 35.8605 8.35249 35.8887 8.40053C35.9562 8.5152 35.8666 9.03444 35.9132 9.08491C35.9317 9.1051 36.0363 9.07724 36.0636 9.15516C36.0921 9.23713 36.0379 9.37804 36.0865 9.45637C36.1223 9.51411 36.2224 9.44224 36.2506 9.48988C36.3016 9.57669 36.2417 9.77615 36.2747 9.81128C36.2908 9.82823 36.3821 9.81128 36.4118 9.85448C36.4416 9.89768 36.4158 9.9958 36.4339 10.014C36.4468 10.0273 36.6306 10.0115 36.6306 10.0786V10.7444C36.668 10.7512 36.7797 10.7327 36.7918 10.7444C36.8111 10.7625 36.7954 11.2418 36.7737 11.2721C36.7423 11.3153 36.6414 11.2886 36.6281 11.3339C36.5988 11.4356 36.6732 11.7122 36.6137 11.7962C36.5727 11.8543 36.446 11.8208 36.4315 11.8349C36.4195 11.8466 36.4203 12.1321 36.4279 12.1741C36.4363 12.2213 36.5437 12.1797 36.5928 12.2153C36.631 12.2427 36.6165 12.3223 36.6418 12.3473C36.6672 12.3723 36.7468 12.3578 36.7733 12.3966C36.8047 12.4418 36.7781 12.5379 36.7954 12.556C36.8143 12.5754 36.935 12.5411 36.9752 12.5972C37.0013 12.634 37.0057 13.2582 36.9941 13.3486C36.9663 13.5667 36.8296 13.454 36.7926 13.4895C36.7693 13.5117 36.8115 13.9934 36.7914 14.0128C36.7797 14.0241 36.668 14.0055 36.6302 14.0128V14.6786C36.6302 14.7456 36.4472 14.7299 36.4335 14.7432C36.4138 14.763 36.448 14.8829 36.3921 14.9237C36.3097 14.9835 36.0322 14.9084 35.9313 14.9382C35.8867 14.9512 35.914 15.0509 35.869 15.0844C35.8239 15.1179 35.7061 15.0941 35.7061 15.1026V16.1919C35.7061 16.2 35.5453 16.1838 35.5453 16.1919V17.0592C35.5453 17.1278 35.3547 17.1133 35.3463 17.1214C35.3249 17.1416 35.3579 17.5623 35.3446 17.6442H34.9828V16.9179C34.9828 16.9098 35.1436 16.926 35.1436 16.9179V16.1919C34.8513 16.2868 35.0427 15.8875 34.9815 15.8301C34.9679 15.8176 34.8669 15.8435 34.8203 15.8104C34.7825 15.7833 34.7966 15.7038 34.7712 15.6783C34.7459 15.6529 34.6655 15.6658 34.6398 15.6299C34.5875 15.558 34.6446 15.3291 34.6201 15.3057C34.6072 15.2935 34.5034 15.3166 34.4584 15.2871C34.3989 15.2483 34.4335 15.1179 34.4194 15.1038C34.4009 15.0852 34.273 15.1171 34.2594 15.103C34.2457 15.0888 34.2775 14.9608 34.2586 14.9423C34.2445 14.9281 34.1174 14.9617 34.076 14.9035C34.0258 14.8329 34.082 14.675 34.0615 14.6019C34.0491 14.5571 33.9473 14.5853 33.916 14.5397C33.8846 14.4941 33.912 14.3976 33.8943 14.3798C33.8766 14.3621 33.7805 14.3891 33.7354 14.3576C33.6972 14.331 33.7117 14.2506 33.6864 14.2256C33.661 14.2006 33.5814 14.2151 33.5549 14.1763C33.5235 14.1311 33.5501 14.035 33.5328 14.0169C33.5139 13.9975 33.3933 14.0318 33.353 13.9757C33.3048 13.9082 33.3555 13.668 33.3362 13.6498C33.2963 13.6123 33.1246 13.7504 33.1749 13.4883C32.9546 13.4342 33.0406 13.5864 32.9763 13.6321C32.9304 13.6644 32.8283 13.6389 32.8146 13.6514C32.801 13.664 32.8014 13.9995 32.8146 14.0116C32.8279 14.0237 32.9292 13.9983 32.9759 14.0314C33.0137 14.0584 32.9996 14.138 33.0249 14.1634C33.0503 14.1889 33.1311 14.1759 33.1568 14.2119C33.2103 14.2858 33.1407 14.4683 33.1922 14.5405C33.2332 14.5983 33.3611 14.5652 33.3748 14.5793C33.3933 14.5979 33.3615 14.7255 33.3756 14.74C33.3896 14.7545 33.5223 14.7255 33.5372 14.7392C33.5553 14.7561 33.5167 15.0812 33.5384 15.101C33.5521 15.1135 33.653 15.0876 33.6997 15.1207C33.7374 15.1478 33.7234 15.2273 33.7487 15.2528C33.774 15.2782 33.8549 15.2653 33.8806 15.3012C33.9341 15.3751 33.8645 15.5576 33.916 15.6299C33.957 15.6876 34.0849 15.6545 34.0985 15.6686C34.117 15.6872 34.0853 15.8148 34.0993 15.8293C34.1134 15.8439 34.2461 15.8148 34.261 15.8285C34.2791 15.8455 34.2405 16.1697 34.2622 16.1903C34.2771 16.2044 34.4033 16.1713 34.4443 16.2291C34.4757 16.2731 34.4757 16.4733 34.4443 16.5173C34.4033 16.5755 34.2771 16.542 34.2622 16.5561C34.2493 16.5686 34.2489 16.9041 34.2622 16.9163C34.2755 16.9284 34.3784 16.9033 34.4238 16.9356C34.4693 16.9679 34.4415 17.0697 34.4858 17.0818C34.5967 17.1129 34.7885 16.9998 34.8231 17.1795C34.8983 17.5667 34.6591 17.4472 34.6233 17.4835C34.6048 17.5021 34.6365 17.6297 34.6225 17.6442C34.6084 17.6588 34.4757 17.6297 34.4608 17.6434C34.4415 17.6616 34.4922 17.9022 34.4439 17.9693C34.4033 18.0258 34.2827 17.9911 34.2642 18.0105C34.2465 18.0286 34.2734 18.1243 34.2421 18.1699C34.2155 18.2083 34.1355 18.1938 34.1106 18.2192C34.0857 18.2446 34.0997 18.3242 34.0615 18.3512C34.0149 18.3843 33.914 18.3585 33.9003 18.371C33.879 18.3908 33.9172 18.7166 33.8991 18.7328C33.8838 18.7469 33.7576 18.715 33.7391 18.7336C33.7246 18.7481 33.7596 18.8781 33.7001 18.9169C33.655 18.9464 33.5509 18.923 33.5384 18.9355C33.5199 18.954 33.5517 19.0816 33.5376 19.0962C33.5235 19.1107 33.3908 19.0816 33.376 19.0954C33.3567 19.1135 33.4073 19.3538 33.3591 19.4212C33.314 19.4838 33.0611 19.4079 33.1938 19.6235C33.232 19.6857 33.343 19.59 33.3707 19.6857C33.3985 19.7814 33.3563 20.1665 33.376 20.1851C33.3876 20.1964 33.4994 20.1778 33.5372 20.1851V21.0524C33.5372 21.0952 33.4109 21.1004 33.3876 21.1243C33.3643 21.1481 33.3587 21.2745 33.316 21.2745H32.653C32.6297 21.4117 32.6884 21.6548 32.6478 21.7735C32.6136 21.8732 32.4716 21.8228 32.4531 21.8405C32.4379 21.8555 32.46 22.0008 32.4519 22.0008H31.7286C31.7487 22.1236 31.6831 22.4833 31.7684 22.5487C31.8038 22.5758 31.897 22.4987 31.924 22.5907C31.9457 22.6654 31.9465 23.0357 31.891 23.0724C31.8484 23.1007 31.7499 23.0764 31.7326 23.0942C31.7153 23.112 31.7418 23.2081 31.7105 23.2537C31.6839 23.2921 31.6043 23.2775 31.579 23.303C31.5536 23.3284 31.5665 23.4087 31.5307 23.435C31.4591 23.4875 31.2312 23.4301 31.2078 23.4548C31.1901 23.4737 31.24 23.6155 31.1407 23.6498C31.092 23.6667 30.8025 23.6671 30.7442 23.6554C30.591 23.6248 30.6706 23.4879 30.6401 23.4576C30.6224 23.4398 30.5255 23.4665 30.4812 23.4358C30.4173 23.3914 30.503 23.2375 30.2826 23.2921C30.3329 23.5529 30.1628 23.4144 30.123 23.4548C30.1105 23.4673 30.1338 23.5719 30.1045 23.6171C30.0659 23.6768 29.9364 23.6421 29.9219 23.6562C29.9034 23.6748 29.9352 23.8016 29.9211 23.8169C29.9034 23.8363 29.4221 23.7951 29.4 23.8182C29.3859 23.8327 29.4189 23.9599 29.3614 24.0011C29.289 24.0527 29.0779 23.9898 29.0421 24.0241C29.0252 24.0398 29.0421 24.1319 28.9991 24.1618C28.9561 24.1916 28.858 24.1658 28.8399 24.1836C28.7844 24.2381 28.8974 24.4694 28.474 24.3814C28.3771 24.6745 28.7759 24.4823 28.8342 24.5441C28.8487 24.5591 28.8141 24.6883 28.8736 24.727C28.9187 24.7565 29.0228 24.7331 29.0353 24.7456C29.0538 24.7642 29.0224 24.8909 29.0361 24.9063C29.0542 24.9261 29.291 24.8732 29.3606 24.9245C29.3964 24.9507 29.3835 25.0315 29.4088 25.0565C29.4342 25.0815 29.5138 25.067 29.5403 25.1057C29.5717 25.151 29.5452 25.2471 29.5624 25.2652C29.5813 25.2846 29.702 25.2503 29.7422 25.3064C29.8017 25.3892 29.7269 25.6678 29.7567 25.7691C29.7699 25.8144 29.8705 25.7861 29.9022 25.8317C29.934 25.8773 29.9087 25.9803 29.9215 25.994C29.9428 26.017 30.2585 25.9738 30.2802 25.9969C30.2947 26.0118 30.2601 26.141 30.3196 26.1798C30.3646 26.2092 30.4688 26.1858 30.4812 26.1983C30.4997 26.2169 30.4684 26.3437 30.482 26.359C30.4957 26.3744 30.7124 26.3396 30.7792 26.3635C30.86 26.3925 30.821 26.5092 30.8685 26.523C31.0691 26.5799 31.9364 26.4535 32.0527 26.5375C32.1089 26.5783 32.0744 26.6994 32.0937 26.718C32.1118 26.7357 32.2075 26.7087 32.2525 26.7402C32.2907 26.7672 32.2762 26.8472 32.3015 26.8722C32.3269 26.8972 32.4065 26.8827 32.4334 26.9215C32.4648 26.9667 32.4383 27.0636 32.4556 27.0809C32.4728 27.0983 32.5693 27.0717 32.6144 27.1032C32.6526 27.1298 32.6381 27.2102 32.6634 27.2352C32.6888 27.2602 32.7684 27.2457 32.7949 27.2844C32.8263 27.3297 32.7998 27.4258 32.817 27.4439C32.84 27.4673 32.9743 27.4153 33.0088 27.5138C33.0257 27.5618 33.0253 28.0593 33.0088 28.1081C32.9747 28.2078 32.8335 28.1574 32.8146 28.1755C32.7825 28.2062 32.8548 28.6189 32.7949 28.7012C32.7688 28.7372 32.6884 28.7243 32.6634 28.7497C32.6385 28.7751 32.653 28.8551 32.6144 28.8817C32.5693 28.9132 32.4736 28.8866 32.4556 28.9039C32.4322 28.9269 32.4841 29.0618 32.386 29.0965C32.3293 29.1163 31.8017 29.1111 31.7656 29.0844C31.7093 29.0436 31.7438 28.9225 31.7245 28.9039C31.7064 28.8862 31.6107 28.9132 31.5657 28.8817C31.5275 28.8547 31.542 28.7747 31.5167 28.7497C31.4913 28.7247 31.4117 28.7392 31.3848 28.7004C31.3534 28.6552 31.3799 28.5583 31.3626 28.541C31.3454 28.5236 31.2489 28.5502 31.2038 28.5187C31.1656 28.4921 31.1801 28.4117 31.1548 28.3867C31.1294 28.3617 31.0502 28.3758 31.0229 28.3379C30.9899 28.291 31.0156 28.1893 31.0032 28.1759C30.9734 28.1441 30.5613 28.2163 30.4792 28.1562C30.4434 28.1299 30.4563 28.0492 30.431 28.0241C30.4056 27.9991 30.326 28.0136 30.2995 27.9749C30.2681 27.9297 30.2947 27.8328 30.2774 27.8154C30.2601 27.798 30.1636 27.8247 30.1185 27.7932C30.0803 27.7665 30.0948 27.6862 30.0695 27.6612C30.0442 27.6361 29.9649 27.6503 29.9376 27.6123C29.9046 27.5655 29.9304 27.4637 29.9179 27.4504C29.8914 27.4217 29.2203 27.4762 29.1957 27.4492C29.1817 27.4338 29.2134 27.3075 29.1949 27.2885C29.1804 27.2739 29.051 27.3091 29.0124 27.2493C28.983 27.2041 29.0063 27.0995 28.9939 27.087C28.9754 27.0684 28.8475 27.1003 28.8338 27.0862C28.8202 27.0721 28.8515 26.9441 28.833 26.9255C28.8206 26.913 28.7164 26.9364 28.6714 26.9069C28.6119 26.8682 28.6465 26.7382 28.6324 26.7236C28.6139 26.705 28.4876 26.7369 28.4723 26.7228C28.4547 26.7067 28.4925 26.3808 28.4711 26.361C28.4575 26.3485 28.3561 26.3744 28.3099 26.3413C28.2717 26.3142 28.2862 26.2343 28.2608 26.2092C28.2355 26.1842 28.1559 26.1987 28.1294 26.16C28.098 26.1147 28.1245 26.0182 28.1072 26.0005C28.09 25.9827 27.9926 26.0094 27.948 25.9787C27.9034 25.948 27.9219 25.8567 27.905 25.841C27.8692 25.8067 27.6581 25.8701 27.5857 25.818C27.5278 25.7764 27.5612 25.6488 27.5471 25.6347C27.5065 25.5939 27.3372 25.7328 27.3875 25.472C27.1699 25.4082 27.2556 25.5951 27.1619 25.629C27.0923 25.6541 26.8857 25.6149 26.8664 25.6351C26.8487 25.6537 26.8985 25.7958 26.7992 25.8301C26.6826 25.8705 26.1904 25.7998 26.1466 25.841C26.1297 25.8572 26.1466 25.9488 26.1036 25.9787C26.0606 26.0086 25.962 25.9831 25.9443 26.0005C25.9267 26.0178 25.9532 26.116 25.9226 26.1604C25.8921 26.2048 25.7899 26.1777 25.7771 26.223C25.734 26.3715 25.8454 26.9974 25.7413 27.0684C25.6942 27.1007 25.5849 27.062 25.5764 27.1088C25.5394 27.3176 25.6335 27.7823 25.574 27.9486C25.5459 28.0274 25.4421 27.9991 25.4236 28.0189C25.3894 28.0556 25.4526 28.2664 25.4007 28.3395C25.3593 28.3976 25.2326 28.3645 25.2182 28.3782C25.1936 28.4017 25.2503 28.6318 25.1989 28.7029C25.1675 28.7461 25.0662 28.7198 25.0533 28.7646C25.0444 28.7957 25.0517 29.0473 25.0617 29.0578C25.0778 29.0747 25.1691 29.0578 25.1989 29.101C25.2286 29.1442 25.2029 29.2427 25.2206 29.2605C25.2507 29.2911 25.387 29.2112 25.4176 29.365C25.4349 29.4518 25.4313 30.433 25.412 30.4895C25.3778 30.5892 25.2354 30.5388 25.2173 30.5565C25.1767 30.5965 25.3151 30.7673 25.0553 30.7168C24.9918 30.9353 25.1775 30.8488 25.2117 30.9433C25.2242 30.9781 25.235 31.4262 25.2169 31.4432C25.2017 31.4573 25.0754 31.4254 25.0569 31.444C25.0444 31.4565 25.0678 31.5611 25.0384 31.6063C24.9998 31.6661 24.8711 31.6313 24.8563 31.6459C24.8241 31.6766 24.8884 32.1982 24.8502 32.3052C24.8221 32.3839 24.7183 32.3557 24.6998 32.3755C24.6657 32.4122 24.7288 32.6234 24.6769 32.6961C24.6355 32.7542 24.5084 32.7207 24.4944 32.7348C24.4759 32.7534 24.5076 32.881 24.4936 32.8955C24.4795 32.91 24.3468 32.881 24.3319 32.8947C24.3126 32.9129 24.3633 33.1527 24.315 33.2205C24.274 33.2787 24.1474 33.2452 24.1329 33.2593C24.1112 33.2799 24.1498 33.6049 24.1317 33.6211C24.1164 33.6352 23.9901 33.6033 23.9716 33.6219C23.9592 33.6344 23.9825 33.739 23.9531 33.7842C23.9145 33.8439 23.7855 33.8088 23.7706 33.8238C23.7557 33.8387 23.7774 33.9841 23.7694 33.9841H23.046C23.0392 33.9465 23.0577 33.8343 23.046 33.8221C23.0251 33.7999 22.6367 33.8476 22.549 33.8173C22.4497 33.783 22.5 33.64 22.4823 33.6219C22.4646 33.6037 22.3375 33.6348 22.3222 33.6211C22.2897 33.5912 22.3544 32.7667 22.321 32.7348C22.3061 32.7203 22.1775 32.755 22.1389 32.6952C22.1095 32.65 22.1328 32.5455 22.1204 32.5329C22.1019 32.5144 21.9756 32.5463 21.9603 32.5321C21.941 32.5144 21.982 32.0307 21.9591 32.0089C21.9443 31.9943 21.8156 32.029 21.777 31.9693C21.7476 31.9241 21.7709 31.8195 21.7585 31.807C21.74 31.7884 21.6137 31.8203 21.5984 31.8062C21.5803 31.7896 21.619 31.465 21.5972 31.4444C21.5824 31.4303 21.4561 31.4634 21.4151 31.4056C21.3664 31.3374 21.4179 31.0996 21.3982 31.0798C21.3785 31.06 21.1441 31.1129 21.0737 31.0616C21.0379 31.0354 21.0508 30.9546 21.0255 30.9296C21.0001 30.9046 20.9209 30.9187 20.894 30.8803C20.861 30.8335 20.8867 30.7322 20.8743 30.7184C20.8546 30.697 20.5301 30.7354 20.5136 30.7172C20.4995 30.7019 20.5313 30.5751 20.5128 30.5565C20.5003 30.544 20.3962 30.5674 20.3511 30.538C20.2916 30.4992 20.3262 30.3688 20.3121 30.3546C20.2936 30.3361 20.1658 30.368 20.1521 30.3538C20.1384 30.3397 20.1702 30.2117 20.1513 30.1931C20.1372 30.179 20.0101 30.2125 19.9687 30.1544C19.9185 30.0837 19.9748 29.9259 19.9543 29.8532C19.9418 29.8088 19.8405 29.8362 19.8087 29.791C19.7769 29.7458 19.8023 29.6424 19.7894 29.6287C19.7637 29.6012 19.3837 29.6553 19.2932 29.6226C19.2148 29.5944 19.2429 29.4906 19.2228 29.4716C19.1987 29.4494 18.6092 29.4514 18.5694 29.4631C18.5244 29.4761 18.5509 29.5778 18.5079 29.6093C18.4717 29.6355 17.651 29.6602 17.6205 29.6275C17.6064 29.6125 17.6349 29.4801 17.6209 29.4656C17.6028 29.4462 17.3639 29.4971 17.2964 29.4486C17.2357 29.4054 17.2823 29.2701 17.2389 29.2633C17.0008 29.2245 17.1496 29.3905 17.0599 29.4486C17.0149 29.4781 16.9112 29.4543 16.8983 29.4672C16.883 29.4821 16.9051 29.6275 16.8971 29.6275H14.3655C14.3586 29.5899 14.3771 29.4777 14.3655 29.4656C14.3538 29.4534 14.0687 29.4571 14.0269 29.4652C13.9758 29.4748 14.0152 29.6275 14.0036 29.6275H13.2802C13.2722 29.6275 13.2882 29.466 13.2802 29.466H11.8334C11.8174 29.466 11.8624 29.7264 11.8149 29.7914C11.7888 29.8273 11.7084 29.8144 11.6835 29.8398C11.6585 29.8653 11.673 29.9452 11.6344 29.9719C11.5894 30.0034 11.4937 29.9767 11.4756 29.9941C11.4563 30.0131 11.4904 30.1342 11.4346 30.1746C11.3517 30.2343 11.0747 30.1592 10.9737 30.1891C10.9287 30.2024 10.9569 30.3034 10.9114 30.3353C10.866 30.3672 10.7635 30.3417 10.7498 30.3546C10.7224 30.3805 10.7763 30.7616 10.7437 30.8529C10.7148 30.9344 10.5986 30.8949 10.5849 30.9425C10.5479 31.0733 10.6476 31.5591 10.5491 31.6265C10.5021 31.6588 10.3927 31.62 10.3843 31.6669C10.3425 31.9043 10.4446 32.9541 10.3686 33.059C10.3372 33.1022 10.2359 33.076 10.223 33.1208C10.1848 33.2528 10.2761 33.6901 10.2086 33.785C10.1675 33.8431 10.0401 33.8096 10.026 33.8238C10.0071 33.8423 10.0389 33.9691 10.0252 33.9845C9.99544 34.0172 9.17395 33.9921 9.13816 33.9655C9.10237 33.9388 9.11524 33.8585 9.08991 33.8334C9.06458 33.8084 8.98496 33.823 8.95842 33.7842C8.92706 33.739 8.9536 33.6421 8.93631 33.6247C8.91902 33.6073 8.82251 33.634 8.77748 33.6025C8.73928 33.5759 8.75375 33.4955 8.72842 33.4705C8.70309 33.4454 8.62347 33.46 8.59693 33.4212C8.56557 33.376 8.59211 33.2799 8.57482 33.2617C8.55592 33.2423 8.43529 33.2767 8.39508 33.2205C8.34683 33.1531 8.39749 32.9129 8.37819 32.8947C8.36331 32.881 8.22982 32.9088 8.21655 32.8955C8.20328 32.8822 8.23424 32.7534 8.21574 32.7348C8.20328 32.7223 8.09913 32.7457 8.0541 32.7162C7.99459 32.6775 8.02917 32.5475 8.0151 32.5329C7.9966 32.5144 7.87034 32.5463 7.85506 32.5321C7.83576 32.5144 7.87677 32.0307 7.85385 32.0089C7.84099 31.9963 7.73765 32.0198 7.69221 31.9903C7.6327 31.9515 7.66728 31.8211 7.6532 31.807C7.63471 31.7884 7.50684 31.8203 7.49317 31.8062C7.4795 31.792 7.51126 31.664 7.49236 31.6455C7.47829 31.6313 7.35083 31.6649 7.30981 31.6067C7.28207 31.5675 7.27925 31.1993 7.29775 31.1452C7.33193 31.0463 7.47387 31.0947 7.49156 31.0766C7.49759 31.0701 7.49799 30.9268 7.49156 30.9203C7.47789 30.9062 7.35042 30.9377 7.30981 30.8803C7.25794 30.8077 7.32107 30.5969 7.28689 30.5598C7.26839 30.54 7.16465 30.5682 7.13651 30.4895C7.09831 30.3825 7.16224 29.8608 7.13047 29.8302C7.1156 29.8156 6.98692 29.8503 6.94832 29.7906C6.91897 29.7454 6.94229 29.6408 6.92983 29.6283C6.91133 29.6097 6.78507 29.6416 6.76979 29.6275C6.74325 29.6028 6.79713 28.9298 6.76858 28.9027C6.75572 28.8902 6.65157 28.9132 6.60774 28.8837C6.51003 28.8175 6.60895 27.8489 6.56954 27.8118C6.55467 27.798 6.42117 27.8259 6.4079 27.8126C6.39463 27.7992 6.426 27.6708 6.4071 27.6519C6.39302 27.6377 6.26556 27.6712 6.22454 27.6131C6.16825 27.5336 6.2346 27.1112 6.20765 27.0854C6.19278 27.0713 6.06008 27.0999 6.04601 27.0862C6.03194 27.0725 6.06049 26.9388 6.04681 26.9239C6.03435 26.9106 5.69699 26.9106 5.68452 26.9239C5.67085 26.9388 5.6986 27.0729 5.68533 27.0862C5.67206 27.0995 5.54379 27.0684 5.52529 27.087C5.51282 27.0995 5.53615 27.2041 5.50679 27.2493C5.46819 27.3091 5.33831 27.2744 5.32424 27.2885C5.30574 27.3071 5.33751 27.4346 5.32344 27.4492C5.30936 27.4637 5.17667 27.4346 5.16179 27.4484C5.13485 27.4738 5.19396 28.0031 5.15697 28.1089C5.12239 28.2074 4.98889 28.1554 4.96516 28.1788C4.94144 28.2022 4.99371 28.3366 4.8956 28.3714C4.84172 28.3903 3.8614 28.394 3.77575 28.3766C3.62135 28.3455 3.69935 28.201 3.67442 28.1759C3.65593 28.1574 3.52967 28.1889 3.51439 28.1751C3.46935 28.134 3.4987 27.0067 3.51961 26.9489C3.54575 26.8762 3.63622 26.9025 3.66477 26.873C3.6901 26.8472 3.67523 26.7676 3.71383 26.741C3.75886 26.7095 3.85537 26.7361 3.87266 26.7188C3.88995 26.7014 3.86381 26.6037 3.89437 26.5589C3.92493 26.5141 4.0154 26.5326 4.03149 26.5157C4.06727 26.4777 4.00937 26.1584 4.04234 26.0623C4.07532 25.9662 4.21766 26.013 4.23656 25.9948C4.25827 25.9742 4.21967 25.6492 4.23776 25.6331C4.25304 25.6189 4.3793 25.6508 4.3978 25.6323C4.41027 25.6197 4.38694 25.5152 4.4163 25.4699C4.4549 25.4102 4.58438 25.4449 4.59885 25.4308C4.61735 25.4122 4.58558 25.2854 4.59965 25.2701C4.61493 25.2531 4.94466 25.2878 4.96195 25.2705C4.97924 25.2531 4.94466 24.9224 4.96155 24.9071C4.97683 24.893 5.10308 24.9249 5.12158 24.9063C5.14008 24.8877 5.08941 24.7448 5.18833 24.7109C5.26433 24.685 5.44768 24.7294 5.47945 24.7C5.49915 24.6814 5.47101 24.5772 5.54942 24.549C5.58963 24.5344 6.37734 24.5146 6.4071 24.5457C6.41876 24.5578 6.39825 24.6604 6.4272 24.708C6.46138 24.7646 6.55065 24.7084 6.57115 24.7242C6.6576 24.7888 6.57759 25.0226 6.61498 25.0634C6.63348 25.0831 6.73843 25.0553 6.76537 25.1336C6.79231 25.2119 6.74004 25.3682 6.78708 25.4344C6.8281 25.4921 6.95596 25.459 6.96963 25.4732C6.98813 25.4917 6.95637 25.6193 6.97044 25.6339C6.98451 25.6484 7.11841 25.6193 7.13208 25.6331C7.14575 25.6468 7.11761 25.7804 7.13128 25.7954C7.15661 25.8224 7.57761 25.7558 7.65682 25.8123C7.71473 25.8535 7.68135 25.9819 7.69543 25.9956C7.71473 26.0142 7.83455 25.9795 7.85385 25.9981C7.86833 26.0122 7.83375 26.1426 7.89326 26.1814C7.93829 26.2108 8.04244 26.1874 8.0549 26.1999C8.0734 26.2185 8.04204 26.3453 8.05571 26.3606C8.06938 26.376 8.28611 26.3413 8.35286 26.3651C8.43127 26.3933 8.40312 26.4975 8.42282 26.5161C8.45942 26.5504 8.66971 26.487 8.74209 26.5391C8.79999 26.5807 8.76702 26.7079 8.78069 26.722C8.80442 26.747 9.03201 26.6893 9.10358 26.7418C9.13937 26.768 9.1265 26.8488 9.15183 26.8738C9.17716 26.8989 9.25678 26.8843 9.28332 26.9231C9.31468 26.9683 9.28814 27.0652 9.30544 27.0826C9.32273 27.0999 9.41923 27.0733 9.46426 27.1048C9.50246 27.1314 9.48799 27.2118 9.51332 27.2368C9.53865 27.2618 9.61787 27.2477 9.64521 27.2857C9.67818 27.3325 9.65245 27.4342 9.66491 27.4476C9.70191 27.4871 10.7096 27.4112 10.747 27.4504C10.7614 27.4653 10.7269 27.5945 10.7864 27.6333C10.8314 27.6628 10.9355 27.6394 10.948 27.6519C10.9665 27.6704 10.9347 27.7988 10.9488 27.8126C10.9629 27.8263 11.0904 27.7948 11.1089 27.8134C11.1213 27.8259 11.098 27.9305 11.1274 27.9757C11.166 28.0354 11.2954 28.0007 11.3099 28.0148C11.3284 28.0334 11.2966 28.1602 11.3107 28.1755C11.3216 28.1873 11.6199 28.1852 11.6308 28.1735C11.6489 28.1545 11.5986 28.0128 11.6979 27.9785C11.749 27.9607 12.2287 27.9595 12.2955 27.9729C12.4499 28.0039 12.3719 28.1465 12.3972 28.1731C12.4193 28.1961 12.8998 28.1546 12.9183 28.1743C12.9324 28.1893 12.9038 28.3217 12.9179 28.3362C12.9304 28.3496 13.2677 28.3496 13.2802 28.3362C13.2943 28.3213 13.2657 28.1889 13.2798 28.1743C13.2979 28.155 13.7752 28.1707 13.8053 28.1925C13.8484 28.224 13.8222 28.3257 13.8669 28.3387C13.9963 28.3762 14.4809 28.2753 14.548 28.3746C14.6059 28.4602 14.4829 28.5753 14.7064 28.5385C14.7495 28.5317 14.7032 28.3964 14.7639 28.3532C14.8472 28.2934 15.1222 28.3677 15.2248 28.3387C15.2722 28.3249 15.2328 28.2087 15.314 28.1792C15.3542 28.1646 16.1419 28.1449 16.1717 28.1759C16.1822 28.1869 16.1556 28.4061 16.273 28.3758C16.3261 28.3621 16.3289 28.2224 16.3732 28.1929C16.4174 28.1634 16.5131 28.1877 16.5308 28.1703C16.5485 28.1529 16.5239 28.054 16.5525 28.0112C16.5927 27.9507 17.3989 27.9478 17.4415 28.0112C17.4713 28.0556 17.4484 28.1602 17.4604 28.1731C17.4838 28.1978 17.7125 28.1408 17.7837 28.1925C17.8464 28.2381 17.7612 28.3899 17.9816 28.3362C17.9924 28.2922 17.9554 28.1828 18.0049 28.1735C18.1303 28.1501 19.0479 28.1489 19.1677 28.1735C19.3177 28.2042 19.1975 28.3956 19.4283 28.3358C19.3346 28.0415 19.7315 28.2345 19.7886 28.1727C19.8015 28.159 19.7753 28.0576 19.8083 28.0108C19.8352 27.9725 19.9149 27.987 19.9402 27.962C19.9655 27.9369 19.9506 27.8566 19.9892 27.8299C20.0343 27.7984 20.1308 27.8251 20.1481 27.8077C20.1654 27.7904 20.1388 27.6935 20.1702 27.6482C20.1967 27.6099 20.2767 27.6244 20.3021 27.599C20.3274 27.5735 20.3125 27.4936 20.3511 27.4669C20.3962 27.4355 20.4919 27.4621 20.51 27.4447C20.5293 27.4258 20.4951 27.3046 20.551 27.2643C20.5876 27.238 21.1143 27.2324 21.1714 27.2525C21.2699 27.2869 21.2217 27.4294 21.2398 27.4472C21.2462 27.4532 21.3889 27.4532 21.3954 27.4472C21.4099 27.433 21.3773 27.303 21.436 27.2647C21.481 27.2352 21.5848 27.259 21.5976 27.2461C21.6129 27.2311 21.5908 27.0858 21.5988 27.0858H22.3222C22.3319 27.0228 22.3086 26.7345 22.3222 26.7224C22.3375 26.7083 22.4638 26.7402 22.4823 26.7216C22.5008 26.703 22.4497 26.5609 22.549 26.5262C22.6371 26.4959 23.0251 26.5435 23.046 26.5213C23.0573 26.5096 23.0388 26.3974 23.046 26.3594H23.9302C23.9463 26.3594 23.9025 26.097 23.9475 26.034C23.9885 25.9759 24.1152 26.0094 24.1297 25.9952C24.1514 25.9746 24.1128 25.6496 24.1309 25.6335C24.1462 25.6193 24.2724 25.6512 24.2909 25.6327C24.3054 25.6181 24.2704 25.4881 24.3299 25.4494C24.3749 25.4199 24.4791 25.4433 24.4916 25.4308C24.5101 25.4122 24.4783 25.2854 24.4924 25.2701C24.5169 25.2434 25.1892 25.2459 25.2145 25.2721C25.2266 25.2846 25.1948 25.4974 25.3159 25.472C25.4232 25.4494 25.344 25.1764 25.3939 25.1062C25.4349 25.0484 25.5627 25.0815 25.5764 25.0678C25.5949 25.0492 25.5632 24.9208 25.5772 24.9071C25.5913 24.8934 25.7188 24.9249 25.7373 24.9063C25.7517 24.8918 25.7168 24.7617 25.7763 24.723C25.8213 24.6935 25.9254 24.7169 25.9379 24.7044C25.9564 24.6858 25.9246 24.5591 25.9387 24.5437C25.9564 24.5243 26.4417 24.5643 26.4614 24.5441C26.4811 24.5239 26.4301 24.2865 26.4783 24.2183C26.5193 24.1601 26.646 24.1937 26.6605 24.1795C26.6794 24.1614 26.6504 23.884 26.6621 23.8178H24.8538C24.921 23.5242 24.6536 23.7277 24.5294 23.6393C24.4715 23.5981 24.5044 23.4709 24.4908 23.4564C24.4598 23.4241 24.0492 23.4968 23.9668 23.4366C23.931 23.4104 23.9439 23.3296 23.9186 23.3046C23.8932 23.2795 23.8136 23.2941 23.7871 23.2553C23.7557 23.2101 23.7823 23.1132 23.765 23.0958C23.7477 23.0785 23.6512 23.1051 23.6061 23.0736C23.5679 23.047 23.5824 22.9666 23.5571 22.9416C23.5317 22.9166 23.4521 22.9311 23.4252 22.8923C23.3938 22.8471 23.4204 22.7502 23.4031 22.7328C23.3858 22.7155 23.2893 22.7421 23.2442 22.7106C23.206 22.684 23.2205 22.6036 23.1952 22.5786C23.1699 22.5536 23.0902 22.5681 23.0633 22.5294C23.0319 22.4841 23.0585 22.3876 23.0412 22.3699C23.0239 22.3521 22.9262 22.3787 22.8819 22.3481C22.8377 22.3174 22.8643 22.2144 22.82 22.2019C22.7476 22.1817 22.59 22.2382 22.5197 22.1874C22.4618 22.1458 22.4951 22.0182 22.4811 22.0041C22.4626 21.9855 22.3347 22.0174 22.321 22.0032C22.3073 21.9891 22.3387 21.8611 22.3202 21.8426C22.3057 21.828 22.1763 21.8631 22.1377 21.8034C22.1083 21.7582 22.1312 21.654 22.1192 21.6411C22.0958 21.6164 21.8679 21.6738 21.7963 21.6213C21.7605 21.595 21.7734 21.5143 21.748 21.4893C21.7227 21.4642 21.6431 21.4788 21.6165 21.44C21.5852 21.3948 21.6117 21.2979 21.5944 21.2805C21.5771 21.2632 21.4806 21.2898 21.4356 21.2583C21.3974 21.2317 21.4119 21.1517 21.3865 21.1263C21.3612 21.1008 21.2812 21.1138 21.2551 21.0778C21.1951 20.9955 21.2671 20.582 21.2353 20.5521C21.2217 20.5396 21.1203 20.5655 21.0741 20.5323C21.0359 20.5053 21.0504 20.4254 21.0251 20.4003C20.9997 20.3753 20.9201 20.3898 20.8936 20.3511C20.8622 20.3058 20.8887 20.2089 20.8714 20.1916C20.8542 20.1742 20.7577 20.2009 20.7126 20.1694C20.6744 20.1427 20.6889 20.0624 20.6636 20.0373C20.6382 20.0123 20.5586 20.0268 20.5317 19.9881C20.5003 19.9429 20.5268 19.846 20.5096 19.8286C20.4923 19.8112 20.3958 19.8379 20.3507 19.8064C20.3125 19.7797 20.327 19.6994 20.3017 19.6744C20.2763 19.6493 20.1967 19.6639 20.1698 19.6251C20.1384 19.5799 20.165 19.483 20.1477 19.4656C20.1304 19.4482 20.0339 19.4749 19.9888 19.4434C19.9506 19.4168 19.9651 19.3368 19.9398 19.3114C19.9144 19.2859 19.8344 19.2989 19.8083 19.2629C19.7484 19.1806 19.8204 18.7671 19.7886 18.7372C19.7749 18.7247 19.6736 18.7505 19.6273 18.7174C19.5892 18.6904 19.6036 18.6104 19.5783 18.5854C19.553 18.5604 19.4733 18.5749 19.4468 18.5362C19.4154 18.4909 19.442 18.3948 19.4247 18.3767C19.3949 18.346 19.2582 18.4259 19.2277 18.2721C19.2148 18.2079 19.216 17.7617 19.2333 17.7125C19.2699 17.6079 19.4219 17.6769 19.4311 17.6237C19.3853 17.4262 19.4846 16.089 19.4275 16.034C19.413 16.0199 19.2864 16.053 19.2454 15.9953C19.1935 15.9226 19.2566 15.7118 19.2224 15.6747C19.2039 15.6549 19.1002 15.6832 19.072 15.6044C19.0471 15.5346 19.0865 15.3275 19.066 15.3077C19.0515 15.2939 18.9249 15.3271 18.8835 15.2689C18.8316 15.1962 18.8947 14.9855 18.8605 14.9483C18.842 14.9285 18.7383 14.9568 18.7102 14.8781C18.6852 14.8082 18.7246 14.6011 18.7041 14.5813C18.6897 14.5676 18.563 14.6007 18.5216 14.5426C18.4697 14.4695 18.5332 14.2603 18.4987 14.2224C18.4862 14.2086 18.3438 14.2054 18.3438 14.1566V11.474C18.3438 11.4659 18.5047 11.482 18.5047 11.474V10.5865C18.5047 10.5776 18.3792 10.6091 18.3491 10.5211C18.3362 10.4835 18.3257 10.0386 18.3438 10.0216C18.3587 10.0075 18.4906 10.0362 18.5055 10.022C18.528 10.0006 18.479 9.61303 18.5103 9.52299C18.5469 9.41842 18.6989 9.48746 18.7081 9.43416C18.7761 9.04575 18.6454 9.18545 18.5433 9.1164C18.4866 9.07805 18.4858 8.65773 18.522 8.60686C18.563 8.54872 18.6897 8.58182 18.7041 8.5681C18.7319 8.54145 18.6776 8.16151 18.7106 8.06985C18.7435 7.9782 18.9305 8.06138 18.867 7.84334C18.8561 7.83244 18.7057 7.85142 18.7057 7.84334V5.66505C18.7057 5.65415 18.5445 5.70018 18.5103 5.59924C18.493 5.54877 18.493 4.85349 18.5103 4.80343C18.5445 4.7037 18.6868 4.75417 18.7049 4.7364C18.723 4.71864 18.6921 4.59024 18.7057 4.57571C18.7194 4.56117 18.8525 4.59024 18.8674 4.57651C18.8867 4.55834 18.836 4.3177 18.8843 4.25068C18.9249 4.19415 19.0455 4.22888 19.064 4.20949C19.0817 4.19133 19.0548 4.09523 19.0861 4.05001C19.1131 4.01165 19.1927 4.02619 19.2176 4.00075C19.2425 3.97531 19.2281 3.89537 19.2667 3.86872C19.3117 3.83723 19.4082 3.86388 19.4255 3.84651C19.4428 3.82915 19.4166 3.73144 19.4472 3.68662C19.4778 3.64181 19.5686 3.66038 19.5843 3.64342C19.6185 3.60749 19.5554 3.39551 19.6072 3.32284C19.6487 3.26469 19.7753 3.2978 19.7898 3.28407C19.8147 3.26025 19.7572 3.03172 19.8095 2.95985C19.8356 2.92392 19.9157 2.93684 19.941 2.9114C19.9699 2.88233 19.9446 2.79149 20.0166 2.76564C20.0886 2.7398 20.2924 2.78018 20.3121 2.75959C20.3258 2.74505 20.2928 2.61787 20.3507 2.57668C20.4211 2.52621 20.5783 2.58274 20.6511 2.56215C20.6957 2.54963 20.6676 2.44748 20.713 2.41599C20.7585 2.38449 20.8546 2.41195 20.8723 2.39418C20.8899 2.37642 20.863 2.27992 20.8944 2.2347C20.9209 2.19634 21.0009 2.21088 21.0263 2.18544C21.0516 2.16 21.0367 2.08006 21.0753 2.05341C21.1203 2.02192 21.2169 2.04856 21.2341 2.0312C21.2514 2.01384 21.2249 1.91694 21.2563 1.87172C21.2828 1.83336 21.3628 1.8479 21.3881 1.82246C21.4135 1.79702 21.3986 1.71708 21.4372 1.69043C21.4822 1.65894 21.5787 1.68558 21.596 1.66822C21.6133 1.65086 21.5868 1.55396 21.6181 1.50874C21.6447 1.47038 21.7247 1.48491 21.75 1.45948C21.7754 1.43404 21.7605 1.3541 21.7991 1.32745C21.8441 1.29595 21.9394 1.32301 21.9575 1.30484C21.9708 1.29192 21.9551 1.1074 22.0219 1.1074H22.6849C22.6918 1.06985 22.6733 0.957602 22.6849 0.945489C22.7038 0.925301 23.1843 0.967696 23.206 0.944278C23.2241 0.925301 23.1739 0.783581 23.2732 0.749261C23.356 0.720594 24.0814 0.732707 24.114 0.782774C24.1421 0.825572 24.118 0.924494 24.1357 0.941855C24.1534 0.959217 24.2507 0.932973 24.2945 0.963658C24.3589 1.00848 24.2724 1.1615 24.4932 1.1074C24.4429 0.845357 24.6146 0.983443 24.6544 0.945893C24.6737 0.927724 24.623 0.687082 24.6713 0.620058C24.7119 0.563531 24.8325 0.598255 24.851 0.578874C24.8687 0.560705 24.8418 0.465014 24.8731 0.419389C24.8997 0.381031 24.9793 0.395567 25.0046 0.37013C25.0336 0.341463 25.0079 0.250616 25.0802 0.224372C25.1233 0.208625 25.6705 0.208625 25.7139 0.224372C25.7924 0.252635 25.7642 0.356402 25.7843 0.375379C25.8044 0.394355 26.2837 0.400412 26.3018 0.381435C26.3131 0.369726 26.2946 0.25748 26.3018 0.219527C26.488 0.178747 27.6999 0.273227 27.7486 0.219527L27.7502 0.215893ZM27.7502 1.30484C27.7196 1.27294 26.9898 1.30484 26.866 1.30484C26.8567 1.30484 26.8893 1.44535 26.8286 1.48895C26.7562 1.54104 26.5463 1.47765 26.5093 1.51197C26.4896 1.53054 26.5177 1.63471 26.4393 1.66297C26.3698 1.68801 26.1631 1.64884 26.1438 1.66903C26.1261 1.6876 26.176 1.82973 26.0766 1.86405C25.9886 1.89433 25.6005 1.84709 25.5796 1.86889C25.5684 1.8806 25.5869 1.99285 25.5796 2.0308H24.6954C24.6846 2.0308 24.7304 2.19271 24.6299 2.22703C24.504 2.27023 23.8012 2.19998 23.771 2.23187C23.7573 2.24681 23.7851 2.38086 23.7718 2.39418C23.7585 2.40751 23.6303 2.37602 23.6118 2.39499C23.5933 2.41397 23.6443 2.55609 23.545 2.59041C23.4196 2.63361 22.7163 2.56336 22.6861 2.59526C22.6725 2.6102 22.7002 2.74425 22.6869 2.75757C22.6737 2.77089 22.5454 2.7394 22.5269 2.75838C22.5128 2.77251 22.5462 2.9001 22.4883 2.94168C22.4179 2.99215 22.2607 2.93563 22.1879 2.95622C22.1437 2.96874 22.171 3.07048 22.126 3.10238C22.081 3.13428 21.978 3.10884 21.9644 3.12176C21.943 3.14155 21.9812 3.46738 21.9631 3.48353C21.9479 3.49766 21.8216 3.46577 21.8031 3.48434C21.7886 3.49888 21.8236 3.62889 21.7641 3.66765C21.7191 3.69712 21.6149 3.6737 21.6025 3.68622C21.584 3.70479 21.6157 3.83157 21.6017 3.84692C21.5856 3.86468 21.2615 3.82633 21.2414 3.84813C21.2233 3.86711 21.2735 4.00883 21.1742 4.04314C20.9885 4.10734 20.6435 3.91435 20.7174 4.20949C20.7991 4.22363 21.2181 4.19011 21.2386 4.21111C21.2502 4.22322 21.2297 4.32578 21.2587 4.37342C21.2945 4.43318 21.3938 4.35929 21.4223 4.40734C21.4509 4.45539 21.4581 5.40463 21.4428 5.52212C21.4147 5.73894 21.2852 5.62468 21.2442 5.66546C21.2249 5.68484 21.2591 5.80556 21.2028 5.84594C21.136 5.89439 20.8964 5.84352 20.8783 5.8629C20.8646 5.87784 20.8924 6.01188 20.8791 6.02521C20.8646 6.03894 20.7379 6.00704 20.7195 6.02602C20.7118 6.03369 20.7259 6.22628 20.6579 6.22628H19.9949V7.27525C19.9949 7.28414 20.1203 7.25264 20.1505 7.34066C20.1633 7.37821 20.1738 7.82316 20.1557 7.84011C20.1408 7.85425 20.0089 7.82558 19.9941 7.83971C19.9748 7.85788 20.0254 8.09771 19.9772 8.16555C19.9362 8.22369 19.8095 8.19018 19.795 8.20431C19.783 8.21602 19.7838 8.50107 19.7914 8.54306C19.8007 8.59596 19.9531 8.52691 19.9892 8.63189C20.0061 8.68034 20.0061 8.97145 19.9949 9.03C19.9643 9.18504 19.822 9.10671 19.7954 9.13215C19.7721 9.15436 19.8143 9.63604 19.7942 9.65542C19.7826 9.66673 19.6708 9.64816 19.633 9.65542V11.7736C19.633 11.8406 19.45 11.8248 19.4364 11.8382C19.4166 11.8579 19.4508 11.9779 19.3949 12.0186C19.3326 12.0635 19.0704 12.0194 19.0704 12.036V13.7907C19.0704 13.8594 19.2622 13.8449 19.2699 13.8525C19.2888 13.8715 19.257 13.9991 19.2707 14.0128C19.2844 14.0265 19.4114 13.9946 19.4307 14.0136C19.4448 14.0278 19.411 14.1545 19.4713 14.1977C19.5039 14.2212 19.5871 14.1646 19.6141 14.2107C19.666 14.2975 19.6089 14.4351 19.6298 14.5127C19.6426 14.5595 19.7608 14.5212 19.7886 14.6019C19.8163 14.6827 19.7629 14.8248 19.8115 14.9031C19.8473 14.9608 19.9474 14.889 19.9756 14.9366C20.027 15.0242 19.9703 15.1611 19.9912 15.2386C20.0041 15.2855 20.1223 15.2471 20.1501 15.3279C20.1778 15.4086 20.1243 15.5511 20.173 15.6291C20.2116 15.6904 20.331 15.5972 20.3499 15.6913L20.3527 17.7799C20.5622 17.8005 20.4919 17.9737 20.52 18.0024C20.5377 18.0197 20.6338 17.9931 20.6788 18.0246C20.717 18.0512 20.7026 18.1316 20.7279 18.1566C20.7532 18.1816 20.8328 18.1671 20.8598 18.2059C20.8911 18.2511 20.8646 18.348 20.8819 18.3654C20.8992 18.3827 20.9957 18.3561 21.0407 18.3876C21.0789 18.4142 21.0645 18.4942 21.0898 18.5196C21.1151 18.545 21.1951 18.5321 21.2213 18.568C21.2892 18.6613 21.2028 19.4208 21.241 19.4571C21.2546 19.4696 21.356 19.4438 21.4022 19.4769C21.4404 19.504 21.4259 19.5839 21.4513 19.6089C21.4766 19.634 21.5562 19.6194 21.5828 19.6582C21.6141 19.7034 21.5876 19.8003 21.6049 19.8177C21.6222 19.8351 21.7187 19.8084 21.7637 19.8399C21.8019 19.8665 21.7874 19.9465 21.8128 19.9719C21.8381 19.9974 21.9181 19.9844 21.9443 20.0204C22.0042 20.1027 21.9322 20.5162 21.964 20.5461C21.9776 20.559 22.0802 20.5332 22.1256 20.5655C22.171 20.5978 22.1433 20.6995 22.1875 20.7116C22.2599 20.7318 22.4175 20.6757 22.4879 20.7262C22.5458 20.7677 22.5124 20.8953 22.5265 20.9095C22.545 20.928 22.6721 20.8961 22.6865 20.9103C22.701 20.9244 22.6721 21.0576 22.6857 21.0726C22.7038 21.092 22.9435 21.0411 23.0102 21.0895C23.0665 21.1303 23.0319 21.2514 23.0512 21.27C23.0693 21.2878 23.165 21.2607 23.2101 21.2922C23.2483 21.3193 23.2338 21.3992 23.2591 21.4243C23.2845 21.4493 23.3641 21.4348 23.391 21.4735C23.4224 21.5187 23.3958 21.6156 23.4131 21.633C23.4304 21.6504 23.5269 21.6237 23.572 21.6552C23.6102 21.6819 23.5957 21.7622 23.621 21.7872C23.6463 21.8123 23.726 21.7977 23.7529 21.8365C23.7843 21.8817 23.7577 21.9786 23.775 21.996C23.7923 22.0133 23.8888 21.9867 23.9338 22.0182C23.972 22.0448 23.9576 22.1252 23.9829 22.1502C24.0082 22.1753 24.0874 22.1611 24.1144 22.1995C24.147 22.2455 24.1224 22.3481 24.1353 22.361C24.1413 22.367 24.2845 22.367 24.2909 22.361C24.309 22.3432 24.2608 22.2011 24.3593 22.1664C24.4071 22.1498 24.7421 22.1498 24.7903 22.1664C24.8896 22.2007 24.8394 22.342 24.8575 22.3614C24.878 22.3832 25.2009 22.3444 25.2177 22.3626C25.2318 22.3775 25.2033 22.51 25.2173 22.5245C25.2354 22.5439 25.4743 22.493 25.5418 22.5415C25.6026 22.5851 25.57 22.7256 25.5792 22.7256H27.026C27.1193 22.5007 26.8249 22.5859 26.8249 22.5035V21.8377H26.1619C26.0935 21.8377 26.108 21.6451 26.1004 21.6374C26.0815 21.6181 25.956 21.6504 25.9407 21.6362C25.9226 21.6197 25.9612 21.2951 25.9395 21.2745C25.9246 21.2603 25.7984 21.2934 25.7574 21.2357C25.7087 21.1675 25.7602 20.9296 25.7405 20.9099C25.7208 20.8901 25.4864 20.943 25.416 20.8917C25.3802 20.8655 25.3931 20.7847 25.3677 20.7597C25.3424 20.7346 25.2628 20.7492 25.2362 20.7104C25.2049 20.6652 25.2318 20.5695 25.2137 20.5513C25.2009 20.538 25.0171 20.5537 25.0171 20.4867V19.4579C24.7248 19.5524 24.9166 19.1547 24.8551 19.0962C24.8362 19.078 24.695 19.1285 24.6608 19.0287C24.6242 18.9226 24.6826 18.3936 24.656 18.3682C24.6411 18.3541 24.5092 18.3827 24.4944 18.3686C24.4763 18.3516 24.5149 18.0266 24.4932 18.0068C24.4795 17.9943 24.3782 18.0201 24.3319 17.987C24.2937 17.96 24.3082 17.88 24.2829 17.855C24.2575 17.83 24.1779 17.8445 24.1514 17.8057C24.12 17.7605 24.1466 17.6636 24.1293 17.6463C24.112 17.6289 24.0155 17.6555 23.9704 17.6241C23.9322 17.5974 23.9467 17.5175 23.9214 17.492C23.8928 17.463 23.8024 17.4888 23.7762 17.4161C23.7432 17.3249 23.7979 16.9445 23.7702 16.9179C23.7573 16.9054 23.6532 16.9284 23.6093 16.8989C23.5068 16.8295 23.615 16.2008 23.5736 16.0534C23.5603 16.0058 23.4441 16.0453 23.4147 15.9638C23.3765 15.8568 23.4405 15.3351 23.4087 15.3044C23.3938 15.2899 23.2652 15.3246 23.2265 15.2649C23.1972 15.2197 23.2209 15.1155 23.2081 15.1026C23.1932 15.0872 23.0484 15.1094 23.0484 15.1014V14.3754C23.0858 14.3685 23.1976 14.3871 23.2097 14.3754C23.2229 14.3629 23.2229 14.0241 23.2097 14.012C23.1948 13.9983 23.0613 14.0261 23.048 14.0128C23.0347 13.9995 23.0661 13.8707 23.0472 13.8521C23.0283 13.8335 22.8868 13.8848 22.8526 13.7851C22.8333 13.7286 22.8297 12.7482 22.847 12.6606C22.8779 12.5056 23.0199 12.5839 23.0464 12.5585C23.0786 12.5278 23.0062 12.1151 23.0661 12.0328C23.0922 11.9968 23.1727 12.0098 23.1976 11.9843C23.2225 11.9589 23.2085 11.8793 23.2467 11.8523C23.2933 11.8192 23.3946 11.845 23.4079 11.8325C23.4336 11.8087 23.4232 11.1958 23.4115 11.1304C23.4031 11.0831 23.2961 11.1247 23.2467 11.0892C23.2085 11.0621 23.2229 10.9826 23.1976 10.9572C23.169 10.9281 23.0786 10.9539 23.0524 10.8812C23.04 10.8469 23.0291 10.3983 23.0472 10.3814C23.0621 10.3673 23.194 10.3959 23.2089 10.3818C23.2282 10.3636 23.1775 10.1238 23.2257 10.056C23.2668 9.99781 23.3934 10.0313 23.4079 10.0172C23.4296 9.9966 23.391 9.67158 23.4091 9.65542C23.4244 9.64129 23.5506 9.67319 23.5691 9.65462C23.5836 9.64008 23.5482 9.51653 23.6085 9.47131C23.6516 9.43941 23.7714 9.46202 23.7714 9.45395V8.2035C23.7714 8.19542 23.9322 8.21158 23.9322 8.2035V7.17472C23.9322 7.10769 24.116 7.12344 24.1289 7.11011C24.147 7.09195 24.1204 6.99504 24.151 6.95063C24.1815 6.90621 24.2837 6.93327 24.2965 6.88805C24.3396 6.73946 24.2282 6.11363 24.3323 6.04257C24.3794 6.01027 24.4887 6.04903 24.4972 6.00219C24.5253 5.84311 24.4554 4.97139 24.4944 4.93546C24.5097 4.92133 24.6355 4.95322 24.6544 4.93465C24.6685 4.92052 24.6351 4.79293 24.693 4.75134C24.7634 4.70087 24.9206 4.7574 24.9934 4.73681C25.0376 4.72429 25.0103 4.62254 25.0553 4.59065C25.1003 4.55875 25.2033 4.58418 25.2169 4.57126C25.2383 4.55108 25.2001 4.22645 25.2182 4.20949C25.233 4.19536 25.3649 4.22403 25.3798 4.2099C25.3991 4.19173 25.3484 3.95189 25.3967 3.88406C25.4377 3.82592 25.5644 3.85943 25.5788 3.8453C25.6005 3.82471 25.5619 3.49968 25.58 3.48353C25.5953 3.4694 25.7216 3.5013 25.7401 3.48272C25.7546 3.46819 25.7196 3.33818 25.7791 3.29942C25.8241 3.26994 25.9283 3.29336 25.9407 3.28084C25.9592 3.26227 25.9275 3.13468 25.9415 3.12015C25.9556 3.10561 26.0883 3.13468 26.1032 3.12095C26.1301 3.09552 26.0638 2.67278 26.1201 2.59324C26.1611 2.5351 26.2885 2.56861 26.3026 2.55448C26.3211 2.5359 26.2893 2.40751 26.3034 2.39378C26.3175 2.38005 26.445 2.41155 26.4635 2.39297C26.4779 2.37844 26.4429 2.24843 26.5025 2.20967C26.5475 2.18019 26.6516 2.20361 26.6641 2.19109C26.6826 2.17252 26.6508 2.04574 26.6649 2.0304C26.6814 2.01223 27.0047 2.05099 27.0252 2.02918C27.0393 2.01425 27.0063 1.88746 27.0638 1.84628C27.1317 1.79783 27.3702 1.8487 27.3883 1.82932C27.402 1.81438 27.3742 1.68033 27.3875 1.66701C27.4008 1.65369 27.529 1.68478 27.5475 1.6662C27.56 1.65369 27.5367 1.54911 27.566 1.50389C27.6042 1.44494 27.7333 1.47805 27.7478 1.46311C27.7534 1.45746 27.7554 1.31009 27.7498 1.30443L27.7502 1.30484ZM27.7498 3.12015C27.7441 3.11449 27.5974 3.11692 27.5918 3.12257C27.5773 3.1367 27.6102 3.26671 27.5511 3.30507C27.5061 3.33454 27.4028 3.31153 27.3899 3.32364C27.3782 3.33454 27.377 3.63373 27.3883 3.64504C27.408 3.66482 27.6456 3.61354 27.7128 3.66199C27.7691 3.70237 27.7345 3.82269 27.7542 3.84248C27.7739 3.86226 27.8937 3.82754 27.9339 3.88406C27.9943 3.96845 27.9203 4.54421 27.9508 4.57328C27.9657 4.58742 28.0984 4.55875 28.1125 4.57248C28.1265 4.5862 28.098 4.71985 28.1117 4.73479C28.1245 4.74852 28.4108 4.72469 28.474 4.73479C28.4607 4.65323 28.4925 4.23009 28.4723 4.21151C28.4587 4.199 28.3577 4.22484 28.3111 4.19173C28.2733 4.16468 28.2874 4.08514 28.2621 4.0597C28.2367 4.03426 28.1563 4.04718 28.1306 4.01125C28.0783 3.93938 28.1354 3.71045 28.1109 3.68703C28.096 3.6729 27.9669 3.70722 27.9283 3.64746C27.899 3.60224 27.9223 3.49766 27.9098 3.48515C27.8913 3.46657 27.7651 3.49847 27.7498 3.48434C27.7333 3.4694 27.7675 3.13751 27.7498 3.12095V3.12015ZM28.6742 5.13734V6.32722C28.6742 6.39586 28.4836 6.38133 28.4752 6.3894C28.449 6.41443 28.449 7.0875 28.4752 7.11254C28.4896 7.12667 28.6163 7.09356 28.6573 7.1513C28.7056 7.21913 28.6553 7.45977 28.6742 7.47713C28.6895 7.49127 28.8161 7.45937 28.8342 7.47794C28.8471 7.49127 28.8206 7.59342 28.8535 7.64025C28.8805 7.67861 28.9601 7.66407 28.9854 7.68911C29.0108 7.71414 28.9959 7.79449 29.0345 7.82114C29.0795 7.85263 29.1752 7.82598 29.1933 7.84334C29.213 7.86273 29.1772 7.98587 29.2351 8.02383C29.2798 8.0533 29.3843 8.02948 29.3972 8.042C29.4157 8.06057 29.3839 8.18816 29.398 8.20269C29.4121 8.21723 29.5448 8.18816 29.5596 8.20188C29.5729 8.2144 29.5729 8.55316 29.5596 8.56527C29.5448 8.5794 29.4129 8.55073 29.398 8.56487C29.3847 8.57738 29.3847 8.91614 29.398 8.92825C29.4133 8.94238 29.5391 8.91008 29.5576 8.92906C29.5693 8.94077 29.5488 9.04413 29.5773 9.09177C29.6131 9.15153 29.7128 9.07764 29.741 9.12569C29.7924 9.21331 29.7357 9.35018 29.7567 9.4277C29.7695 9.47454 29.8877 9.43618 29.9155 9.51693C29.9432 9.59769 29.8898 9.73981 29.9384 9.81814C29.9742 9.87588 30.0743 9.80401 30.1025 9.85165C30.1539 9.93927 30.0972 10.0761 30.1181 10.1537C30.131 10.2005 30.2492 10.1621 30.277 10.2429C30.3047 10.3236 30.2512 10.4658 30.2999 10.5441C30.3357 10.6018 30.4358 10.53 30.464 10.5776C30.5158 10.6652 30.4583 10.8033 30.4796 10.8796C30.4921 10.9244 30.5938 10.8962 30.6252 10.9418C30.6566 10.9874 30.6292 11.0835 30.6469 11.1013C30.6658 11.1207 30.7864 11.0864 30.8266 11.1425C30.8749 11.2099 30.8242 11.4501 30.8435 11.4683C30.8584 11.4824 30.9903 11.4538 31.0052 11.4679C31.0233 11.4853 30.9847 11.8091 31.0064 11.8297C31.0213 11.8438 31.1475 11.8107 31.1885 11.8684C31.2368 11.9367 31.1861 12.1761 31.2054 12.1943C31.2203 12.2084 31.3522 12.1797 31.3671 12.1939C31.3852 12.2112 31.3466 12.535 31.3683 12.5556C31.3832 12.5698 31.5094 12.5367 31.5504 12.5944C31.5987 12.6626 31.548 12.9021 31.5673 12.9202C31.5822 12.9344 31.7141 12.9057 31.729 12.9198C31.7426 12.9328 31.7189 13.2202 31.729 13.2832C31.665 13.2941 31.3819 13.2675 31.3671 13.2828C31.3486 13.3014 31.3618 13.7722 31.3856 13.8105C31.4218 13.8687 31.5211 13.796 31.5496 13.844C31.6007 13.9309 31.5408 14.1303 31.5737 14.1654C31.5898 14.1824 31.6811 14.1654 31.7109 14.2086C31.7406 14.2518 31.7153 14.3508 31.7326 14.3685C31.7499 14.3863 31.8464 14.3592 31.8914 14.3907C31.9296 14.4174 31.9151 14.4977 31.9405 14.5228C31.9658 14.5478 32.0454 14.5333 32.0724 14.572C32.1037 14.6172 32.0772 14.7141 32.0945 14.7315C32.1118 14.7489 32.2083 14.7222 32.2533 14.7537C32.2915 14.7804 32.277 14.8607 32.3024 14.8857C32.3277 14.9108 32.4069 14.8966 32.4338 14.935C32.4664 14.981 32.4419 15.0836 32.4548 15.0965C32.4604 15.1022 32.6071 15.1042 32.6128 15.0985C32.6252 15.0868 32.6216 14.8006 32.6136 14.7586C32.6035 14.7032 32.4716 14.7545 32.4515 14.7355C32.4334 14.7182 32.472 14.3936 32.4503 14.3738C32.4367 14.3613 32.3357 14.3871 32.2891 14.354C32.2513 14.3269 32.2654 14.2474 32.24 14.222C32.2147 14.1965 32.1343 14.2094 32.1085 14.1735C32.0563 14.1016 32.1134 13.8727 32.0888 13.8493C32.0699 13.8315 31.9292 13.882 31.8946 13.7823C31.8769 13.7302 31.8773 13.5235 31.9063 13.4823C31.9493 13.4213 32.084 13.4681 32.0908 13.4245C32.1343 13.1556 31.8854 13.414 31.8854 13.1015C31.8854 12.8314 32.0474 12.9574 32.0884 12.9186C32.1013 12.9061 32.1013 12.571 32.0884 12.5585C32.0736 12.5443 31.9473 12.5774 31.9063 12.5197C31.858 12.4515 31.9087 12.212 31.8894 12.1939C31.8745 12.1797 31.7426 12.2084 31.7278 12.1943C31.7097 12.1769 31.7483 11.8531 31.7265 11.8325C31.7117 11.8184 31.5854 11.8515 31.5444 11.7937C31.4961 11.7255 31.5468 11.4861 31.5275 11.4679C31.5126 11.4538 31.3807 11.4824 31.3659 11.4683C31.3478 11.451 31.3864 11.1271 31.3647 11.1065C31.3498 11.0924 31.2235 11.1255 31.1825 11.0678C31.1343 10.9995 31.1849 10.7601 31.1656 10.7419C31.1507 10.7278 31.0189 10.7565 31.004 10.7424C30.9859 10.725 31.0245 10.4012 31.0028 10.3806C30.9879 10.3664 30.8616 10.3996 30.8206 10.3418C30.7724 10.2736 30.823 10.0342 30.8037 10.016C30.7888 10.0019 30.657 10.0305 30.6421 10.0164C30.624 9.99903 30.6626 9.67521 30.6409 9.65462C30.626 9.64049 30.4997 9.67359 30.4587 9.61586C30.4105 9.54762 30.4611 9.30819 30.4418 9.29002C30.427 9.27589 30.2951 9.30456 30.2802 9.29042C30.2621 9.27306 30.3007 8.94925 30.279 8.92865C30.2641 8.91452 30.1378 8.94763 30.0968 8.88989C30.0486 8.82166 30.0992 8.58223 30.0799 8.56406C30.0651 8.54993 29.9332 8.57859 29.9183 8.56446C29.9002 8.5475 29.9388 8.22328 29.9171 8.20269C29.8982 8.18452 29.7571 8.23499 29.7229 8.13526C29.64 7.89382 29.7908 7.22559 29.7205 6.97526C29.7072 6.92761 29.591 6.96718 29.5616 6.88562C29.5234 6.77822 29.5874 6.25697 29.5552 6.22628C29.5407 6.21215 29.4141 6.24526 29.3731 6.18752C29.3228 6.11686 29.3791 5.95899 29.3586 5.88631C29.3461 5.8415 29.2444 5.86976 29.213 5.82414C29.1817 5.77851 29.209 5.68201 29.1913 5.66425C29.1736 5.64648 29.0775 5.67353 29.0325 5.64204C28.9943 5.61539 29.0088 5.53545 28.9834 5.51001C28.9581 5.48457 28.8777 5.49749 28.8519 5.46156C28.7611 5.3368 28.9657 5.06628 28.673 5.13613L28.6742 5.13734ZM33.1749 5.66182C33.146 5.66707 33.0141 5.65375 33.0141 5.66182V6.54929C33.0141 6.55737 33.1749 6.55737 33.1749 6.54929V5.66182ZM31.3667 6.91227V6.0248C31.3667 6.01673 31.2501 6.04096 31.2038 6.00664C31.1576 5.97232 31.1857 5.87339 31.1415 5.86047C31.0715 5.84029 30.9292 5.87905 30.8439 5.8629C30.8572 5.93154 30.821 6.14957 30.85 6.18066C30.8685 6.20084 30.973 6.17299 31.0004 6.25091C31.0289 6.33287 30.9746 6.47379 31.0233 6.55212C31.0591 6.60985 31.1592 6.53758 31.1873 6.58563C31.2742 6.733 31.0788 6.97728 31.3667 6.91187V6.91227ZM30.2818 6.0248C30.2762 6.01915 30.1274 6.01915 30.1214 6.0248C30.1033 6.04217 30.1101 6.49599 30.1185 6.52506C30.1314 6.57029 30.2331 6.54364 30.2641 6.58684C30.3132 6.65508 30.2271 6.98535 30.3819 6.95265C30.4627 6.93569 30.464 6.40757 30.443 6.38779C30.4282 6.37365 30.2963 6.40232 30.2814 6.38819C30.2645 6.37244 30.2991 6.04136 30.2814 6.0248H30.2818ZM33.3358 6.58967H33.1757C33.1206 7.07337 33.3908 7.07499 33.3358 6.58967ZM31.3667 8.92946C31.363 8.73323 31.4471 8.50309 31.2062 8.56608C31.2163 8.63028 31.1909 8.91412 31.2062 8.92946C31.2131 8.93633 31.3293 8.92744 31.3671 8.92946C31.3691 9.03404 31.3152 9.52622 31.4668 9.49392C31.5484 9.47656 31.548 8.95005 31.5279 8.92906C31.5211 8.92219 31.4049 8.93108 31.3671 8.92906L31.3667 8.92946ZM31.7286 9.85731C31.5082 9.80239 31.5939 9.95542 31.5299 10.0006C31.4845 10.0329 31.3819 10.0075 31.3683 10.02C31.3514 10.0358 31.357 10.4286 31.3667 10.4823C31.3952 10.641 31.5158 10.5243 31.5492 10.5796C31.6007 10.666 31.5404 10.8651 31.5733 10.901C31.5918 10.9208 31.6956 10.8925 31.7237 10.9713C31.7808 11.1312 31.6111 11.3234 31.8894 11.2693V10.5833C31.8894 10.5748 31.7286 10.5841 31.7286 10.5227V9.8569V9.85731ZM32.8134 10.2203C32.8078 10.2146 32.659 10.215 32.653 10.2203C32.6421 10.2304 32.6429 10.4928 32.6502 10.5187C32.6634 10.5659 32.7809 10.5271 32.809 10.6083C32.8371 10.6895 32.7837 10.8429 32.8307 10.9091C32.8717 10.9668 32.9984 10.9337 33.0129 10.9479C33.0366 10.9705 32.9948 11.1841 33.0117 11.2446C33.0249 11.2919 33.1423 11.2531 33.1705 11.3343C33.1986 11.4154 33.1448 11.5571 33.1934 11.6355C33.2292 11.6932 33.3293 11.6209 33.3575 11.669C33.4037 11.7477 33.3575 11.9779 33.3764 11.9956C33.382 12.0013 33.5312 12.0017 33.5368 11.9956C33.5738 11.9581 33.4383 11.782 33.698 11.8337C33.762 11.6157 33.575 11.7013 33.5416 11.6072C33.5167 11.5374 33.5557 11.3302 33.5356 11.3104C33.5211 11.2967 33.3945 11.3298 33.353 11.2717C33.3012 11.199 33.3643 10.987 33.3301 10.9511C33.3144 10.9341 33.2228 10.9511 33.193 10.9079C33.1633 10.8647 33.189 10.7662 33.1713 10.7484C33.1524 10.729 33.0318 10.7633 32.9916 10.7072C32.9433 10.6398 32.994 10.3996 32.9747 10.3814C32.9598 10.3673 32.8271 10.3959 32.813 10.3822C32.7989 10.3685 32.8275 10.2344 32.813 10.2203H32.8134ZM28.6742 12.984C28.7289 13.1512 28.6336 13.607 28.6742 13.8109C28.8664 13.7907 29.0482 13.9034 28.9959 13.6498C28.9577 13.6414 28.8467 13.6615 28.8346 13.6498C28.8165 13.6329 28.827 13.1924 28.8407 13.1508C28.8821 13.0236 29.1688 13.1128 29.1969 13.085C29.2082 13.0737 29.207 12.7745 29.1953 12.7636C29.1804 12.749 29.0518 12.7838 29.0132 12.724C28.9838 12.6788 29.0071 12.5742 28.9947 12.5617C28.9762 12.5431 28.8499 12.575 28.8346 12.5609C28.8165 12.5443 28.8551 12.2197 28.8334 12.1991C28.8186 12.185 28.6923 12.2181 28.6513 12.1604C28.603 12.0921 28.6537 11.8527 28.6344 11.8345C28.6195 11.8204 28.4876 11.8491 28.4728 11.8349C28.4547 11.8176 28.4933 11.4937 28.4715 11.4732C28.4567 11.459 28.3304 11.4921 28.2894 11.4344C28.2411 11.3662 28.2918 11.1267 28.2725 11.1086C28.2576 11.0944 28.1257 11.1231 28.1109 11.109C28.0928 11.0916 28.1314 10.7678 28.1097 10.7472C28.0948 10.7331 27.9685 10.7662 27.9275 10.7084C27.8105 10.5433 28.1221 10.3051 27.5885 10.383C27.5246 10.601 27.7112 10.5154 27.7445 10.6095C27.7779 10.7036 27.7228 11.0807 27.751 11.1078C27.7655 11.1219 27.8921 11.0888 27.9331 11.1465C27.9926 11.2301 27.9187 11.5063 27.9476 11.6088C27.9613 11.6565 28.0783 11.6173 28.1064 11.6985C28.1346 11.7796 28.0811 11.933 28.1282 11.9993C28.1692 12.057 28.2958 12.0239 28.3103 12.038C28.3336 12.0602 28.2914 12.5423 28.3115 12.5613C28.3264 12.5754 28.4583 12.5468 28.4732 12.5609C28.4912 12.5783 28.4522 12.9017 28.4744 12.9227C28.488 12.9356 28.6473 12.9045 28.6734 12.9848L28.6742 12.984ZM28.8354 10.7448C28.821 10.7302 28.5371 10.7553 28.4736 10.7448C28.4136 11.0004 28.642 10.9184 28.673 10.9479C28.6967 10.9705 28.6549 11.1841 28.6718 11.2446C28.6851 11.2919 28.8017 11.2531 28.8306 11.3343C28.8873 11.4942 28.7184 11.6859 28.9959 11.6322C28.9822 11.5507 29.0156 11.1255 28.9963 11.1074C28.9814 11.0932 28.8495 11.1219 28.8346 11.1078C28.8178 11.0916 28.8527 10.7617 28.835 10.7444L28.8354 10.7448ZM32.4519 11.1082C32.4483 10.9119 32.5324 10.6818 32.2915 10.7448C32.3015 10.809 32.2762 11.0928 32.2915 11.1082C32.2983 11.115 32.4145 11.1061 32.4523 11.1082C32.4547 11.2285 32.421 11.6016 32.4921 11.6561C32.5203 11.6775 32.5959 11.6375 32.6152 11.6512C32.7141 11.7239 32.6136 12.2019 32.651 12.334C32.6642 12.3816 32.7805 12.3421 32.8098 12.4236C32.8589 12.5613 32.7632 12.9913 32.8327 13.0874C32.8589 13.1233 32.9385 13.1104 32.9642 13.1358C33.0016 13.1726 32.9517 13.2634 33.0744 13.2877C33.2602 13.3244 33.1142 13.026 33.3165 13.085C33.3949 13.1076 33.3675 13.2723 33.3796 13.284C33.3852 13.2897 33.5316 13.2921 33.5376 13.2864C33.5509 13.2739 33.5493 12.9372 33.5364 12.9247C33.5215 12.9105 33.3953 12.9437 33.3542 12.8859C33.306 12.8177 33.3567 12.5783 33.3374 12.5601C33.3225 12.546 33.1906 12.5746 33.1757 12.5605C33.1576 12.5431 33.1962 12.2193 33.1745 12.1987C33.1596 12.1846 33.0334 12.2177 32.9924 12.16C32.9441 12.0917 32.9948 11.8523 32.9755 11.8341C32.9606 11.82 32.8287 11.8487 32.8138 11.8345C32.7957 11.8172 32.8343 11.4933 32.8126 11.4728C32.7977 11.4586 32.6715 11.4917 32.6305 11.434C32.5818 11.3654 32.6337 11.1288 32.6136 11.1082C32.6067 11.1013 32.4905 11.1102 32.4527 11.1082H32.4519ZM32.09 11.3096C31.8379 11.2567 31.9489 11.4396 31.9296 11.6326C32.1817 11.6855 32.0707 11.5026 32.09 11.3096ZM29.1965 11.6726C28.9444 11.6197 29.0554 11.8026 29.0361 11.9956C29.2882 12.0485 29.1772 11.8656 29.1965 11.6726ZM24.4952 12.1975C24.4815 12.183 24.1964 12.2072 24.1333 12.1975C24.1506 12.2932 24.085 12.7394 24.1944 12.7624C24.3488 12.7951 24.264 12.4636 24.3114 12.3966C24.352 12.3392 24.4791 12.3711 24.4932 12.3566C24.4988 12.3509 24.5008 12.2036 24.4956 12.1979L24.4952 12.1975ZM29.3574 13.1249C29.1053 13.0721 29.2162 13.255 29.1969 13.448C29.4491 13.5008 29.3381 13.3179 29.3574 13.1249ZM29.5584 13.4879C29.3063 13.435 29.4173 13.6179 29.398 13.8109C29.6501 13.8638 29.5391 13.6809 29.5584 13.4879ZM33.8983 17.8449C33.8557 17.8005 32.838 17.8449 32.6727 17.8449C32.6043 17.8449 32.6188 17.6535 32.6108 17.6451C32.5886 17.6216 32.1077 17.6632 32.0896 17.6438C32.0756 17.6285 32.1073 17.5017 32.0888 17.4831C32.0764 17.4706 31.9722 17.494 31.9272 17.4646C31.8677 17.4258 31.9023 17.2958 31.8882 17.2813C31.8697 17.2627 31.7434 17.2946 31.7282 17.2805C31.6952 17.2502 31.7201 16.4257 31.7462 16.3898C31.7776 16.3466 31.8789 16.3728 31.8918 16.328C31.8986 16.3046 31.8986 16.0777 31.8918 16.0542C31.8789 16.009 31.7776 16.0377 31.7462 15.9916C31.7149 15.9456 31.7422 15.8503 31.7245 15.8322C31.7056 15.8128 31.585 15.8471 31.5448 15.791C31.4965 15.7236 31.5472 15.4833 31.5279 15.4651C31.513 15.4514 31.3795 15.4793 31.3663 15.466C31.353 15.4526 31.3844 15.3242 31.3655 15.3053C31.3514 15.2911 31.2239 15.3246 31.1829 15.2665C31.1314 15.1938 31.1942 14.9818 31.16 14.9459C31.1443 14.9289 31.0526 14.9459 31.0229 14.9027C30.9931 14.8595 31.0184 14.7606 31.0012 14.7428C30.9839 14.7251 30.8862 14.7517 30.8419 14.721C30.7977 14.6903 30.8146 14.5991 30.7981 14.5841C30.6348 14.4372 30.5926 14.7933 30.6614 14.9035C30.6976 14.9617 30.7969 14.889 30.8254 14.937C30.8773 15.0246 30.8198 15.1623 30.8411 15.239C30.8536 15.2835 30.9553 15.2576 30.9867 15.3008C31.0225 15.3501 31.0237 15.6097 30.967 15.6493C30.9219 15.6808 30.7241 15.6812 30.6799 15.6497C30.6236 15.6093 30.6582 15.4882 30.6389 15.4692C30.6208 15.4514 30.5255 15.4785 30.48 15.447C30.4418 15.4203 30.4563 15.3404 30.431 15.3149C30.4056 15.2895 30.3252 15.3024 30.2995 15.2665C30.2472 15.1946 30.3047 14.9661 30.2798 14.9423C30.2653 14.9285 30.1387 14.9617 30.0972 14.9035C30.0409 14.824 30.1073 14.4016 30.0803 14.3758C30.0655 14.3617 29.9336 14.3903 29.9187 14.3762C29.9006 14.3592 29.9392 14.0342 29.9175 14.0144C29.9038 14.0015 29.8017 14.0274 29.7559 13.9951C29.71 13.9627 29.7349 13.861 29.6955 13.8493C29.521 13.7968 29.5307 13.9644 29.5572 14.1142C29.5838 14.264 29.6899 14.1715 29.7201 14.1933C29.8101 14.2599 29.7273 14.7105 29.7579 14.7396C29.7727 14.7537 29.9046 14.7251 29.9195 14.7392C29.9376 14.7565 29.899 15.0804 29.9207 15.101C29.9356 15.1151 30.0619 15.082 30.1029 15.1397C30.1624 15.2237 30.088 15.5003 30.1173 15.602C30.1306 15.6472 30.2319 15.6206 30.2629 15.6638C30.3152 15.7365 30.2468 15.9089 30.2991 15.9929C30.3349 16.0506 30.435 15.9787 30.4631 16.0264C30.5146 16.1136 30.4543 16.3118 30.4873 16.3478C30.5058 16.3676 30.6095 16.3393 30.6377 16.418C30.6706 16.5097 30.6159 16.8892 30.6441 16.9163C30.6586 16.9304 30.7852 16.8973 30.8262 16.955C30.8745 17.0229 30.8242 17.2635 30.8431 17.2809C30.8584 17.295 30.9847 17.2631 31.0032 17.2817C31.0176 17.2962 30.9827 17.4262 31.0422 17.465C31.0872 17.4944 31.1913 17.471 31.2038 17.4835C31.2223 17.5021 31.1905 17.6301 31.2046 17.6442C31.2187 17.6584 31.3526 17.6297 31.3663 17.6434C31.3799 17.6572 31.3518 17.7908 31.3655 17.8057C31.3836 17.8251 31.6232 17.7743 31.69 17.8227C31.7462 17.8635 31.7117 17.9846 31.731 18.0032C31.7491 18.021 31.8448 17.9939 31.8898 18.0254C31.928 18.0524 31.9135 18.1324 31.9389 18.1574C31.9642 18.1825 32.0438 18.1679 32.0707 18.2067C32.1021 18.2519 32.0756 18.3488 32.0929 18.3662C32.1102 18.3835 32.2067 18.3569 32.2517 18.3884C32.2899 18.415 32.2754 18.4954 32.3007 18.5204C32.3261 18.5454 32.4057 18.5309 32.4326 18.5697C32.464 18.6149 32.4375 18.7118 32.4548 18.7292C32.472 18.7465 32.5685 18.7199 32.6136 18.7514C32.6518 18.778 32.6373 18.8579 32.6626 18.8834C32.688 18.9088 32.7688 18.8959 32.7945 18.9318C32.8472 19.0049 32.7788 19.1757 32.8315 19.2589C32.9755 19.485 32.9706 18.9839 32.9787 18.9601C33.0117 18.8612 33.1556 18.9108 33.1733 18.8931C33.1918 18.8745 33.1604 18.7461 33.1741 18.7324C33.1878 18.7187 33.3156 18.7501 33.3341 18.7316C33.3466 18.7191 33.3233 18.6145 33.3526 18.5693C33.3912 18.5095 33.5203 18.5438 33.5352 18.5297C33.5597 18.5063 33.5026 18.2773 33.5549 18.2055C33.581 18.1695 33.6615 18.1825 33.6864 18.157C33.7113 18.1316 33.6972 18.052 33.7354 18.025C33.7813 17.9923 33.8834 18.0169 33.8963 18.004C33.9019 17.9983 33.9039 17.851 33.8983 17.8453V17.8449ZM28.8354 14.3754C28.821 14.3609 28.5371 14.3859 28.4736 14.3754C28.4132 14.631 28.6424 14.5494 28.673 14.5785C28.6963 14.6007 28.6545 15.0828 28.6742 15.1018C28.6891 15.1159 28.821 15.0872 28.8358 15.1014C28.858 15.1224 28.8097 15.51 28.8407 15.6004C28.8749 15.7001 29.0156 15.6497 29.0349 15.6678C29.0586 15.69 29.0168 15.904 29.0337 15.9646C29.047 16.0118 29.1632 15.9727 29.1925 16.0542C29.2251 16.1459 29.1708 16.5254 29.1989 16.5525C29.2134 16.5666 29.3401 16.5335 29.3811 16.5912C29.4298 16.6595 29.3783 16.8973 29.398 16.9171C29.4205 16.9393 29.6863 16.8739 29.7422 16.9546C29.7904 17.0245 29.7406 17.2631 29.7595 17.2801C29.7748 17.2942 29.9002 17.2619 29.9191 17.2813C29.9308 17.293 29.8994 17.507 30.0204 17.4815C30.0928 17.4662 30.1001 17.2005 30.084 17.1432C30.0703 17.0955 29.9541 17.1347 29.9255 17.0535C29.9006 16.9837 29.9396 16.7766 29.9195 16.7568C29.905 16.743 29.7784 16.7762 29.737 16.718C29.6851 16.6453 29.7482 16.4346 29.714 16.3974C29.6955 16.3776 29.5918 16.4059 29.5636 16.3272C29.5387 16.2573 29.5781 16.0502 29.5576 16.0304C29.5431 16.0167 29.4165 16.0498 29.3751 15.9916C29.3188 15.9121 29.3851 15.4898 29.3582 15.4639C29.3433 15.4498 29.2114 15.4785 29.1965 15.4643C29.1784 15.447 29.217 15.1232 29.1953 15.1026C29.1804 15.0884 29.0542 15.1215 29.0132 15.0638C28.9649 14.9956 29.0156 14.7561 28.9963 14.738C28.9814 14.7238 28.8495 14.7525 28.8346 14.7384C28.8178 14.7222 28.8527 14.3924 28.835 14.375L28.8354 14.3754ZM35.345 15.3032C35.0929 15.2503 35.2039 15.4332 35.1846 15.6262C35.4367 15.6791 35.3257 15.4962 35.345 15.3032ZM27.5495 15.6662C27.5355 15.6521 27.287 15.6763 27.2274 15.6662C27.2419 15.7478 27.2081 16.1729 27.2274 16.1911C27.2423 16.2052 27.375 16.1766 27.3891 16.1903C27.4032 16.204 27.3746 16.3377 27.3883 16.3526C27.4012 16.3663 27.6874 16.3425 27.7506 16.3526C27.7397 16.2908 27.7671 16.0486 27.749 16.0312C27.7341 16.0171 27.6078 16.0502 27.5668 15.9925C27.5182 15.9242 27.5696 15.6864 27.5499 15.6666L27.5495 15.6662ZM28.2725 15.8277C28.0115 15.768 28.137 15.9965 28.1121 16.1911C28.373 16.2509 28.2476 16.0223 28.2725 15.8277ZM28.4711 16.1931C28.4655 16.1875 28.3187 16.1855 28.3131 16.1911C28.295 16.2085 28.3019 16.6611 28.3103 16.6914C28.3236 16.739 28.441 16.6998 28.4691 16.781C28.4973 16.8622 28.4438 17.0156 28.4908 17.0818C28.5319 17.1395 28.6585 17.1064 28.673 17.1206C28.6959 17.1428 28.6545 17.6261 28.6742 17.6438C28.6895 17.658 28.8161 17.6261 28.8342 17.6446C28.8471 17.658 28.8206 17.7601 28.8535 17.807C28.8805 17.8453 28.9601 17.8308 28.9854 17.8558C29.0108 17.8808 28.9959 17.9612 29.0345 17.9878C29.0795 18.0193 29.1748 17.9923 29.1933 18.0105C29.2126 18.0294 29.178 18.1489 29.2367 18.1917C29.2689 18.2152 29.3525 18.1586 29.3799 18.2047C29.4663 18.3496 29.2729 18.5987 29.5592 18.5313C29.5464 18.4493 29.5785 18.0278 29.558 18.008C29.5435 17.9939 29.4169 18.027 29.3759 17.9693C29.3276 17.901 29.3783 17.6616 29.359 17.6434C29.3441 17.6293 29.2122 17.658 29.1973 17.6438C29.1792 17.6269 29.2178 17.3019 29.1961 17.2821C29.1825 17.2696 29.0815 17.2954 29.0349 17.2623C28.9971 17.2352 29.0112 17.1557 28.9858 17.1303C28.9605 17.1048 28.8801 17.1177 28.8543 17.0818C28.8021 17.0099 28.8596 16.7814 28.8346 16.7576C28.8202 16.7439 28.6935 16.777 28.6521 16.7188C28.6018 16.6482 28.6581 16.4903 28.6376 16.4176C28.6251 16.3732 28.5238 16.4007 28.4921 16.3554C28.4603 16.3102 28.4848 16.2069 28.4715 16.1939L28.4711 16.1931ZM24.8543 16.5561C24.8486 16.5505 24.7019 16.5484 24.6962 16.5541C24.6781 16.5715 24.685 17.0257 24.6934 17.0543C24.7063 17.0996 24.8072 17.0713 24.839 17.1169C24.8707 17.1626 24.8462 17.2655 24.8595 17.2784C24.8651 17.2841 25.0119 17.2861 25.0175 17.2805C25.0356 17.2631 25.0288 16.8089 25.0203 16.7802C25.0075 16.735 24.9065 16.7632 24.8748 16.7176C24.843 16.672 24.8675 16.569 24.8543 16.5561ZM27.1872 18.2079H27.0272C26.9721 18.6916 27.2423 18.6932 27.1872 18.2079ZM31.1656 18.7324C30.9047 18.6726 31.0301 18.9012 31.0052 19.0958C31.2661 19.1555 31.1407 18.927 31.1656 18.7324ZM7.33635 27.6482C7.29936 27.6854 7.33635 28.5539 7.33635 28.6972C7.33635 28.7045 7.44451 28.6835 7.4791 28.7352C7.51006 28.7816 7.48593 28.8845 7.4984 28.8975C7.52292 28.9237 8.19363 28.8741 8.21896 28.9003C8.23344 28.9152 8.19885 29.0444 8.25837 29.0832C8.3034 29.1127 8.40754 29.0893 8.42001 29.1018C8.43851 29.1203 8.40674 29.2479 8.42081 29.2625C8.43489 29.277 8.56758 29.2479 8.58246 29.2617C8.63513 29.3113 8.53059 30.6631 8.58366 30.7128C8.59734 30.7253 8.69867 30.6995 8.74491 30.7326C8.78311 30.7596 8.76863 30.8396 8.79396 30.8646C8.8193 30.8896 8.89891 30.8751 8.92545 30.9139C8.95681 30.9591 8.92987 31.0548 8.94797 31.0729C8.96083 31.0863 9.1446 31.0705 9.1446 31.1375V31.8033H9.46628C9.48558 31.6867 9.42204 31.3124 9.50447 31.2562C9.55152 31.2239 9.66089 31.2627 9.66934 31.2159C9.71236 30.972 9.60339 30.4051 9.67175 30.2145C9.69989 30.1358 9.80364 30.1641 9.82213 30.1443C9.85631 30.1075 9.79318 29.8968 9.84505 29.8237C9.88647 29.7656 10.0131 29.7987 10.0276 29.7849C10.0481 29.7656 10.0087 29.5584 10.0336 29.4882C10.0626 29.407 10.1792 29.4458 10.1925 29.3985C10.1993 29.3743 10.1993 29.1482 10.1925 29.1248C10.1796 29.08 10.0791 29.1078 10.0469 29.0622C10.0147 29.0166 10.0493 28.9043 10.0091 28.8979C9.76463 28.8571 9.93352 29.0493 9.80283 29.0953C9.74493 29.1155 9.17877 29.1094 9.14218 29.0832C9.08428 29.042 9.11765 28.914 9.10358 28.8999C9.08508 28.8813 8.95722 28.9132 8.94354 28.8991C8.92987 28.885 8.96164 28.757 8.94274 28.7384C8.92867 28.7243 8.8012 28.7578 8.76019 28.6996C8.70832 28.627 8.77145 28.4162 8.73727 28.379C8.71877 28.3593 8.61503 28.3875 8.58688 28.3088C8.56396 28.2442 8.59814 28.0258 8.58206 28.0108C8.36452 27.9466 8.45057 28.1336 8.35648 28.1675C8.31185 28.1836 8.12849 28.1836 8.08426 28.1675C8.01228 28.1412 8.03802 28.0504 8.00866 28.0217C7.98293 27.9963 7.90371 28.0112 7.87717 27.9725C7.84581 27.9272 7.87235 27.8307 7.85506 27.813C7.83777 27.7952 7.74046 27.8219 7.69583 27.7912C7.65119 27.7605 7.66969 27.6696 7.6528 27.6535C7.64114 27.6426 7.34761 27.6365 7.33635 27.6478V27.6482ZM23.9326 27.8093C23.8711 27.8202 23.6299 27.7924 23.6126 27.8109C23.6021 27.8223 23.617 27.9034 23.6041 27.9418C23.5539 28.0916 23.0536 27.968 22.9121 28.0084C22.8647 28.0217 22.9041 28.1384 22.8228 28.1679C22.7324 28.2006 22.352 28.1465 22.3266 28.1739C22.3142 28.1877 22.3399 28.289 22.3069 28.3358C22.28 28.3742 22.2004 28.3597 22.1751 28.3847C22.1497 28.4097 22.1646 28.4901 22.126 28.5167C22.081 28.5482 21.9857 28.5212 21.9676 28.5393C21.9543 28.5523 21.97 28.7368 21.9032 28.7368H21.2402C21.1992 28.9879 21.3142 28.8531 21.403 28.9164C21.4412 28.9435 21.4267 29.023 21.4521 29.0485C21.4806 29.0775 21.5711 29.0517 21.5972 29.1244C21.6427 29.2495 21.5659 29.9509 21.6033 29.9856C21.6169 29.9981 21.7183 29.9723 21.7645 30.0054C21.8027 30.0324 21.7882 30.1124 21.8136 30.1374C21.8389 30.1625 21.9185 30.1479 21.9451 30.1867C21.9764 30.2319 21.9499 30.328 21.9672 30.3462C21.9861 30.3655 22.1067 30.3312 22.1469 30.3873C22.1948 30.4544 22.1445 30.6958 22.1638 30.7132C22.1791 30.7273 22.3049 30.695 22.3234 30.7144C22.3351 30.7261 22.3146 30.8295 22.3431 30.8771C22.3789 30.9369 22.4786 30.863 22.5068 30.911C22.5583 30.9986 22.5016 31.1355 22.5225 31.213C22.5353 31.2599 22.6536 31.2215 22.6813 31.3023C22.709 31.383 22.656 31.5373 22.703 31.6031C22.744 31.6608 22.8715 31.6277 22.8856 31.6418C22.9045 31.6604 22.8727 31.7872 22.8864 31.8025C22.9041 31.8223 23.1421 31.7698 23.2109 31.8203C23.2736 31.8659 23.1883 32.0177 23.4087 31.964C23.3584 31.7028 23.5277 31.8421 23.5683 31.8013C23.5828 31.7868 23.5478 31.6568 23.6073 31.618C23.6524 31.5885 23.7557 31.6116 23.769 31.5994C23.7879 31.5817 23.7879 31.0955 23.769 31.0778C23.7553 31.0653 23.6544 31.0911 23.6077 31.058C23.5699 31.0309 23.584 30.9514 23.5587 30.926C23.5301 30.8969 23.4397 30.9227 23.4135 30.8501C23.4011 30.8161 23.3902 30.3668 23.4083 30.3502C23.4236 30.3361 23.5498 30.368 23.5683 30.3494C23.5828 30.3349 23.5478 30.2049 23.6073 30.1661C23.6524 30.1366 23.7565 30.16 23.769 30.1475C23.7875 30.1289 23.7557 30.0005 23.7698 29.9868C23.7839 29.9731 23.9113 30.0046 23.9298 29.986C23.9423 29.9735 23.919 29.8689 23.9483 29.8237C23.9869 29.7639 24.1156 29.7987 24.1305 29.7841C24.1421 29.7732 24.1417 29.4753 24.1305 29.4644C24.122 29.4563 23.9314 29.4708 23.9314 29.4022V27.8085L23.9326 27.8093Z" fill="#212121"/>
<path d="M9.84712 1.39508C9.90897 1.41664 9.88742 1.54802 9.93132 1.56022C9.95646 1.56714 10.1771 1.56714 10.2019 1.56022C10.2485 1.5468 10.2098 1.42925 10.2904 1.39955C10.3475 1.37881 10.9113 1.38654 10.9468 1.41298C10.9895 1.4447 10.9636 1.54721 11.0079 1.56022C11.1539 1.60334 11.7752 1.49148 11.8435 1.59642C11.8714 1.63954 11.8474 1.73879 11.865 1.75668C11.8826 1.77458 11.9799 1.75018 12.0222 1.77865C12.1028 1.83316 12.0426 2.17686 12.0601 2.28954C12.0817 2.3115 12.4272 2.26432 12.5134 2.29482C12.612 2.3294 12.5621 2.47176 12.5801 2.49129C12.6379 2.55352 13.031 2.3595 12.9376 2.65521H14.1538C14.2216 2.65521 14.2073 2.84923 14.2149 2.85696C14.2336 2.87648 14.3581 2.84394 14.3733 2.85818C14.3996 2.88299 14.3342 3.29829 14.3912 3.39022C14.4232 3.44147 14.5724 3.37476 14.5724 3.44798V4.32169C14.6534 4.33511 15.0696 4.30216 15.0891 4.32332C15.1007 4.33552 15.0804 4.43883 15.1091 4.48683C15.1446 4.54703 15.2432 4.47259 15.2715 4.521C15.3625 4.6776 15.2432 5.67212 15.287 5.92227C15.5827 5.92593 15.3872 6.45309 15.4507 6.51451C15.4694 6.53281 15.6095 6.48197 15.6434 6.58244C15.7036 6.76141 15.5955 7.20925 15.6458 7.38537C15.6589 7.43093 15.7591 7.40246 15.7902 7.44842C15.8213 7.49438 15.7942 7.5916 15.8118 7.6095C15.8293 7.62739 15.9247 7.60014 15.9694 7.63187C16.0073 7.65871 15.9929 7.73966 16.0181 7.76488C16.0432 7.7901 16.1222 7.77545 16.1485 7.8145C16.1797 7.86006 16.1533 7.95687 16.1705 7.97517C16.1892 7.99469 16.309 7.96012 16.3489 8.01666C16.4075 8.10004 16.3309 8.4584 16.3716 8.50192C16.3876 8.519 16.4781 8.50192 16.5077 8.54544C16.5372 8.58896 16.5121 8.68862 16.5292 8.70652C16.5464 8.72441 16.6421 8.69716 16.6868 8.72889C16.7247 8.75573 16.7104 8.83627 16.7355 8.8619C16.7638 8.89118 16.8536 8.86515 16.8796 8.93837C16.8919 8.97294 16.9027 9.42485 16.8848 9.44193C16.87 9.45617 16.7391 9.42729 16.7243 9.44153C16.7112 9.45413 16.7112 9.7954 16.7243 9.80761C16.7395 9.82184 16.8644 9.7893 16.8828 9.80842C16.8943 9.82021 16.874 9.92434 16.9023 9.97234C16.9486 10.0504 17.0639 9.89221 17.0855 10.1102C17.0982 10.2404 17.0994 11.0527 17.0452 11.0901C17.0017 11.1202 16.8987 11.0966 16.8855 11.1096C16.8748 11.1198 16.876 11.3683 16.8891 11.4074C16.9227 11.5074 17.0643 11.457 17.0823 11.4749C17.1002 11.4928 17.0695 11.6221 17.0831 11.6368C17.0966 11.6514 17.2287 11.6221 17.2435 11.636C17.2742 11.6653 17.1904 12.1164 17.2826 12.1883C17.3241 12.2209 17.4194 12.1176 17.443 12.266C17.4566 12.3531 17.4574 12.9754 17.4374 13.0332C17.4031 13.1324 17.271 13.0796 17.2475 13.104C17.2339 13.1178 17.2499 13.3029 17.1836 13.3029H16.5256C16.4845 13.5546 16.5943 13.4196 16.6868 13.4835C16.7487 13.5262 16.7475 13.9748 16.6868 14.0167C16.6026 14.0753 16.4881 13.9512 16.5248 14.177C16.5332 14.2282 16.694 14.1404 16.7251 14.2986C16.7563 14.4568 16.7503 15.3342 16.7267 15.5201C16.7 15.7344 16.5252 15.6458 16.5252 15.6604V16.3918C16.5252 16.4036 16.3744 16.3637 16.3648 16.4154C16.3572 16.4577 16.3532 16.746 16.3652 16.7578C16.3772 16.7696 16.4877 16.7505 16.5252 16.7578V17.4892C16.5252 17.4973 16.3656 17.4811 16.3656 17.4892V18.2205C16.3656 18.2287 16.5252 18.2124 16.5252 18.2205V19.4599C16.5252 19.503 16.3999 19.5083 16.3768 19.5323C16.3536 19.5563 16.3481 19.6836 16.3058 19.6836H15.289C15.2731 19.6836 15.3166 19.9488 15.2719 20.0119C15.232 20.0688 15.1123 20.0339 15.0935 20.0534C15.076 20.0717 15.1023 20.1697 15.072 20.214C15.0416 20.2584 14.9403 20.2315 14.9275 20.2771C14.8772 20.4532 14.9854 20.9015 14.9251 21.08C14.8912 21.1805 14.7512 21.1297 14.7324 21.148C14.7109 21.1687 14.7492 21.4953 14.7312 21.5124C14.7164 21.5267 14.5856 21.4978 14.5708 21.512C14.5516 21.5303 14.6019 21.7727 14.554 21.8403C14.5137 21.8972 14.394 21.8622 14.3757 21.8817C14.3581 21.9001 14.3849 21.9965 14.3537 22.0424C14.3274 22.0811 14.2484 22.0664 14.2232 22.092C14.1981 22.1177 14.2109 22.199 14.1754 22.2251C14.1055 22.2771 13.8737 22.2226 13.8533 22.2434C13.833 22.2641 13.8845 22.5037 13.8366 22.5716C13.7967 22.6286 13.6774 22.5936 13.6582 22.6135C13.6391 22.6334 13.673 22.7546 13.6171 22.7953C13.5337 22.8563 12.9647 22.7815 12.936 22.8124C12.9224 22.8275 12.95 22.9625 12.9368 22.9759C12.9236 22.9893 12.7963 22.9576 12.778 22.9767C12.764 22.991 12.7971 23.1195 12.7397 23.1614C12.6678 23.2139 12.4591 23.15 12.4228 23.1846C12.4033 23.2033 12.4312 23.3082 12.3534 23.3367C12.2628 23.3701 11.8877 23.3147 11.861 23.3432C11.853 23.3518 11.8674 23.5446 11.7996 23.5446H11.1416C11.2349 23.8403 10.8419 23.6463 10.784 23.7085C10.7661 23.7276 10.816 23.8704 10.7174 23.905C10.6695 23.9216 10.3367 23.922 10.2896 23.905C10.1863 23.8679 10.2545 23.7142 10.2019 23.7048C10.0949 23.6857 9.47762 23.6857 9.36949 23.7048C9.32879 23.7122 9.35752 23.9102 9.28729 23.9102H8.27057C8.26379 23.9481 8.28214 24.0611 8.27057 24.0733C8.25182 24.0937 7.77498 24.051 7.75343 24.0746C7.73547 24.0937 7.78535 24.2365 7.68679 24.271C7.61257 24.2971 7.04636 24.2897 7.01164 24.2377C6.98211 24.1933 7.00486 24.088 6.99289 24.075C6.95977 24.0392 6.39953 24.1189 6.31334 24.0555C6.27065 24.0237 6.29659 23.9212 6.25229 23.9082C6.11263 23.8671 5.61585 23.9928 5.56557 23.8411C5.5528 23.8024 5.56756 23.7199 5.55719 23.7089C5.53405 23.6841 5.3078 23.7418 5.23677 23.689C5.20126 23.6625 5.21403 23.5812 5.18889 23.556C5.16375 23.5307 5.08514 23.545 5.05841 23.5063C5.02569 23.4591 5.05122 23.3566 5.03885 23.3432C5.00933 23.3111 4.60032 23.3839 4.51892 23.3233C4.48341 23.2969 4.49618 23.2155 4.47104 23.1903C4.4459 23.1651 4.36689 23.1797 4.34056 23.1407C4.30943 23.0951 4.33577 22.9975 4.31861 22.98C4.30145 22.9625 4.20569 22.9893 4.161 22.9576C4.12309 22.9308 4.13745 22.8498 4.11231 22.8246C4.08718 22.7994 4.00817 22.814 3.98143 22.775C3.95031 22.7294 3.97665 22.6318 3.95949 22.6143C3.94233 22.5968 3.84656 22.6237 3.80187 22.5919C3.76396 22.5651 3.77833 22.4842 3.75319 22.4589C3.72805 22.4337 3.64905 22.4484 3.62231 22.4093C3.59119 22.3638 3.61752 22.2665 3.60036 22.2486C3.58321 22.2307 3.48624 22.2576 3.44235 22.2267C3.39846 22.1958 3.42479 22.092 3.3809 22.0794C3.30907 22.0591 3.15306 22.116 3.08283 22.0648C3.02537 22.0229 3.05809 21.8948 3.04452 21.8805C3.02497 21.8598 2.82027 21.9001 2.75124 21.8744C2.6822 21.8488 2.70535 21.7565 2.67622 21.7276C2.65108 21.702 2.57167 21.715 2.54574 21.6788C2.4803 21.5877 2.5593 20.9747 2.52978 20.8047C2.5214 20.7575 2.41286 20.7965 2.36618 20.764C2.2736 20.6997 2.36657 20.3064 2.32228 20.2588C2.30632 20.2417 2.21574 20.2588 2.18621 20.2153C2.15669 20.1717 2.18182 20.0721 2.16467 20.0542C2.14751 20.0363 2.05174 20.0636 2.00705 20.0318C1.96914 20.005 1.98351 19.924 1.95837 19.8988C1.93323 19.8736 1.85422 19.8882 1.82789 19.8492C1.79676 19.8036 1.8231 19.7068 1.80594 19.6885C1.78719 19.669 1.66748 19.7036 1.62758 19.647C1.57969 19.5791 1.62997 19.3371 1.61082 19.3188C1.59605 19.3049 1.46358 19.333 1.45041 19.3196C1.43724 19.3062 1.46797 19.1764 1.44961 19.1577C1.43724 19.1451 1.33389 19.1687 1.2892 19.139C1.23015 19.0999 1.26446 18.9686 1.2505 18.9543C1.23214 18.9356 1.10525 18.9677 1.09168 18.9535C1.07812 18.9393 1.10964 18.8103 1.09089 18.7916C1.07692 18.7774 0.950429 18.8111 0.909729 18.7526C0.858653 18.6794 0.920901 18.4658 0.886984 18.4296C0.871422 18.4125 0.780444 18.4296 0.750916 18.3861C0.721388 18.3426 0.746926 18.2433 0.729369 18.2254C0.710615 18.2059 0.590907 18.2405 0.551004 18.1839C0.503121 18.116 0.553398 17.874 0.534245 17.8557C0.519481 17.8414 0.3886 17.8703 0.373836 17.8561C0.304805 17.7898 0.427306 16.1619 0.373836 15.9248C0.357875 15.8142 0.523471 15.8459 0.536639 15.7991V14.4259C0.52387 14.3804 0.423315 14.4072 0.392191 14.3637C0.322362 14.2657 0.41334 13.3448 0.373038 13.3053C0.358673 13.2911 0.23298 13.3244 0.192279 13.2663C0.142401 13.1951 0.198265 13.036 0.177914 12.9628C0.165545 12.9181 0.0641918 12.9441 0.0334667 12.9006C-0.0471366 12.7875 0.0446395 11.0238 0.0334667 10.7403C0.293233 10.7191 0.109681 10.4926 0.192279 10.3746C0.233379 10.3161 0.359072 10.3494 0.373437 10.3356C0.398177 10.3116 0.341116 10.0814 0.39299 10.009C0.418926 9.97275 0.498731 9.98576 0.523471 9.96014C0.548211 9.93451 0.533846 9.85398 0.572152 9.82713C0.616843 9.7954 0.71261 9.82225 0.729768 9.80476C0.746926 9.78727 0.720989 9.68843 0.751315 9.64368C0.781641 9.59894 0.883792 9.62579 0.895763 9.58104C0.915714 9.50783 0.85985 9.34878 0.910128 9.2776C0.950429 9.21984 1.07692 9.25157 1.09049 9.23733C1.09687 9.23083 1.09647 9.08643 1.09049 9.07992C1.07812 9.0669 0.973972 9.08887 0.931276 9.05958C0.829125 8.98881 0.937661 8.35793 0.895763 8.20824C0.882595 8.16024 0.767276 8.20011 0.738147 8.11794C0.725777 8.08296 0.715004 7.63146 0.73296 7.61438C0.748123 7.60014 0.873417 7.63227 0.891773 7.61356C0.906138 7.59892 0.871422 7.46795 0.930478 7.4289C0.975169 7.3992 1.07852 7.4228 1.09089 7.41019C1.10924 7.39148 1.07772 7.26294 1.09168 7.2483C1.10565 7.23365 1.23733 7.26294 1.25209 7.24911C1.27125 7.23081 1.22097 6.98919 1.26885 6.92086C1.30955 6.86229 1.43525 6.89605 1.44961 6.88181C1.47116 6.86107 1.43285 6.53363 1.45081 6.51736C1.46597 6.50312 1.59127 6.53525 1.60962 6.51654C1.62798 6.49783 1.5773 6.35465 1.67586 6.31967C1.76524 6.28835 2.14831 6.33716 2.16906 6.31479C2.18262 6.29974 2.15509 6.1647 2.16826 6.15128C2.18143 6.13785 2.30872 6.16917 2.32707 6.15046C2.33944 6.13785 2.3163 6.0325 2.34543 5.98695C2.38373 5.92675 2.51142 5.96173 2.52618 5.94708C2.54893 5.92512 2.50783 5.43783 2.52738 5.41993C2.54254 5.40569 2.66784 5.43783 2.68619 5.41912C2.69856 5.40651 2.67542 5.30116 2.70455 5.2556C2.74286 5.1954 2.87174 5.23038 2.88571 5.21614C2.90406 5.19743 2.87254 5.06809 2.88651 5.05426C2.90047 5.04043 3.02696 5.07256 3.04532 5.05344C3.05928 5.03921 3.02616 4.91026 3.08362 4.86877C3.16104 4.81264 3.48983 4.87325 3.60515 4.85169C3.61952 4.77319 3.5856 4.34081 3.60475 4.32291C3.61992 4.30867 3.74521 4.34081 3.76357 4.32209C3.77793 4.30745 3.74322 4.17648 3.80227 4.13743C3.84696 4.10773 3.95031 4.13133 3.96268 4.11872C3.98104 4.10001 3.94951 3.97066 3.96348 3.95683C3.97744 3.943 4.10394 3.97473 4.12229 3.95601C4.13466 3.94341 4.11152 3.83806 4.14065 3.7925C4.17895 3.7323 4.30744 3.76728 4.3218 3.75304C4.34016 3.73433 4.30864 3.60661 4.3226 3.59115C4.33896 3.57285 4.65978 3.6119 4.68013 3.58993C4.6941 3.57488 4.66138 3.44716 4.71844 3.40567C4.78587 3.35686 5.02249 3.40811 5.04045 3.38859C5.05442 3.37354 5.02609 3.24012 5.04005 3.22548C5.05681 3.20718 5.37803 3.24623 5.39798 3.22426C5.41075 3.21043 5.38521 3.10671 5.41713 3.06074C5.44905 3.01478 5.54881 3.04325 5.56158 2.9977C5.59071 2.8956 5.51689 2.61535 5.57594 2.53156C5.61585 2.47461 5.73516 2.50959 5.75431 2.48966C5.77346 2.46973 5.73954 2.34892 5.79541 2.30784C5.89078 2.23788 6.79976 2.3294 6.83527 2.29076C6.84884 2.27571 6.82131 2.14066 6.83447 2.12724C6.84764 2.11382 6.97493 2.14514 6.99329 2.12643C7.00566 2.11382 6.98251 2.00847 7.01164 1.96291C7.04995 1.90271 7.17843 1.93769 7.1928 1.92345C7.21115 1.90474 7.17963 1.77702 7.1936 1.76157C7.21115 1.74204 7.68919 1.78353 7.71074 1.76035C7.72869 1.74123 7.67881 1.59846 7.77737 1.56388C7.86476 1.53338 8.24982 1.58097 8.27057 1.559C8.28174 1.54721 8.26339 1.43413 8.27057 1.39589H9.84593L9.84712 1.39508ZM1.65232 12.3681C1.60763 12.4104 1.65232 13.4399 1.65232 13.6075C1.65232 13.6767 1.46318 13.662 1.4548 13.6702C1.43684 13.6877 1.44163 14.1204 1.45081 14.1741C1.45919 14.2213 1.56732 14.1827 1.61441 14.2148C1.72694 14.2925 1.59605 15.2423 1.64992 15.4322C1.66509 15.4851 1.78559 15.4217 1.81273 15.5579C1.85742 15.7804 1.74529 16.8612 1.85143 16.9437C1.87936 16.9653 1.95438 16.925 1.97353 16.9389C2.07568 17.0157 1.96236 17.9517 2.01743 18.0119C2.03578 18.0322 2.13953 18.0041 2.16666 18.0826C2.1938 18.1612 2.14152 18.319 2.18821 18.3857C2.22891 18.4438 2.3558 18.4105 2.36937 18.4243C2.38772 18.443 2.3562 18.5724 2.37017 18.5862C2.38413 18.6 2.51022 18.5679 2.52898 18.587C2.54055 18.5988 2.5202 18.703 2.54853 18.7509C2.58404 18.8111 2.683 18.7367 2.71093 18.7851C2.76241 18.8738 2.70535 19.0125 2.7265 19.0894C2.73887 19.1345 2.83982 19.106 2.87094 19.152C2.90207 19.198 2.87493 19.2948 2.89249 19.3127C2.91124 19.3322 3.03095 19.2976 3.07086 19.3542C3.11874 19.4221 3.06846 19.6641 3.08761 19.6824C3.10238 19.6967 3.23326 19.6678 3.24802 19.682C3.26598 19.6991 3.22767 20.0257 3.24922 20.0465C3.26039 20.057 3.3406 20.042 3.37851 20.055C3.51896 20.1034 3.41123 20.4329 3.44434 20.5517C3.45791 20.5997 3.57323 20.5602 3.60196 20.642C3.6259 20.7107 3.59039 20.9259 3.60635 20.9421C3.62191 20.958 3.8322 20.9234 3.90043 20.9474C3.99859 20.9816 3.94911 21.1248 3.96707 21.1439C3.98742 21.1659 4.30784 21.1268 4.3246 21.1451C4.33856 21.1602 4.31023 21.2936 4.3242 21.3082C4.34215 21.3277 4.57997 21.2765 4.64621 21.3253C4.70208 21.366 4.66776 21.4872 4.68731 21.5071C4.70686 21.5271 4.82577 21.4921 4.86568 21.549C4.91316 21.6165 4.86328 21.8598 4.88244 21.8773C4.8976 21.8915 5.02289 21.8594 5.04125 21.8781C5.05561 21.8927 5.0209 22.0237 5.07995 22.0628C5.12464 22.0924 5.22799 22.0689 5.24036 22.0815C5.25872 22.1002 5.22719 22.2291 5.24116 22.2434C5.25513 22.2576 5.388 22.2287 5.40157 22.2425C5.41514 22.2564 5.3872 22.391 5.40077 22.4061C5.41873 22.4256 5.65575 22.3743 5.72279 22.4231C5.78304 22.4671 5.75072 22.6086 5.75989 22.6086H7.19559C7.20357 22.6086 7.18761 22.7713 7.19559 22.7713H8.21231C8.27855 22.7713 8.26299 22.9572 8.27616 22.9702C8.29411 22.9885 8.38988 22.9617 8.43377 22.9926C8.47766 23.0235 8.45093 23.1268 8.49562 23.1398C8.52595 23.1488 9.09496 23.1488 9.12528 23.1398C9.17716 23.1244 9.11491 23.0015 9.24858 22.9739C9.37228 22.9479 10.0375 23.0036 10.0654 22.9731C10.0778 22.9592 10.0522 22.8567 10.0849 22.81C10.1117 22.7713 10.1907 22.786 10.2158 22.7607C10.241 22.7355 10.2262 22.6546 10.2645 22.6277C10.3092 22.596 10.4042 22.6229 10.4221 22.6054C10.4413 22.5862 10.4074 22.4642 10.4628 22.4235C10.5295 22.3747 10.7669 22.426 10.7848 22.4065C10.7988 22.3914 10.7705 22.258 10.7844 22.2434C10.8471 22.1758 11.1898 22.3865 11.1448 22.1014C11.1376 22.0567 11.0019 22.1059 10.9612 22.0424C10.9321 21.9969 10.9548 21.8919 10.9428 21.8789C10.9201 21.8541 10.6923 21.9114 10.622 21.8594C10.5793 21.8277 10.6057 21.7256 10.561 21.7121C10.4608 21.6824 10.1859 21.7577 10.1037 21.6975C10.0478 21.6568 10.0821 21.5344 10.063 21.5157C10.045 21.4978 9.95007 21.525 9.90538 21.4933C9.86747 21.466 9.88184 21.3855 9.8567 21.3603C9.83156 21.3351 9.75255 21.3497 9.72582 21.3107C9.6947 21.2651 9.72103 21.1683 9.70387 21.15C9.68512 21.1305 9.56541 21.165 9.52551 21.1085C9.47204 21.0328 9.5287 20.7286 9.50875 20.6176C9.39862 20.5992 9.06104 20.6607 9.00757 20.5789C8.97964 20.5358 9.00358 20.437 8.98602 20.4186C8.96687 20.3991 8.84756 20.4337 8.80766 20.3768C8.75978 20.3092 8.81005 20.0668 8.7909 20.0485C8.77614 20.0343 8.64526 20.0631 8.63049 20.0489C8.61094 20.0302 8.65244 19.5441 8.62929 19.5218C8.61054 19.5034 8.47048 19.5543 8.43656 19.4538C8.39387 19.3269 8.4633 18.6155 8.43178 18.5854C8.41701 18.5716 8.28454 18.5996 8.27137 18.5862C8.2582 18.5728 8.28892 18.443 8.27057 18.4243C8.2582 18.4117 8.15485 18.4353 8.11016 18.4056C8.0511 18.3666 8.08542 18.2356 8.07145 18.2209C8.0531 18.2022 7.92781 18.2344 7.91264 18.2201C7.89349 18.2022 7.93419 17.7149 7.91145 17.693C7.89868 17.6804 7.79613 17.704 7.75104 17.6743C7.69198 17.6352 7.7263 17.5038 7.71233 17.4896C7.69398 17.4709 7.56709 17.503 7.55352 17.4888C7.53995 17.4745 7.57148 17.3456 7.55272 17.3269C7.53876 17.3127 7.41226 17.3464 7.37156 17.2878C7.32009 17.2146 7.38274 17.0023 7.34882 16.9649C7.33046 16.945 7.21554 16.9685 7.19958 16.8941C7.15489 16.7188 7.24308 15.5461 7.1936 15.4981C7.18083 15.4855 7.07828 15.5091 7.03319 15.4794C6.97413 15.4404 7.00845 15.309 6.99448 15.2947C6.97613 15.276 6.84924 15.3082 6.83567 15.2939C6.8221 15.2797 6.85323 15.1508 6.83487 15.132C6.81652 15.1133 6.67566 15.165 6.64174 15.0645C6.62299 15.0092 6.62299 13.952 6.64174 13.8967C6.67566 13.7963 6.81572 13.8471 6.83447 13.8288C6.86201 13.8024 6.80814 13.4192 6.84086 13.3269C6.86959 13.2447 6.98531 13.2841 6.99847 13.2366C7.00526 13.2117 7.00526 12.9856 6.99847 12.9608C6.98531 12.9132 6.86959 12.9522 6.84086 12.8705C6.81612 12.8001 6.85482 12.591 6.83487 12.5715C6.81652 12.5536 6.67606 12.6041 6.64214 12.5036C6.62419 12.4507 6.62219 11.8101 6.63656 11.7368C6.66728 11.5819 6.80215 11.6624 6.83208 11.6315C6.84964 11.6136 6.8233 11.5156 6.85363 11.4708C6.88395 11.4261 6.97373 11.4444 6.98969 11.4273C6.99967 11.4167 7.00685 11.1641 6.99807 11.132C6.98491 11.0844 6.86959 11.1239 6.84046 11.0417C6.80814 10.9498 6.86161 10.5666 6.83407 10.5398C6.81532 10.5215 6.67526 10.5723 6.64134 10.4718C6.62299 10.4173 6.6202 9.62212 6.63576 9.5424C6.66648 9.38743 6.80135 9.46796 6.83128 9.43705C6.84884 9.41915 6.8225 9.32113 6.85283 9.27638C6.88315 9.23164 6.97294 9.24994 6.9889 9.23286C7.0296 9.18934 6.95259 8.83098 7.01164 8.7476C7.05514 8.68618 7.194 8.71913 7.194 8.70977V7.97842C7.194 7.97029 7.35361 7.98656 7.35361 7.97842V6.57634C7.35361 6.50881 7.53516 6.52468 7.54873 6.51126C7.56828 6.49132 7.53437 6.37052 7.58983 6.32944C7.65607 6.28062 7.89389 6.33188 7.91184 6.31235C7.92581 6.2973 7.89748 6.16307 7.91105 6.14884C7.92461 6.1346 8.05669 6.16348 8.07145 6.14965C8.09061 6.13135 8.04033 5.88892 8.08821 5.8214C8.12852 5.76445 8.24782 5.79943 8.26658 5.77991C8.28414 5.7616 8.2578 5.66398 8.28813 5.61924C8.31845 5.5745 8.40863 5.5928 8.4242 5.57572C8.45811 5.53952 8.39546 5.32597 8.44694 5.25275C8.48804 5.19418 8.61373 5.22753 8.6281 5.2137C8.65284 5.18971 8.59578 4.95948 8.64765 4.88708C8.67359 4.85088 8.75339 4.86389 8.77813 4.83827C8.80287 4.81264 8.78851 4.7321 8.82681 4.70526C8.8715 4.67353 8.96727 4.70038 8.98443 4.68289C9.00159 4.6654 8.97565 4.56696 9.00598 4.52181C9.0363 4.47666 9.12648 4.49537 9.14204 4.47829C9.17596 4.44209 9.11331 4.22854 9.16479 4.15532C9.20589 4.09675 9.33198 4.13051 9.34595 4.11628C9.3643 4.09757 9.33278 3.96822 9.34674 3.95439C9.36071 3.94056 9.4872 3.97228 9.50556 3.95357C9.51992 3.93893 9.48521 3.80796 9.54426 3.76891C9.58895 3.73921 9.6923 3.76281 9.70467 3.7502C9.72303 3.73149 9.6915 3.60376 9.70547 3.58831C9.72303 3.56878 10.1472 3.60336 10.2242 3.58871C10.2138 3.52445 10.2386 3.23728 10.2242 3.22263C10.2078 3.20596 9.99676 3.24256 9.92932 3.21816C9.85151 3.18969 9.87944 3.08474 9.85989 3.06603C9.82358 3.03146 9.61489 3.09532 9.54306 3.04285C9.4856 3.00136 9.51833 2.87323 9.50476 2.85859C9.47124 2.82279 8.91141 2.90252 8.82522 2.83906C8.78252 2.80734 8.80846 2.70483 8.76417 2.69182C8.73663 2.68368 8.28653 2.67595 8.26977 2.69426C8.2562 2.70931 8.28374 2.84435 8.27057 2.85777C8.2574 2.8712 8.13011 2.83988 8.11176 2.85859C8.09739 2.87323 8.13211 3.00421 8.07305 3.04325C8.02836 3.07295 7.92501 3.04936 7.91264 3.06197C7.89429 3.08068 7.92581 3.21002 7.91184 3.22385C7.89788 3.23768 7.77139 3.20596 7.75303 3.22467C7.74066 3.23728 7.76381 3.34263 7.73468 3.38818C7.69637 3.44838 7.56788 3.4134 7.55352 3.42764C7.53516 3.44635 7.56669 3.57407 7.55272 3.58953C7.53676 3.60742 7.21475 3.56919 7.19479 3.59075C7.18242 3.60458 7.20796 3.70667 7.17524 3.75386C7.14851 3.79209 7.0699 3.77786 7.04476 3.80348C7.01603 3.83236 7.04157 3.92388 6.96974 3.95032C6.88036 3.98367 6.50288 3.92836 6.47695 3.95642C6.46458 3.97025 6.49011 4.07235 6.45739 4.11953C6.43066 4.15817 6.35165 4.14353 6.32651 4.16875C6.30137 4.19397 6.31614 4.27491 6.27783 4.30176C6.23314 4.33348 6.13737 4.30664 6.12022 4.32413C6.10306 4.34162 6.12939 4.43924 6.09827 4.4848C6.07193 4.52344 5.99293 4.5088 5.96779 4.53442C5.94265 4.56005 5.95542 4.64099 5.9199 4.66743C5.83411 4.73129 5.27069 4.6536 5.23917 4.68573C5.21961 4.70567 5.27029 4.94524 5.22241 5.01399C5.18171 5.07256 5.05601 5.03921 5.04165 5.05304C5.00972 5.08436 5.08155 5.49965 5.0221 5.58263C4.99616 5.61883 4.91635 5.60582 4.89161 5.63144C4.86687 5.65707 4.88124 5.73761 4.84293 5.76445C4.79824 5.79618 4.70247 5.76933 4.68532 5.78682C4.66816 5.80431 4.69449 5.90194 4.66337 5.94749C4.63703 5.98613 4.55803 5.97149 4.53289 5.99712C4.50775 6.02274 4.52052 6.10409 4.48501 6.13012C4.41518 6.18178 4.18334 6.12768 4.16299 6.14843C4.13546 6.1769 4.20249 6.59911 4.14623 6.68006C4.10553 6.73863 3.97904 6.70487 3.96507 6.71911C3.94672 6.73782 3.97824 6.86717 3.96428 6.881C3.95031 6.89483 3.82382 6.8631 3.80546 6.88181C3.7911 6.89645 3.82581 7.02743 3.76676 7.06648C3.72207 7.09617 3.61952 7.07299 3.60635 7.08519C3.56565 7.12424 3.65742 8.04473 3.5868 8.14316C3.56086 8.17936 3.48145 8.16635 3.45632 8.19197C3.42759 8.22126 3.45312 8.31237 3.3813 8.33881C3.21969 8.3986 2.75642 8.30464 2.55092 8.34125C2.50145 8.3502 2.55332 8.48443 2.49147 8.52917C2.42443 8.57798 2.18821 8.52632 2.16946 8.54666C2.16387 8.55236 2.16626 8.70082 2.17185 8.70652C2.18422 8.71953 2.28797 8.69716 2.33106 8.72686C2.39291 8.76956 2.39171 9.5843 2.33106 9.62579C2.28757 9.65589 2.18422 9.6327 2.17145 9.6449C2.14871 9.66687 2.18941 10.1542 2.17025 10.1721C2.15509 10.1863 2.0298 10.1542 2.01144 10.1729C1.99708 10.1875 2.03179 10.3185 1.97274 10.3575C1.92804 10.3872 1.8247 10.3636 1.81233 10.3763C1.79397 10.395 1.82549 10.5243 1.81153 10.5381C1.79756 10.552 1.67107 10.5202 1.65272 10.539C1.64035 10.5516 1.66349 10.6569 1.63436 10.7025C1.59605 10.7627 1.46797 10.7281 1.4532 10.7423C1.43325 10.7619 1.47196 10.9709 1.44722 11.0413C1.41849 11.1231 1.30277 11.084 1.2896 11.1316C1.28082 11.1637 1.28801 11.4163 1.29798 11.4269C1.31394 11.444 1.40452 11.4269 1.43405 11.4704C1.46358 11.5139 1.43844 11.6136 1.4556 11.6315C1.47276 11.6494 1.56852 11.6221 1.61321 11.6539C1.65112 11.6807 1.63675 11.7613 1.66189 11.7869C1.69022 11.8162 1.78001 11.7901 1.80594 11.8634C1.81831 11.8979 1.82869 12.3498 1.81073 12.3669C1.79637 12.3807 1.66469 12.3535 1.65072 12.3669L1.65232 12.3681ZM9.50835 5.62168C9.47962 5.62697 9.34874 5.61354 9.34874 5.62168V6.29242C9.34874 6.36238 9.50835 6.36238 9.50835 6.29242V5.62168ZM12.7325 7.45737C12.7069 7.43418 12.6231 7.45818 12.5789 7.45005C12.6287 7.71403 12.4584 7.57492 12.4188 7.61275C12.4053 7.62577 12.4288 7.91538 12.4188 7.97883H12.9376C12.9264 7.91253 12.9539 7.63146 12.936 7.61438C12.9224 7.60136 12.8207 7.62739 12.7756 7.59485C12.7333 7.56435 12.748 7.47201 12.7321 7.45737H12.7325ZM13.4559 7.61275C13.1969 7.55255 13.3214 7.78277 13.2967 7.97883C13.5557 8.03903 13.4312 7.80881 13.4559 7.61275ZM13.6554 7.97842C13.6498 7.97273 13.5022 7.97273 13.4962 7.97842C13.4775 7.99673 13.5094 8.42545 13.4962 8.50721C13.6874 8.48687 13.8673 8.59995 13.8158 8.3445C13.5257 8.4405 13.7137 8.03456 13.6558 7.97842H13.6554ZM8.06707 10.3832C8.0515 10.3693 7.91903 10.371 7.91344 10.3763C7.89469 10.3941 7.89588 10.8851 7.91464 10.9034C7.93339 10.9217 8.07345 10.8709 8.10737 10.9713C8.17081 11.1593 7.97968 11.5083 8.27177 11.4334C8.28573 11.3517 8.25341 10.9233 8.27177 10.9046C8.28892 10.8871 8.61413 10.9229 8.63089 10.9046C8.63648 10.8989 8.63408 10.7505 8.6285 10.7448C8.61453 10.7301 8.48604 10.7635 8.44814 10.7037C8.41901 10.6581 8.44175 10.5532 8.42978 10.5402C8.40704 10.5154 8.17919 10.5727 8.10896 10.5206C8.06906 10.491 8.08223 10.3974 8.06627 10.3828L8.06707 10.3832ZM12.0202 11.108C11.77 11.0547 11.8802 11.239 11.861 11.4334C12.1112 11.4867 12.0011 11.3024 12.0202 11.108ZM8.43138 11.6364C8.17241 11.5762 8.2969 11.8064 8.27216 12.0025C8.53113 12.0627 8.40664 11.8324 8.43138 11.6364ZM11.3028 12.0021C11.0438 11.9419 11.1683 12.1721 11.1436 12.3681C11.4025 12.4283 11.278 12.1981 11.3028 12.0021ZM11.5019 12.3677C11.2429 12.3075 11.3674 12.5378 11.3427 12.7338C11.6016 12.794 11.4771 12.5638 11.5019 12.3677ZM10.0666 13.6681C9.8164 13.6148 9.92653 13.7991 9.90738 13.9935C10.1576 14.0468 10.0474 13.8626 10.0666 13.6681ZM10.2202 14.0407C10.0514 13.887 10.0442 14.2343 10.0662 14.3592C10.1292 14.349 10.4117 14.3734 10.4253 14.3592C10.4309 14.3535 10.4285 14.205 10.4233 14.1993C10.4105 14.1863 10.308 14.2107 10.2637 14.1786C10.2194 14.1465 10.2366 14.0558 10.2202 14.0407ZM12.0206 17.6511C12.045 17.6271 12.0206 17.0576 12.0206 16.96C12.0206 16.9527 11.9125 16.9742 11.879 16.9218C11.8498 16.8762 11.8746 16.7786 11.8574 16.7607C11.8387 16.7412 11.719 16.7757 11.6791 16.7192C11.6312 16.6513 11.6814 16.4093 11.6623 16.391C11.6475 16.3771 11.5151 16.4052 11.5019 16.3918C11.4887 16.3783 11.5194 16.2486 11.5011 16.2299C11.4887 16.2173 11.3854 16.2409 11.3407 16.2112C11.2816 16.1721 11.3159 16.0411 11.302 16.0265C11.2836 16.0078 11.1583 16.0399 11.1432 16.0257C11.1256 16.0094 11.1631 15.6812 11.142 15.6612C11.1284 15.6486 11.0278 15.6747 10.982 15.6413C10.944 15.614 10.9584 15.5335 10.9333 15.5083C10.9081 15.4831 10.8291 15.4977 10.8028 15.4587C10.7717 15.4131 10.798 15.3163 10.7808 15.298C10.7278 15.2423 10.4979 15.3558 10.5853 14.9283C10.5466 14.9348 10.4365 14.9185 10.4261 14.9283C10.4109 14.9429 10.4169 15.3004 10.4241 15.357C10.4516 15.577 10.5897 15.4635 10.6244 15.4985C10.6428 15.5172 10.6113 15.6458 10.6252 15.6604C10.6392 15.6751 10.7709 15.6458 10.7856 15.6596C10.8036 15.6767 10.7653 16.0033 10.7868 16.0241C10.8016 16.0383 10.9269 16.0049 10.9676 16.0631C11.0155 16.1314 10.9656 16.3739 10.9843 16.3914C10.9995 16.4056 11.1244 16.3731 11.1428 16.3926C11.1543 16.4044 11.134 16.5085 11.1623 16.5565C11.1978 16.6167 11.2968 16.5423 11.3247 16.5907C11.3754 16.6781 11.3159 16.8791 11.3487 16.9144C11.3646 16.9315 11.4552 16.9144 11.4847 16.958C11.5143 17.0015 11.4887 17.1007 11.5063 17.1186C11.525 17.1382 11.6447 17.1036 11.6846 17.1601C11.7325 17.2281 11.6822 17.4701 11.7014 17.4884C11.7162 17.5026 11.8478 17.4737 11.8618 17.4876C11.8758 17.5014 11.8478 17.6364 11.8618 17.6507C11.8674 17.6564 12.0154 17.656 12.021 17.6507L12.0206 17.6511ZM9.50276 15.5038C9.32919 15.3456 9.29168 15.7711 9.38824 15.8459C9.42336 15.8732 9.51593 15.7955 9.54267 15.8882C9.5694 15.9809 9.5287 16.3731 9.54785 16.3914C9.56262 16.4056 9.6943 16.3767 9.70826 16.3905C9.72223 16.4044 9.6939 16.539 9.70746 16.5541C9.71983 16.5675 10.0546 16.5667 10.067 16.5537C10.0726 16.548 10.0702 16.3995 10.0646 16.3938C10.0522 16.3808 9.94808 16.4032 9.90538 16.3735C9.82398 16.3173 9.88942 16.0464 9.86747 16.0253C9.85271 16.011 9.72183 16.0399 9.70706 16.0257C9.68911 16.0086 9.72742 15.6812 9.70587 15.6612C9.6923 15.6482 9.59055 15.6742 9.54546 15.6417C9.50316 15.6112 9.51832 15.5185 9.50196 15.5038H9.50276ZM11.6559 18.0643C11.6407 18.0505 11.5079 18.0521 11.5023 18.0574C11.4835 18.0753 11.4847 18.5667 11.5035 18.5846C11.517 18.5972 11.6172 18.5712 11.6635 18.6045C11.701 18.6318 11.687 18.7119 11.7122 18.7375C11.7373 18.7632 11.8175 18.7501 11.8431 18.7863C11.9065 18.8754 11.7944 19.102 11.9296 19.1479C12.0458 19.1874 12.0837 19.0881 12.0605 19.318C12.3087 19.3586 12.1758 19.2423 12.2377 19.1528C12.2828 19.0877 12.4328 19.1748 12.3797 18.9519C12.122 19.0027 12.2588 18.8307 12.2189 18.7904C12.2066 18.7778 12.1032 18.8014 12.0585 18.7717C11.9995 18.7326 12.0338 18.6017 12.0198 18.587C12.0015 18.5683 11.8762 18.6004 11.861 18.5862C11.8435 18.5699 11.881 18.2417 11.8598 18.2218C11.8462 18.2087 11.7445 18.2348 11.6994 18.2022C11.6571 18.1717 11.6723 18.079 11.6559 18.0643ZM13.4559 19.1549H13.2971C13.2424 19.6422 13.5106 19.6438 13.4559 19.1549ZM10.7844 19.5205C10.7717 19.5067 10.4876 19.5307 10.4249 19.5205C10.3371 19.9549 10.5726 19.8366 10.6232 19.8878C10.642 19.9065 10.6105 20.0343 10.624 20.0497C10.6352 20.0623 10.8854 20.0404 10.9436 20.0497C10.9337 19.9859 10.9572 19.6962 10.9436 19.6836C10.9289 19.6694 10.7972 19.6983 10.7832 19.6845C10.7693 19.6706 10.7976 19.536 10.784 19.5209L10.7844 19.5205Z" fill="#212121"/>
</svg>
