<svg width="27" height="27" viewBox="0 0 27 27" fill="none" xmlns="http://www.w3.org/2000/svg">
<rect width="27" height="27" rx="13.5" fill="#C78362"/>
<path d="M20.2645 12.0368C20.2824 12.0278 20.3076 12.0765 20.3287 12.079C20.417 12.0903 20.4498 12.124 20.5297 12.1431C20.6482 12.1715 21 12.1076 21 12.4455C21 12.4455 21 12.4455 21 12.4455C21 12.4488 21 12.4522 20.9999 12.4556C20.9987 12.52 20.9687 12.5902 20.9643 12.663C20.9599 12.7359 20.9632 13.2061 20.9207 13.2325C20.8591 13.2673 20.7113 13.1468 20.6784 13.1521C20.656 13.1558 20.6283 13.1985 20.5996 13.2061C20.507 13.2306 20.4585 13.1993 20.375 13.3155C20.3417 13.2543 20.3083 13.1931 20.2749 13.1319C20.2314 13.1603 20.1654 13.0796 20.1389 13.084C20.1172 13.0877 20.1045 13.136 20.0819 13.1383C20.0565 13.1411 20.0175 13.0889 19.9714 13.0967C19.8957 13.1094 19.8822 13.2356 19.8368 13.2516C19.7898 13.2682 19.7165 13.1996 19.6565 13.244C19.6489 13.2579 19.6414 13.2718 19.6339 13.2857C19.6393 13.3171 19.6447 13.3485 19.6501 13.3799C19.6198 13.3945 19.6068 13.3302 19.579 13.329C19.5463 13.3276 19.5296 13.3886 19.5076 13.3883C19.4896 13.388 19.4651 13.3391 19.4417 13.3422C19.4076 13.3464 19.4151 13.417 19.3967 13.4303C19.3894 13.4354 19.2541 13.4744 19.2465 13.4749C19.1884 13.4777 19.1834 13.381 19.1371 13.3726C19.0087 13.3495 18.8769 13.4276 18.7581 13.4572C18.7051 13.4704 18.6497 13.4648 18.5969 13.4493C18.6802 13.2018 18.4958 13.0093 18.5648 13.3965C18.5059 13.3414 18.4642 13.4459 18.4084 13.4282C18.3724 13.4167 18.3474 13.363 18.2959 13.3644C18.2045 13.3673 18.1045 13.5199 18.0782 13.244C17.9709 13.2927 17.878 13.1926 17.8393 13.4361C17.8117 13.451 17.7407 13.3059 17.7097 13.2862C17.6804 13.2677 17.4552 13.2022 17.4183 13.1985C17.3815 13.1949 17.317 13.1909 17.286 13.2123C17.247 13.2387 17.2198 13.4912 17.1504 13.196C17.0697 13.2199 17.0409 13.2114 16.9659 13.1771C16.9523 13.1709 16.9508 13.1271 16.9428 13.127C16.9265 13.127 16.8987 13.1594 16.8695 13.1634C16.8215 13.1698 16.7941 13.0776 16.7994 13.2185C16.7678 13.2421 16.7362 13.2657 16.7045 13.2894C16.6934 13.2622 16.6823 13.235 16.6712 13.2078C16.6543 13.2374 16.6374 13.267 16.6205 13.2967C16.6403 13.0928 16.5213 13.2131 16.5599 13.3301C16.4986 13.2879 16.4372 13.2457 16.3759 13.2036C16.3845 12.9719 16.2412 13.1768 16.2533 13.3028C16.2463 13.3026 16.2392 13.3025 16.2322 13.3023C16.1708 13.2407 16.1143 13.2911 16.0394 13.2497C15.9646 13.2084 15.9716 13.1858 15.9488 13.0792C15.9312 13.0853 15.9136 13.0915 15.8959 13.0976C15.8035 13.3897 15.8198 12.8839 15.6614 13.108C15.6109 12.9244 15.4861 13.0208 15.4034 13.0765C15.3938 13.083 15.3937 13.1186 15.3808 13.1296C15.3495 13.156 15.2696 13.1102 15.2723 13.2252C15.2446 13.1919 15.2169 13.1587 15.1893 13.1254C15.1666 13.1463 15.144 13.1672 15.1214 13.1881C15.1215 13.224 15.1216 13.2599 15.1217 13.2958C15.0762 13.1735 15.0046 13.2205 14.9693 13.1912C14.9623 13.1853 14.9608 13.1358 14.9389 13.1223C14.9134 13.1062 14.8658 13.1209 14.8354 13.1054C14.8236 13.1603 14.8118 13.2151 14.7999 13.2699C14.7455 13.2997 14.7264 13.1549 14.6945 13.1437C14.6887 13.1417 14.5838 13.1521 14.5781 13.1552C14.5319 13.1797 14.545 13.303 14.4111 13.2766C14.3873 13.2719 14.368 13.2292 14.3465 13.2275C14.3084 13.2244 14.1937 13.3212 14.1847 13.4106C14.1385 13.2987 14.015 13.3444 13.9786 13.3121C13.9677 13.3021 13.9652 13.2308 13.9314 13.2157C13.9041 13.2033 13.8336 13.2604 13.7989 13.2508C13.7621 13.2404 13.7489 13.1805 13.7324 13.1763C13.7168 13.1724 13.7025 13.2207 13.6812 13.2204C13.6149 13.2187 13.5548 13.1409 13.5024 13.1395C13.4266 13.1372 13.3596 13.2804 13.2962 13.3439C13.2804 13.3346 13.265 13.3039 13.2485 13.3036C13.0442 13.2991 12.8139 13.2728 12.6091 13.2421C12.514 13.228 12.2775 13.0338 12.3407 13.3579C12.3076 13.4147 12.0673 13.284 12.0216 13.282C11.976 13.2801 11.9397 13.3382 11.9038 13.3391C11.7955 13.3416 11.7191 13.2997 11.5872 13.3503C11.5532 13.3636 11.5167 13.4324 11.4965 13.4316C11.4722 13.4305 11.446 13.3639 11.4145 13.3597C11.3395 13.3501 11.1996 13.372 11.1276 13.3605C11.1145 13.3582 11.1099 13.2998 11.0911 13.2815C11.0179 13.2101 10.9358 13.2163 10.9503 13.403C10.8565 13.297 10.7697 13.3937 10.6827 13.3996C10.4988 13.4117 10.1638 13.3681 10.0037 13.4466C9.90264 13.496 9.90523 13.5798 9.75651 13.5075C9.7235 13.4915 9.69064 13.4699 9.6506 13.4508C9.55675 13.4058 9.47065 13.2511 9.39911 13.4375C9.29488 13.3891 9.21186 13.4234 9.13453 13.264C9.12541 13.3022 9.11629 13.3405 9.10718 13.3787C9.0944 13.3797 9.08162 13.3806 9.06884 13.3816C9.06485 13.3451 9.06086 13.3086 9.05688 13.2721C8.96533 13.2623 8.84918 13.4122 8.77169 13.4111C8.64176 13.4094 8.30712 13.3512 8.18392 13.302C8.11851 13.2759 8.115 13.354 8.07755 13.1934C8.06292 13.2046 8.04829 13.2157 8.03366 13.2269C8.0245 13.2621 8.01535 13.2972 8.00619 13.3324C7.92228 13.3338 7.82275 13.2792 7.74281 13.2797C7.59714 13.2809 7.3784 13.3776 7.23211 13.3141C7.19544 13.2981 7.14959 13.2256 7.11367 13.2264C7.06139 13.2275 7.04869 13.3478 6.98235 13.3501C6.86801 13.3537 6.65508 13.2139 6.54701 13.2246C6.51492 13.2277 6.49994 13.2725 6.47778 13.2773C6.38484 13.2978 6.30854 13.2942 6.21943 13.3633C6.12374 13.248 6.13201 13.0992 6.10235 12.9491C6.07988 12.8357 6.01097 12.5731 6.00119 12.4738C5.99431 12.4041 6.01997 12.3144 6.01034 12.2376C6.12498 12.1763 6.17314 12.2438 6.26623 12.3518C6.43814 12.3475 6.61005 12.3432 6.78196 12.3389C6.7976 12.3808 6.81324 12.4227 6.82888 12.4646C6.82888 12.4646 6.82888 12.4647 6.82888 12.4648C6.8949 12.5132 6.92288 12.4053 6.95849 12.3808C7.29935 12.1463 7.97025 12.3298 8.34551 12.3563C8.42638 12.3619 8.68943 12.3054 8.74491 12.3735C8.75928 12.3912 8.76327 12.4558 8.77856 12.4586C8.9151 12.4202 9.05165 12.3818 9.1882 12.3433C9.46899 12.4437 9.75928 12.3608 10.0422 12.3454C10.8077 12.3035 11.5656 12.2525 12.3185 12.268C12.464 12.2711 12.6487 12.2227 12.7912 12.2539C12.8506 12.2668 12.8754 12.3706 12.9535 12.2933C12.9543 12.3212 12.9551 12.3492 12.9559 12.3771C13.0241 12.3434 13.0677 12.2798 13.1441 12.2733C13.2084 12.268 13.3787 12.2638 13.4356 12.2745C13.4651 12.2798 13.4541 12.3321 13.4816 12.3318C13.5287 12.331 13.6292 12.2587 13.6942 12.2587C13.7531 12.2587 13.8523 12.3189 13.8975 12.3102C14.0605 12.2793 14.2379 12.1901 14.4116 12.214C14.4595 12.2207 14.5212 12.2885 14.5363 12.2866C14.5656 12.2826 14.5743 12.2169 14.5941 12.2084C14.6942 12.1657 14.8502 12.2438 14.9484 12.2469C15.2681 12.2571 15.6069 12.2283 15.9253 12.2404C16.1264 12.248 16.4607 12.2364 16.6464 12.2859C16.6865 12.2966 16.6758 12.3687 16.7094 12.3687C16.7467 12.3687 16.7669 12.32 16.7843 12.3161C16.905 12.2885 17.1712 12.2393 17.2851 12.2891C17.3068 12.2986 17.3225 12.3551 17.3355 12.3549C17.3421 12.3549 17.3569 12.3163 17.3776 12.3124C17.5598 12.2775 17.6926 12.3 17.8711 12.3132C18.2131 12.3382 18.6093 12.2665 18.9685 12.3053C19.0467 12.3138 19.1004 12.4255 19.1114 12.4244C19.1355 12.4221 19.151 12.347 19.1999 12.3284C19.3625 12.2674 19.5816 12.3476 19.7362 12.3099C19.8127 12.2914 19.9177 12.196 19.9929 12.1749C20.0529 12.158 20.1948 12.1954 20.2214 12.1536C20.2376 12.1283 20.2451 12.047 20.2645 12.0368ZM18.241 13.3017C18.2517 13.1718 18.1393 13.2798 18.1814 13.3495C18.1909 13.3652 18.2382 13.3354 18.241 13.3017ZM12.9752 13.0761C12.9762 13.1132 12.9772 13.1504 12.9783 13.1875C12.993 13.172 13.0078 13.1566 13.0226 13.1411C13.0143 13.1188 13.006 13.0965 12.9977 13.0742C12.9902 13.0748 12.9827 13.0755 12.9752 13.0761ZM14.4994 9.33233C14.4868 9.33469 14.5031 9.28707 14.4955 9.27892C14.4641 9.24433 14.4689 9.20697 14.4455 9.16824C14.4107 9.11078 14.2251 9.06339 14.4132 8.78265C14.4132 8.78264 14.4132 8.78264 14.4132 8.78263C14.415 8.77988 14.4169 8.7771 14.4188 8.7743C14.4552 8.72117 14.5071 8.67133 14.5495 8.61211C14.5919 8.55287 14.8522 8.16128 14.885 8.15146C14.9307 8.14012 14.9266 8.28251 14.9436 8.28746C14.9552 8.29082 14.9908 8.26321 15.0073 8.26512C15.0604 8.27126 15.0637 8.31107 15.1639 8.23845C15.1441 8.29882 15.1243 8.35919 15.1044 8.41957C15.1388 8.40844 15.122 8.49434 15.1358 8.49821C15.1471 8.50137 15.1794 8.46481 15.1903 8.4694C15.2027 8.47433 15.1903 8.52885 15.2143 8.5355C15.2537 8.54661 15.3296 8.44559 15.3579 8.44524C15.3872 8.44491 15.3803 8.52283 15.4306 8.50309C15.4416 8.4937 15.4525 8.48432 15.4634 8.47493C15.4786 8.4473 15.4938 8.41967 15.509 8.39204C15.53 8.38854 15.4997 8.44572 15.511 8.45464C15.5241 8.46515 15.5652 8.41923 15.5744 8.42575C15.582 8.43114 15.5652 8.47877 15.5768 8.4829C15.5937 8.48914 15.6299 8.42832 15.645 8.42258C15.651 8.42041 15.7304 8.42668 15.734 8.42839C15.7603 8.44267 15.7086 8.52444 15.7237 8.54469C15.7656 8.60053 15.8653 8.57328 15.9324 8.58269C15.9624 8.58686 15.9828 8.60734 15.9968 8.6353C15.8235 8.81709 15.795 9.02975 15.9811 8.68836C15.9755 8.75093 16.0515 8.67601 16.0654 8.70663C16.0744 8.72651 16.0552 8.77825 16.0779 8.7918C16.1185 8.81556 16.2461 8.71733 16.1037 8.95402C16.1766 8.94427 16.1605 9.05395 16.3125 8.86269C16.3326 8.85824 16.2821 8.999 16.2844 9.02424C16.2866 9.04804 16.3462 9.16679 16.3599 9.18035C16.3735 9.19391 16.3988 9.21564 16.4239 9.20676C16.4553 9.19593 16.6075 8.99391 16.4727 9.25904C16.5204 9.26225 16.528 9.27748 16.5409 9.32742C16.5432 9.33646 16.5195 9.37331 16.5229 9.37562C16.5298 9.38029 16.5597 9.36132 16.5744 9.36638C16.5984 9.37472 16.5588 9.45918 16.6349 9.3406C16.6616 9.33002 16.6882 9.31943 16.7148 9.30885C16.7044 9.33461 16.694 9.36037 16.6837 9.38614C16.7074 9.36635 16.7311 9.34657 16.7548 9.32678C16.6328 9.49048 16.7506 9.42455 16.7992 9.31631C16.8019 9.36888 16.8046 9.42144 16.8073 9.47401C16.6747 9.66407 16.8498 9.53471 16.9148 9.42659C16.9177 9.42875 16.9206 9.43091 16.9235 9.43307C16.9154 9.50179 16.9675 9.47606 16.9764 9.53181C16.9854 9.58755 16.9698 9.60428 16.9202 9.69933C16.9311 9.6993 16.942 9.69926 16.953 9.69922C17.155 9.48291 16.8665 9.89851 17.0588 9.75755C16.9782 9.92457 17.085 9.88006 17.1513 9.85743C17.159 9.85481 17.1789 9.82524 17.1905 9.81977C17.2186 9.80677 17.2272 9.86768 17.29 9.77138C17.2833 9.80692 17.2766 9.84246 17.2698 9.87801C17.2911 9.8671 17.3124 9.8562 17.3337 9.84529C17.3536 9.81544 17.3735 9.7856 17.3935 9.75575C17.3448 9.87038 17.4015 9.85178 17.4003 9.88616C17.4 9.8931 17.3731 9.93466 17.3749 9.95212C17.3768 9.97273 17.4053 9.97415 17.4097 9.99569C17.4452 9.95351 17.4808 9.91132 17.5163 9.86914C17.5561 9.85997 17.4837 9.98569 17.4911 10.0042C17.4924 10.0074 17.543 10.0288 17.5471 10.0278C17.5805 10.0207 17.6435 9.91449 17.6859 9.97468C17.6934 9.98546 17.6779 10.0264 17.6861 10.034C17.7006 10.0474 17.8034 9.99981 17.857 9.92809C17.8144 10.0343 17.8925 10.0315 17.8901 10.0688C17.8892 10.0802 17.8506 10.1401 17.8565 10.1624C17.8613 10.1805 17.9231 10.1532 17.9326 10.171C17.9425 10.1902 17.9148 10.2437 17.9195 10.252C17.924 10.2597 17.957 10.2236 17.9659 10.2299C17.9933 10.2503 17.9756 10.3321 17.9971 10.3483C18.0282 10.3718 18.1364 10.272 18.1989 10.2373C18.2004 10.2495 18.1899 10.2795 18.1968 10.2844C18.2814 10.3465 18.365 10.4342 18.4353 10.5182C18.468 10.5571 18.4607 10.7861 18.6142 10.4987C18.6599 10.461 18.6896 10.6382 18.708 10.6529C18.7264 10.6676 18.7742 10.6296 18.79 10.6392C18.8376 10.668 18.8469 10.7246 18.9313 10.7203C18.9532 10.719 19.0071 10.6722 19.0153 10.6787C19.025 10.6865 18.9991 10.7493 19.0102 10.7619C19.0368 10.7912 19.1087 10.813 19.133 10.8431C19.1373 10.8488 19.1067 10.8987 19.1046 10.9192C19.0961 10.9995 19.1345 11.0178 19.2322 10.8585C19.2133 10.9734 19.3041 10.9179 19.3445 10.9378C19.4297 10.9803 19.5483 11.1122 19.6602 11.0928C19.7309 11.0805 19.7764 11.0102 19.7996 11.1127C19.8047 11.1355 19.8067 11.1628 19.8132 11.1902C19.8282 11.2544 19.7788 11.4075 19.913 11.273C19.9306 11.343 19.9851 11.3382 19.9293 11.4928C19.9545 11.4636 19.9797 11.4344 20.0048 11.4053C20.0108 11.4081 20.0168 11.411 20.0228 11.4139C20.0042 11.4453 19.9856 11.4768 19.967 11.5082C20.0006 11.5425 20.1335 11.4512 20.166 11.4742C20.2204 11.5127 20.3307 11.6567 20.3559 11.7328C20.3693 11.7732 20.4142 11.7093 20.3408 11.8534C20.3533 11.8483 20.3657 11.8432 20.3782 11.8381C20.4017 11.8115 20.4251 11.7849 20.4486 11.7583C20.4852 11.7811 20.4972 11.8549 20.5317 11.8773C20.5944 11.918 20.7416 11.9001 20.7686 11.9947C20.7753 12.0185 20.7545 12.0918 20.7703 12.1014C20.7932 12.1154 20.8656 12.0191 20.8951 12.0362C20.9459 12.0658 20.9589 12.2428 21.011 12.2648C21.0264 12.2714 21.0577 12.2385 21.0698 12.2408C21.1209 12.2503 21.1514 12.2751 21.2279 12.2431C21.2045 12.3663 21.1182 12.4875 21.0473 12.6208C20.9938 12.7213 20.877 12.9592 20.8259 13.0445C20.79 13.1044 20.7291 13.1716 20.6905 13.2381C20.6075 13.2563 20.6245 13.1865 20.6449 13.0702C20.5692 13.0246 20.4935 12.9791 20.4178 12.9335C20.4344 12.8943 20.4511 12.855 20.4677 12.8157C20.4678 12.8156 20.4678 12.8156 20.4679 12.8155C20.4666 12.7564 20.3947 12.8381 20.3658 12.8483C20.0899 12.9457 19.906 12.6015 19.7606 12.4724C19.7293 12.4446 19.5856 12.4163 19.5999 12.344C19.6036 12.3251 19.6378 12.2703 19.6329 12.2636C19.5533 12.2565 19.4737 12.2494 19.394 12.2423C19.3301 12.0787 19.1602 12.0646 19.0309 11.9966C18.6811 11.8127 18.3295 11.6385 18.017 11.4106C17.9567 11.3664 17.851 11.3539 17.8076 11.2872C17.7894 11.2595 17.8366 11.1662 17.7603 11.2081C17.7755 11.1847 17.7907 11.1612 17.8059 11.1378C17.758 11.1463 17.7041 11.1867 17.6679 11.1703C17.6374 11.1563 17.5625 11.1111 17.5442 11.086C17.5346 11.0731 17.5684 11.0329 17.5565 11.0252C17.5359 11.0125 17.4529 11.0437 17.4251 11.0252C17.4 11.0084 17.3912 10.93 17.3671 10.9243C17.2804 10.9035 17.155 10.9269 17.0943 10.8574C17.0776 10.8381 17.089 10.7642 17.0815 10.7615C17.0668 10.7564 17.0264 10.8085 17.0133 10.8099C16.9468 10.8168 16.9238 10.7073 16.8837 10.6767C16.7529 10.5769 16.5925 10.504 16.4634 10.4029C16.3818 10.3392 16.2328 10.2533 16.1812 10.1591C16.17 10.1388 16.2147 10.0819 16.2003 10.0723C16.1844 10.0617 16.1487 10.0964 16.1391 10.0947C16.0723 10.0831 15.9314 10.0479 15.9105 9.97404C15.9066 9.9599 15.9313 9.90848 15.9256 9.90494C15.9228 9.90307 15.8951 9.93084 15.8841 9.92822C15.7869 9.90513 15.7428 9.8485 15.674 9.78651C15.5421 9.66803 15.3332 9.6144 15.2016 9.47953C15.1729 9.45016 15.2122 9.34202 15.2069 9.33981C15.1953 9.33478 15.1469 9.39279 15.1157 9.39423C15.0124 9.39845 14.9636 9.26926 14.8767 9.25636C14.8338 9.24995 14.7359 9.29918 14.6921 9.29523C14.6571 9.29209 14.6174 9.22047 14.5828 9.24766C14.5618 9.26405 14.5133 9.32942 14.4994 9.33233ZM16.0664 8.85958C15.9895 8.96446 16.0976 8.90689 16.1184 8.8369C16.1231 8.82114 16.0864 8.83236 16.0664 8.85958ZM18.1867 10.5515C18.207 10.5204 18.2272 10.4893 18.2474 10.4582C18.2325 10.4668 18.2176 10.4754 18.2027 10.484C18.1938 10.5049 18.185 10.5258 18.1761 10.5467C18.1796 10.5483 18.1832 10.5499 18.1867 10.5515ZM20.177 12.4665C20.1807 12.4525 20.2227 12.4818 20.2349 12.4759C20.2866 12.4512 20.3235 12.4657 20.3756 12.4506C20.4529 12.4282 20.5934 12.243 20.796 12.5134C20.796 12.5134 20.796 12.5134 20.796 12.5135C20.798 12.5161 20.8 12.5188 20.802 12.5215C20.84 12.5735 20.8669 12.6412 20.9083 12.7011C20.9497 12.7611 21.2333 13.1362 21.2276 13.1735C21.2171 13.2248 21.0697 13.1847 21.0562 13.2015C21.0469 13.213 21.0585 13.2577 21.0484 13.2747C21.016 13.3296 20.9726 13.323 20.9998 13.4478C20.9462 13.4115 20.8925 13.3752 20.8388 13.339C20.8337 13.3783 20.7517 13.3388 20.741 13.3525C20.7321 13.3637 20.7547 13.4072 20.7445 13.4177C20.7333 13.4296 20.6821 13.4026 20.6634 13.4265C20.6325 13.4654 20.7013 13.5716 20.6879 13.6017C20.6739 13.6329 20.5955 13.6059 20.5916 13.6643C20.5961 13.6783 20.6006 13.6923 20.6051 13.7063C20.6266 13.7294 20.6482 13.7524 20.6698 13.7755C20.6632 13.7987 20.618 13.7522 20.6031 13.7619C20.5857 13.7732 20.6137 13.8284 20.6024 13.8365C20.593 13.8432 20.5513 13.8133 20.5412 13.8247C20.5264 13.8411 20.5726 13.8948 20.5712 13.9123C20.5705 13.9192 20.5251 14.002 20.5215 14.0053C20.4937 14.0297 20.4331 13.9542 20.4045 13.9651C20.3254 13.9955 20.3052 14.1083 20.2625 14.1772C20.2435 14.2079 20.212 14.2245 20.1758 14.2323C20.0698 14.0025 19.8606 13.9186 20.1278 14.2022C20.0649 14.1806 20.1063 14.2801 20.0674 14.2872C20.0421 14.2917 19.9972 14.2583 19.9719 14.279C19.9271 14.3161 19.9678 14.4763 19.789 14.2656C19.7636 14.3454 19.6564 14.3007 19.7827 14.5103C19.7775 14.5328 19.6545 14.4437 19.6269 14.4397C19.6009 14.4361 19.4471 14.4694 19.4262 14.4805C19.4053 14.4917 19.3701 14.513 19.3671 14.542C19.3631 14.578 19.5007 14.7905 19.2884 14.5806C19.2617 14.6304 19.242 14.6346 19.1833 14.6358C19.1726 14.636 19.1456 14.6015 19.1415 14.6045C19.1332 14.6107 19.1385 14.6472 19.126 14.6615C19.1055 14.685 19.0362 14.6216 19.1234 14.7323C19.1215 14.7633 19.1196 14.7942 19.1176 14.8252C19.0957 14.8076 19.0737 14.7901 19.0518 14.7726C19.061 14.8027 19.0701 14.8329 19.0793 14.8631C18.9672 14.6923 18.9787 14.834 19.0685 14.9129C19.0121 14.9025 18.9556 14.8921 18.8991 14.8817C18.7645 14.693 18.8146 14.9116 18.8962 15.0078C18.8926 15.0104 18.8889 15.0129 18.8852 15.0154C18.817 14.9895 18.8185 15.0514 18.7557 15.0468C18.6928 15.0423 18.6829 15.0215 18.6074 14.9449C18.6021 14.9565 18.5968 14.9681 18.5915 14.9797C18.7196 15.2488 18.4246 14.8377 18.4785 15.0774C18.3427 14.9497 18.3371 15.0744 18.3284 15.1505C18.3274 15.1593 18.3487 15.1879 18.3487 15.2016C18.3487 15.2347 18.2805 15.2284 18.3508 15.3194C18.3168 15.3033 18.2828 15.2873 18.2488 15.2712C18.2498 15.2965 18.2509 15.3219 18.2519 15.3472C18.2735 15.3759 18.295 15.4046 18.3166 15.4333C18.2201 15.3527 18.2119 15.4176 18.1764 15.4077C18.1693 15.4056 18.1388 15.3665 18.1196 15.3641C18.097 15.361 18.0816 15.3908 18.0569 15.39C18.0838 15.4384 18.1106 15.4868 18.1375 15.5352C18.1277 15.5797 18.0312 15.4712 18.0082 15.4743C18.0041 15.4749 17.9569 15.5232 17.9559 15.5279C17.9471 15.5651 18.0277 15.6588 17.9438 15.6887C17.9288 15.6939 17.8934 15.6671 17.8814 15.6739C17.8602 15.686 17.8599 15.8071 17.9089 15.8821C17.8184 15.8101 17.783 15.8938 17.7451 15.8818C17.7336 15.878 17.6896 15.8219 17.6633 15.8226C17.642 15.8231 17.6404 15.8956 17.617 15.9012C17.592 15.9069 17.5494 15.864 17.5385 15.8669C17.5282 15.8697 17.5499 15.9139 17.5389 15.9217C17.5042 15.9456 17.427 15.9063 17.3994 15.9251C17.3595 15.9522 17.4113 16.0922 17.4172 16.1673C17.4036 16.1658 17.3773 16.1471 17.3687 16.1532C17.2622 16.2274 17.1292 16.294 17.0067 16.3475C16.9499 16.3725 16.7132 16.3071 16.9397 16.5425C16.9569 16.6005 16.7563 16.5874 16.7319 16.6033C16.7075 16.6191 16.724 16.6794 16.7062 16.6938C16.6526 16.7371 16.5887 16.7326 16.552 16.8234C16.5426 16.847 16.5653 16.916 16.5546 16.9231C16.5415 16.9314 16.4883 16.8881 16.4697 16.8967C16.4259 16.9176 16.3679 16.9884 16.3243 17.0066C16.3163 17.0098 16.2789 16.9648 16.2584 16.9573C16.1783 16.9281 16.1403 16.9643 16.2596 17.1082C16.1484 17.0591 16.1622 17.1696 16.1215 17.2074C16.0353 17.2871 15.8388 17.3799 15.8044 17.5037C15.7827 17.5818 15.8342 17.6478 15.7153 17.6466C15.6889 17.6464 15.6592 17.6416 15.6274 17.6416C15.5527 17.6413 15.4161 17.5503 15.4915 17.7267C15.4095 17.7277 15.3879 17.7868 15.253 17.6887C15.2713 17.7228 15.2895 17.7568 15.3078 17.7909C15.3019 17.7965 15.296 17.8022 15.29 17.8078C15.2661 17.7801 15.2423 17.7524 15.2184 17.7248C15.1659 17.7518 15.1967 17.916 15.1567 17.9447C15.0896 17.9928 14.8845 18.0737 14.7923 18.0812C14.7434 18.0852 14.7885 18.1491 14.6731 18.0348C14.6724 18.0494 14.6717 18.0639 14.6709 18.0784C14.6873 18.11 14.7038 18.1416 14.7202 18.1733C14.6784 18.2063 14.595 18.2006 14.5547 18.2315C14.4813 18.2879 14.4281 18.4486 14.3156 18.4535C14.2873 18.4546 14.2205 18.4141 14.2028 18.4284C14.1768 18.4492 14.2425 18.5504 14.2101 18.5774C14.1542 18.6239 13.9621 18.5932 13.9136 18.6429C13.8991 18.6576 13.9183 18.6991 13.9099 18.7114C13.875 18.7632 13.834 18.7894 13.8301 18.8787C13.7124 18.8229 13.6273 18.7006 13.5222 18.5917C13.4428 18.5096 13.2503 18.3256 13.1858 18.2499C13.1405 18.1967 13.0998 18.1152 13.0489 18.0574C13.0704 17.9647 13.1354 18.0003 13.2474 18.0513C13.3323 17.9823 13.4171 17.9134 13.502 17.8445C13.535 17.8721 13.5681 17.8996 13.6012 17.9272C13.6012 17.9273 13.6013 17.9274 13.6014 17.9274C13.6639 17.941 13.6134 17.844 13.6169 17.8108C13.6496 17.4932 14.1008 17.3846 14.3075 17.2628C14.352 17.2365 14.4519 17.0911 14.5209 17.1244C14.5388 17.1331 14.5796 17.1833 14.5891 17.1797C14.6355 17.0969 14.6819 17.0142 14.7283 16.9314C14.9312 16.9048 15.0292 16.7278 15.1638 16.6077C15.5279 16.2825 15.8827 15.9531 16.2749 15.6786C16.3508 15.6256 16.4156 15.5166 16.5068 15.4873C16.5448 15.475 16.6196 15.5486 16.613 15.4569C16.6301 15.479 16.6473 15.501 16.6645 15.5231C16.6789 15.4701 16.6629 15.4026 16.6979 15.3683C16.7274 15.3396 16.8115 15.2714 16.8468 15.2583C16.865 15.2513 16.8908 15.2973 16.9046 15.2866C16.928 15.268 16.9359 15.1719 16.9689 15.1471C16.9989 15.1247 17.0854 15.1351 17.1032 15.1109C17.1675 15.024 17.2043 14.885 17.3069 14.838C17.3353 14.8252 17.4073 14.8559 17.4138 14.8486C17.4264 14.8343 17.3914 14.7783 17.3963 14.764C17.4216 14.6917 17.5478 14.6948 17.5996 14.6599C17.7683 14.5462 17.9233 14.3942 18.0925 14.2825C18.1993 14.212 18.3624 14.0754 18.4865 14.0442C18.5133 14.0375 18.5511 14.0993 18.5682 14.0865C18.5871 14.0722 18.5682 14.0256 18.5747 14.0158C18.6195 13.9478 18.7254 13.807 18.8131 13.8034C18.8299 13.8028 18.8717 13.842 18.8782 13.8369C18.8816 13.8344 18.866 13.7979 18.8741 13.7869C18.9459 13.6896 19.0269 13.6569 19.1256 13.5995C19.3145 13.4893 19.473 13.281 19.6789 13.1752C19.7238 13.1521 19.818 13.2211 19.823 13.216C19.8339 13.205 19.7967 13.139 19.8104 13.1055C19.8566 12.9947 20.016 12.9754 20.0721 12.8864C20.0998 12.8424 20.096 12.7261 20.1216 12.6805C20.1421 12.6441 20.2366 12.62 20.2251 12.5764C20.2181 12.55 20.1732 12.4821 20.177 12.4665ZM19.9064 14.2497C19.8339 14.1417 19.8415 14.2709 19.9047 14.3107C19.919 14.3196 19.9252 14.2778 19.9064 14.2497ZM17.0934 16.0752C17.1161 16.1045 17.1389 16.1338 17.1617 16.1631C17.1599 16.1452 17.1582 16.1272 17.1564 16.1092C17.1388 16.0945 17.1212 16.0798 17.1036 16.0651C17.1002 16.0685 17.0968 16.0719 17.0934 16.0752Z" fill="#E9E6DF"/>
</svg>
