<svg width="27" height="27" viewBox="0 0 27 27" fill="none" xmlns="http://www.w3.org/2000/svg">
<rect x="27" y="27" width="27" height="27" rx="13.5" transform="rotate(-180 27 27)" fill="#C78362"/>
<path d="M6.7355 12.0368C6.71762 12.0278 6.69239 12.0765 6.6713 12.079C6.58295 12.0903 6.55022 12.124 6.47028 12.1431C6.35176 12.1715 6.00001 12.1076 6 12.4455C6 12.4455 6 12.4455 6 12.4455C6 12.4488 6.00003 12.4522 6.0001 12.4556C6.00134 12.52 6.03126 12.5902 6.03569 12.663C6.04013 12.7359 6.0368 13.2061 6.0793 13.2325C6.14091 13.2673 6.28871 13.1468 6.32157 13.1521C6.34403 13.1558 6.37169 13.1985 6.40042 13.2061C6.49304 13.2306 6.5415 13.1993 6.62495 13.3155C6.65833 13.2543 6.69171 13.1931 6.72509 13.1319C6.76864 13.1603 6.83464 13.0796 6.8611 13.084C6.88281 13.0877 6.89552 13.136 6.91815 13.1383C6.94352 13.1411 6.98249 13.0889 7.02864 13.0967C7.10431 13.1094 7.11777 13.2356 7.16317 13.2516C7.21024 13.2682 7.28346 13.1996 7.34353 13.244C7.35106 13.2579 7.35859 13.2718 7.36613 13.2857C7.36073 13.3171 7.35533 13.3485 7.34994 13.3799C7.38019 13.3945 7.3932 13.3302 7.421 13.329C7.45372 13.3276 7.4704 13.3886 7.49241 13.3883C7.51045 13.388 7.5349 13.3391 7.55828 13.3422C7.59236 13.3464 7.58491 13.417 7.60325 13.4303C7.61057 13.4354 7.74588 13.4744 7.75351 13.4749C7.81157 13.4777 7.81663 13.381 7.86292 13.3726C7.99132 13.3495 8.12312 13.4276 8.24189 13.4572C8.29492 13.4704 8.35026 13.4648 8.40314 13.4493C8.31985 13.2018 8.50417 13.0093 8.43524 13.3965C8.49407 13.3414 8.53579 13.4459 8.59156 13.4282C8.62764 13.4167 8.65261 13.363 8.70412 13.3644C8.79552 13.3673 8.8955 13.5199 8.92179 13.244C9.02908 13.2927 9.12201 13.1926 9.16068 13.4361C9.18835 13.451 9.25925 13.3059 9.29029 13.2862C9.31963 13.2677 9.54481 13.2022 9.58165 13.1985C9.61849 13.1949 9.68297 13.1909 9.714 13.2123C9.75298 13.2387 9.78022 13.4912 9.84962 13.196C9.9303 13.2199 9.95905 13.2114 10.0341 13.1771C10.0477 13.1709 10.0492 13.1271 10.0572 13.127C10.0735 13.127 10.1013 13.1594 10.1305 13.1634C10.1785 13.1698 10.2059 13.0776 10.2006 13.2185C10.2322 13.2421 10.2638 13.2657 10.2955 13.2894C10.3066 13.2622 10.3177 13.235 10.3288 13.2078C10.3457 13.2374 10.3626 13.267 10.3795 13.2967C10.3597 13.0928 10.4787 13.2131 10.4401 13.3301C10.5014 13.2879 10.5628 13.2457 10.6241 13.2036C10.6155 12.9719 10.7588 13.1768 10.7467 13.3028C10.7537 13.3026 10.7608 13.3025 10.7678 13.3023C10.8292 13.2407 10.8857 13.2911 10.9606 13.2497C11.0354 13.2084 11.0284 13.1858 11.0512 13.0792C11.0688 13.0853 11.0864 13.0915 11.1041 13.0976C11.1965 13.3897 11.1802 12.8839 11.3386 13.108C11.3891 12.9244 11.5139 13.0208 11.5966 13.0765C11.6062 13.083 11.6063 13.1186 11.6192 13.1296C11.6505 13.156 11.7304 13.1102 11.7277 13.2252C11.7554 13.1919 11.7831 13.1587 11.8107 13.1254C11.8334 13.1463 11.856 13.1672 11.8786 13.1881C11.8785 13.224 11.8784 13.2599 11.8783 13.2958C11.9238 13.1735 11.9954 13.2205 12.0307 13.1912C12.0377 13.1853 12.0392 13.1358 12.0611 13.1223C12.0866 13.1062 12.1342 13.1209 12.1646 13.1054C12.1764 13.1603 12.1882 13.2151 12.2001 13.2699C12.2545 13.2997 12.2736 13.1549 12.3055 13.1437C12.3113 13.1417 12.4162 13.1521 12.4219 13.1552C12.4681 13.1797 12.455 13.303 12.5889 13.2766C12.6127 13.2719 12.632 13.2292 12.6535 13.2275C12.6916 13.2244 12.8063 13.3212 12.8153 13.4106C12.8615 13.2987 12.985 13.3444 13.0214 13.3121C13.0323 13.3021 13.0348 13.2308 13.0686 13.2157C13.0959 13.2033 13.1664 13.2604 13.2011 13.2508C13.2379 13.2404 13.2511 13.1805 13.2676 13.1763C13.2832 13.1724 13.2975 13.2207 13.3188 13.2204C13.3851 13.2187 13.4452 13.1409 13.4976 13.1395C13.5734 13.1372 13.6404 13.2804 13.7038 13.3439C13.7196 13.3346 13.735 13.3039 13.7515 13.3036C13.9558 13.2991 14.1861 13.2728 14.3909 13.2421C14.486 13.228 14.7225 13.0338 14.6593 13.3579C14.6924 13.4147 14.9327 13.284 14.9784 13.282C15.024 13.2801 15.0603 13.3382 15.0962 13.3391C15.2045 13.3416 15.2809 13.2997 15.4128 13.3503C15.4468 13.3636 15.4833 13.4324 15.5035 13.4316C15.5278 13.4305 15.554 13.3639 15.5855 13.3597C15.6605 13.3501 15.8004 13.372 15.8724 13.3605C15.8855 13.3582 15.8901 13.2998 15.9089 13.2815C15.9821 13.2101 16.0642 13.2163 16.0497 13.403C16.1435 13.297 16.2303 13.3937 16.3173 13.3996C16.5012 13.4117 16.8362 13.3681 16.9963 13.4466C17.0974 13.496 17.0948 13.5798 17.2435 13.5075C17.2765 13.4915 17.3094 13.4699 17.3494 13.4508C17.4433 13.4058 17.5294 13.2511 17.6009 13.4375C17.7051 13.3891 17.7881 13.4234 17.8655 13.264C17.8746 13.3022 17.8837 13.3405 17.8928 13.3787C17.9056 13.3797 17.9184 13.3806 17.9312 13.3816C17.9351 13.3451 17.9391 13.3086 17.9431 13.2721C18.0347 13.2623 18.1508 13.4122 18.2283 13.4111C18.3582 13.4094 18.6929 13.3512 18.8161 13.302C18.8815 13.2759 18.885 13.354 18.9225 13.1934C18.9371 13.2046 18.9517 13.2157 18.9663 13.2269C18.9755 13.2621 18.9847 13.2972 18.9938 13.3324C19.0777 13.3338 19.1773 13.2792 19.2572 13.2797C19.4029 13.2809 19.6216 13.3776 19.7679 13.3141C19.8046 13.2981 19.8504 13.2256 19.8863 13.2264C19.9386 13.2275 19.9513 13.3478 20.0177 13.3501C20.132 13.3537 20.3449 13.2139 20.453 13.2246C20.4851 13.2277 20.5001 13.2725 20.5222 13.2773C20.6152 13.2978 20.6915 13.2942 20.7806 13.3633C20.8763 13.248 20.868 13.0992 20.8976 12.9491C20.9201 12.8357 20.989 12.5731 20.9988 12.4738C21.0057 12.4041 20.98 12.3144 20.9897 12.2376C20.875 12.1763 20.8269 12.2438 20.7338 12.3518C20.5619 12.3475 20.3899 12.3432 20.218 12.3389C20.2024 12.3808 20.1868 12.4227 20.1711 12.4646C20.1711 12.4646 20.1711 12.4647 20.1711 12.4648C20.1051 12.5132 20.0771 12.4053 20.0415 12.3808C19.7006 12.1463 19.0297 12.3298 18.6545 12.3563C18.5736 12.3619 18.3106 12.3054 18.2551 12.3735C18.2407 12.3912 18.2367 12.4558 18.2214 12.4586C18.0849 12.4202 17.9483 12.3818 17.8118 12.3433C17.531 12.4437 17.2407 12.3608 16.9578 12.3454C16.1923 12.3035 15.4344 12.2525 14.6815 12.268C14.536 12.2711 14.3513 12.2227 14.2088 12.2539C14.1494 12.2668 14.1246 12.3706 14.0465 12.2933C14.0457 12.3212 14.0449 12.3492 14.0441 12.3771C13.9759 12.3434 13.9323 12.2798 13.8559 12.2733C13.7916 12.268 13.6213 12.2638 13.5644 12.2745C13.5349 12.2798 13.5459 12.3321 13.5184 12.3318C13.4713 12.331 13.3708 12.2587 13.3058 12.2587C13.2469 12.2587 13.1477 12.3189 13.1025 12.3102C12.9395 12.2793 12.7621 12.1901 12.5884 12.214C12.5405 12.2207 12.4788 12.2885 12.4637 12.2866C12.4344 12.2826 12.4257 12.2169 12.4059 12.2084C12.3058 12.1657 12.1498 12.2438 12.0516 12.2469C11.7319 12.2571 11.3931 12.2283 11.0747 12.2404C10.8736 12.248 10.5393 12.2364 10.3536 12.2859C10.3135 12.2966 10.3242 12.3687 10.2906 12.3687C10.2533 12.3687 10.2331 12.32 10.2157 12.3161C10.095 12.2885 9.82879 12.2393 9.71492 12.2891C9.69323 12.2986 9.6775 12.3551 9.66451 12.3549C9.65793 12.3549 9.64309 12.3163 9.62245 12.3124C9.44025 12.2775 9.3074 12.3 9.12887 12.3132C8.78694 12.3382 8.39075 12.2665 8.03155 12.3053C7.95329 12.3138 7.89962 12.4255 7.88861 12.4244C7.86446 12.4221 7.849 12.347 7.80009 12.3284C7.63746 12.2674 7.41844 12.3476 7.26376 12.3099C7.18734 12.2914 7.08233 12.196 7.00713 12.1749C6.94706 12.158 6.80521 12.1954 6.77859 12.1536C6.76239 12.1283 6.7549 12.047 6.7355 12.0368ZM8.75899 13.3017C8.74829 13.1718 8.86075 13.2798 8.81856 13.3495C8.80906 13.3652 8.76175 13.3354 8.75899 13.3017ZM14.0248 13.0761C14.0238 13.1132 14.0228 13.1504 14.0217 13.1875C14.007 13.172 13.9922 13.1566 13.9774 13.1411C13.9857 13.1188 13.994 13.0965 14.0023 13.0742C14.0098 13.0748 14.0173 13.0755 14.0248 13.0761ZM12.5006 9.33233C12.5132 9.33469 12.4969 9.28707 12.5045 9.27892C12.5359 9.24433 12.5311 9.20697 12.5545 9.16824C12.5893 9.11078 12.7749 9.06339 12.5868 8.78265C12.5868 8.78264 12.5868 8.78264 12.5868 8.78263C12.585 8.77988 12.5831 8.7771 12.5812 8.7743C12.5448 8.72117 12.4929 8.67133 12.4505 8.61211C12.4081 8.55287 12.1478 8.16128 12.115 8.15146C12.0693 8.14012 12.0734 8.28251 12.0564 8.28746C12.0448 8.29082 12.0092 8.26321 11.9927 8.26512C11.9396 8.27126 11.9363 8.31107 11.8361 8.23845C11.8559 8.29882 11.8757 8.35919 11.8956 8.41957C11.8612 8.40844 11.878 8.49434 11.8642 8.49821C11.8529 8.50137 11.8206 8.46481 11.8097 8.4694C11.7973 8.47433 11.8097 8.52885 11.7857 8.5355C11.7463 8.54661 11.6704 8.44559 11.6421 8.44524C11.6128 8.44491 11.6197 8.52283 11.5694 8.50309C11.5584 8.4937 11.5475 8.48432 11.5366 8.47493C11.5214 8.4473 11.5062 8.41967 11.491 8.39204C11.47 8.38854 11.5003 8.44572 11.489 8.45464C11.4759 8.46515 11.4348 8.41923 11.4256 8.42575C11.418 8.43114 11.4348 8.47877 11.4232 8.4829C11.4063 8.48914 11.3701 8.42832 11.355 8.42258C11.349 8.42041 11.2696 8.42668 11.266 8.42839C11.2397 8.44267 11.2914 8.52444 11.2763 8.54469C11.2344 8.60053 11.1347 8.57328 11.0676 8.58269C11.0376 8.58686 11.0172 8.60734 11.0032 8.6353C11.1765 8.81709 11.205 9.02975 11.0189 8.68836C11.0245 8.75093 10.9485 8.67601 10.9346 8.70663C10.9256 8.72651 10.9448 8.77825 10.9221 8.7918C10.8815 8.81556 10.7539 8.71733 10.8963 8.95402C10.8234 8.94427 10.8395 9.05395 10.6875 8.86269C10.6674 8.85824 10.7179 8.999 10.7156 9.02424C10.7134 9.04804 10.6538 9.16679 10.6401 9.18035C10.6265 9.19391 10.6012 9.21564 10.5761 9.20676C10.5447 9.19593 10.3925 8.99391 10.5273 9.25904C10.4796 9.26225 10.472 9.27748 10.4591 9.32742C10.4568 9.33646 10.4805 9.37331 10.4771 9.37562C10.4702 9.38029 10.4403 9.36132 10.4256 9.36638C10.4016 9.37472 10.4412 9.45918 10.3651 9.3406C10.3384 9.33002 10.3118 9.31943 10.2852 9.30885C10.2956 9.33461 10.306 9.36037 10.3163 9.38614C10.2926 9.36635 10.2689 9.34657 10.2452 9.32678C10.3672 9.49048 10.2494 9.42455 10.2008 9.31631C10.1981 9.36888 10.1954 9.42144 10.1927 9.47401C10.3253 9.66407 10.1502 9.53471 10.0852 9.42659C10.0823 9.42875 10.0794 9.43091 10.0765 9.43307C10.0846 9.50179 10.0325 9.47606 10.0236 9.53181C10.0146 9.58755 10.0302 9.60428 10.0798 9.69933C10.0689 9.6993 10.058 9.69926 10.047 9.69922C9.84499 9.48291 10.1335 9.89851 9.94123 9.75755C10.0218 9.92457 9.91497 9.88006 9.84871 9.85743C9.84101 9.85481 9.8211 9.82524 9.80952 9.81977C9.78145 9.80677 9.77285 9.86768 9.71003 9.77138C9.71674 9.80692 9.72345 9.84246 9.73016 9.87801C9.70887 9.8671 9.68759 9.8562 9.66631 9.84529C9.64639 9.81544 9.62646 9.7856 9.60653 9.75575C9.65518 9.87038 9.59849 9.85178 9.59971 9.88616C9.60001 9.8931 9.62692 9.93466 9.62512 9.95212C9.62315 9.97273 9.59471 9.97415 9.59035 9.99569C9.55478 9.95351 9.51922 9.91132 9.48365 9.86914C9.4439 9.85997 9.5163 9.98569 9.50894 10.0042C9.50758 10.0074 9.45704 10.0288 9.45291 10.0278C9.41953 10.0207 9.35649 9.91449 9.3141 9.97468C9.3066 9.98546 9.32212 10.0264 9.31389 10.034C9.29938 10.0474 9.1966 9.99981 9.14299 9.92809C9.18559 10.0343 9.10745 10.0315 9.10993 10.0688C9.11079 10.0802 9.1494 10.1401 9.14346 10.1624C9.13867 10.1805 9.07685 10.1532 9.06737 10.171C9.05745 10.1902 9.08517 10.2437 9.08049 10.252C9.07603 10.2597 9.04299 10.2236 9.03409 10.2299C9.00674 10.2503 9.02443 10.3321 9.00287 10.3483C8.97178 10.3718 8.86356 10.272 8.80113 10.2373C8.79958 10.2495 8.81008 10.2795 8.8032 10.2844C8.71861 10.3465 8.63504 10.4342 8.56474 10.5182C8.53203 10.5571 8.53932 10.7861 8.3858 10.4987C8.34011 10.461 8.31039 10.6382 8.29199 10.6529C8.27359 10.6676 8.22579 10.6296 8.21 10.6392C8.16237 10.668 8.15313 10.7246 8.0687 10.7203C8.0468 10.719 7.99291 10.6722 7.98475 10.6787C7.97501 10.6865 8.00092 10.7493 7.98985 10.7619C7.96316 10.7912 7.89132 10.813 7.86703 10.8431C7.86267 10.8488 7.89325 10.8987 7.89541 10.9192C7.90393 10.9995 7.86548 11.0178 7.76775 10.8585C7.78673 10.9734 7.69589 10.9179 7.6555 10.9378C7.57034 10.9803 7.45174 11.1122 7.33975 11.0928C7.26913 11.0805 7.22362 11.0102 7.20041 11.1127C7.19525 11.1355 7.19327 11.1628 7.18683 11.1902C7.17185 11.2544 7.22123 11.4075 7.08696 11.273C7.06942 11.343 7.01493 11.3382 7.07068 11.4928C7.04551 11.4636 7.02034 11.4344 6.99516 11.4053C6.98919 11.4081 6.98321 11.411 6.97723 11.4139C6.99583 11.4453 7.01443 11.4768 7.03302 11.5082C6.99944 11.5425 6.86648 11.4512 6.83404 11.4742C6.77957 11.5127 6.66925 11.6567 6.6441 11.7328C6.63075 11.7732 6.58577 11.7093 6.65916 11.8534C6.64671 11.8483 6.63425 11.8432 6.62179 11.8381C6.59832 11.8115 6.57485 11.7849 6.55138 11.7583C6.51481 11.7811 6.50275 11.8549 6.46835 11.8773C6.40559 11.918 6.25845 11.9001 6.23143 11.9947C6.2247 12.0185 6.2455 12.0918 6.22972 12.1014C6.2068 12.1154 6.13442 12.0191 6.10488 12.0362C6.05408 12.0658 6.04105 12.2428 5.98902 12.2648C5.9736 12.2714 5.9423 12.2385 5.93019 12.2408C5.87913 12.2503 5.84861 12.2751 5.7721 12.2431C5.79546 12.3663 5.88181 12.4875 5.95274 12.6208C6.00624 12.7213 6.12303 12.9592 6.1741 13.0445C6.20998 13.1044 6.27085 13.1716 6.30947 13.2381C6.39248 13.2563 6.37546 13.1865 6.35507 13.0702C6.43078 13.0246 6.5065 12.9791 6.58221 12.9335C6.56556 12.8943 6.54891 12.855 6.53226 12.8157C6.53221 12.8156 6.53216 12.8156 6.53211 12.8155C6.53335 12.7564 6.60534 12.8381 6.63416 12.8483C6.91007 12.9457 7.09405 12.6015 7.23938 12.4724C7.27074 12.4446 7.41435 12.4163 7.40014 12.344C7.39641 12.3251 7.36215 12.2703 7.36711 12.2636C7.44673 12.2565 7.52635 12.2494 7.60597 12.2423C7.66986 12.0787 7.83981 12.0646 7.96909 11.9966C8.31889 11.8127 8.67045 11.6385 8.98298 11.4106C9.04332 11.3664 9.14902 11.3539 9.19241 11.2872C9.21056 11.2595 9.16338 11.1662 9.23973 11.2081C9.22452 11.1847 9.20931 11.1612 9.19411 11.1378C9.24196 11.1463 9.29594 11.1867 9.33213 11.1703C9.36255 11.1563 9.43748 11.1111 9.45578 11.086C9.46539 11.0731 9.43163 11.0329 9.44351 11.0252C9.46406 11.0125 9.54715 11.0437 9.57486 11.0252C9.59996 11.0084 9.60878 10.93 9.63293 10.9243C9.71964 10.9035 9.84498 10.9269 9.90573 10.8574C9.92243 10.8381 9.91104 10.7642 9.9185 10.7615C9.93321 10.7564 9.97355 10.8085 9.98667 10.8099C10.0532 10.8168 10.0762 10.7073 10.1163 10.6767C10.2471 10.5769 10.4075 10.504 10.5366 10.4029C10.6182 10.3392 10.7672 10.2533 10.8188 10.1591C10.83 10.1388 10.7853 10.0819 10.7997 10.0723C10.8156 10.0617 10.8513 10.0964 10.8609 10.0947C10.9277 10.0831 11.0686 10.0479 11.0895 9.97404C11.0934 9.9599 11.0687 9.90848 11.0744 9.90494C11.0772 9.90307 11.1049 9.93084 11.1159 9.92822C11.2131 9.90513 11.2572 9.8485 11.326 9.78651C11.4579 9.66803 11.6668 9.6144 11.7984 9.47953C11.8271 9.45016 11.7878 9.34202 11.7931 9.33981C11.8047 9.33478 11.8531 9.39279 11.8843 9.39423C11.9876 9.39845 12.0364 9.26926 12.1233 9.25636C12.1662 9.24995 12.2641 9.29918 12.3079 9.29523C12.3429 9.29209 12.3826 9.22047 12.4172 9.24766C12.4382 9.26405 12.4867 9.32942 12.5006 9.33233ZM10.9336 8.85958C11.0105 8.96446 10.9024 8.90689 10.8816 8.8369C10.8769 8.82114 10.9136 8.83236 10.9336 8.85958ZM8.81326 10.5515C8.79305 10.5204 8.77284 10.4893 8.75262 10.4582C8.76751 10.4668 8.7824 10.4754 8.79729 10.484C8.80617 10.5049 8.81505 10.5258 8.82393 10.5467C8.82037 10.5483 8.81682 10.5499 8.81326 10.5515ZM6.82302 12.4665C6.81932 12.4525 6.77733 12.4818 6.76507 12.4759C6.7134 12.4512 6.67654 12.4657 6.62442 12.4506C6.54713 12.4282 6.40658 12.243 6.20397 12.5134C6.20397 12.5134 6.20397 12.5134 6.20396 12.5135C6.20198 12.5161 6.19998 12.5188 6.19798 12.5215C6.16002 12.5735 6.13309 12.6412 6.0917 12.7011C6.05028 12.7611 5.76669 13.1362 5.77245 13.1735C5.78289 13.2248 5.93033 13.1847 5.94384 13.2015C5.95306 13.213 5.94149 13.2577 5.95155 13.2747C5.98398 13.3296 6.02737 13.323 6.00019 13.4478C6.05385 13.4115 6.10751 13.3752 6.16117 13.339C6.1663 13.3783 6.24825 13.3388 6.25904 13.3525C6.26789 13.3637 6.24535 13.4072 6.2555 13.4177C6.26673 13.4296 6.31786 13.4026 6.33661 13.4265C6.3675 13.4654 6.29867 13.5716 6.31214 13.6017C6.32613 13.6329 6.4045 13.6059 6.40841 13.6643C6.40392 13.6783 6.39943 13.6923 6.39493 13.7063C6.37336 13.7294 6.35179 13.7524 6.33021 13.7755C6.33683 13.7987 6.38204 13.7522 6.39687 13.7619C6.41435 13.7732 6.38625 13.8284 6.39762 13.8365C6.40695 13.8432 6.44872 13.8133 6.45877 13.8247C6.47358 13.8411 6.42743 13.8948 6.42884 13.9123C6.42948 13.9192 6.47492 14.002 6.47846 14.0053C6.50631 14.0297 6.56685 13.9542 6.59546 13.9651C6.67458 13.9955 6.69477 14.1083 6.73746 14.1772C6.75651 14.2079 6.78801 14.2245 6.82418 14.2323C6.93019 14.0025 7.13938 13.9186 6.87217 14.2022C6.93512 14.1806 6.89366 14.2801 6.93262 14.2872C6.95788 14.2917 7.00276 14.2583 7.02811 14.279C7.07289 14.3161 7.03223 14.4763 7.21098 14.2656C7.23639 14.3454 7.34364 14.3007 7.2173 14.5103C7.22246 14.5328 7.34547 14.4437 7.37307 14.4397C7.39912 14.4361 7.55289 14.4694 7.57382 14.4805C7.59474 14.4917 7.62992 14.513 7.63289 14.542C7.63686 14.578 7.4993 14.7905 7.71162 14.5806C7.73833 14.6304 7.75801 14.6346 7.81674 14.6358C7.82737 14.636 7.85443 14.6015 7.85849 14.6045C7.86681 14.6107 7.86153 14.6472 7.874 14.6615C7.89453 14.685 7.96376 14.6216 7.87657 14.7323C7.8785 14.7633 7.88043 14.7942 7.88236 14.8252C7.90431 14.8076 7.92626 14.7901 7.9482 14.7726C7.93904 14.8027 7.92988 14.8329 7.92071 14.8631C8.03284 14.6923 8.02126 14.834 7.93146 14.9129C7.98794 14.9025 8.04442 14.8921 8.1009 14.8817C8.23547 14.693 8.18542 14.9116 8.10375 15.0078C8.10743 15.0104 8.11111 15.0129 8.11479 15.0154C8.18296 14.9895 8.18146 15.0514 8.24433 15.0468C8.3072 15.0423 8.31715 15.0215 8.39263 14.9449C8.39793 14.9565 8.40324 14.9681 8.40854 14.9797C8.28039 15.2488 8.57537 14.8377 8.52152 15.0774C8.65735 14.9497 8.66294 15.0744 8.67161 15.1505C8.67262 15.1593 8.65133 15.1879 8.65126 15.2016C8.65135 15.2347 8.71947 15.2284 8.64915 15.3194C8.68317 15.3033 8.71719 15.2873 8.75121 15.2712C8.75018 15.2965 8.74915 15.3219 8.74812 15.3472C8.72654 15.3759 8.70496 15.4046 8.68339 15.4333C8.77989 15.3527 8.7881 15.4176 8.82359 15.4077C8.83072 15.4056 8.86117 15.3665 8.88037 15.3641C8.90297 15.361 8.91837 15.3908 8.94311 15.39C8.91625 15.4384 8.88938 15.4868 8.86251 15.5352C8.87234 15.5797 8.96885 15.4712 8.99184 15.4743C8.99593 15.4749 9.04305 15.5232 9.04407 15.5279C9.05292 15.5651 8.97232 15.6588 9.05622 15.6887C9.07121 15.6939 9.1066 15.6671 9.11858 15.6739C9.13979 15.686 9.14009 15.8071 9.09106 15.8821C9.18163 15.8101 9.21701 15.8938 9.2549 15.8818C9.26645 15.878 9.31045 15.8219 9.33671 15.8226C9.35804 15.8231 9.35965 15.8956 9.38302 15.9012C9.40799 15.9069 9.45058 15.864 9.46151 15.8669C9.4718 15.8697 9.45013 15.9139 9.4611 15.9217C9.49584 15.9456 9.57304 15.9063 9.60055 15.9251C9.64045 15.9522 9.58869 16.0922 9.58285 16.1673C9.59642 16.1658 9.6227 16.1471 9.63127 16.1532C9.73781 16.2274 9.87076 16.294 9.99329 16.3475C10.0501 16.3725 10.2868 16.3071 10.0603 16.5425C10.0431 16.6005 10.2437 16.5874 10.2681 16.6033C10.2925 16.6191 10.276 16.6794 10.2938 16.6938C10.3474 16.7371 10.4113 16.7326 10.448 16.8234C10.4574 16.847 10.4347 16.916 10.4454 16.9231C10.4585 16.9314 10.5117 16.8881 10.5303 16.8967C10.5741 16.9176 10.6321 16.9884 10.6757 17.0066C10.6837 17.0098 10.7211 16.9648 10.7416 16.9573C10.8217 16.9281 10.8597 16.9643 10.7404 17.1082C10.8516 17.0591 10.8378 17.1696 10.8785 17.2074C10.9647 17.2871 11.1612 17.3799 11.1956 17.5037C11.2173 17.5818 11.1658 17.6478 11.2847 17.6466C11.3111 17.6464 11.3408 17.6416 11.3726 17.6416C11.4473 17.6413 11.5839 17.5503 11.5085 17.7267C11.5905 17.7277 11.6121 17.7868 11.747 17.6887C11.7287 17.7228 11.7105 17.7568 11.6922 17.7909C11.6981 17.7965 11.704 17.8022 11.71 17.8078C11.7339 17.7801 11.7577 17.7524 11.7816 17.7248C11.8341 17.7518 11.8033 17.916 11.8433 17.9447C11.9104 17.9928 12.1155 18.0737 12.2077 18.0812C12.2566 18.0852 12.2115 18.1491 12.3269 18.0348C12.3276 18.0494 12.3283 18.0639 12.3291 18.0784C12.3127 18.11 12.2962 18.1416 12.2798 18.1733C12.3216 18.2063 12.405 18.2006 12.4453 18.2315C12.5187 18.2879 12.5719 18.4486 12.6844 18.4535C12.7127 18.4546 12.7795 18.4141 12.7972 18.4284C12.8232 18.4492 12.7575 18.5504 12.7899 18.5774C12.8458 18.6239 13.0379 18.5932 13.0864 18.6429C13.1009 18.6576 13.0817 18.6991 13.0901 18.7114C13.125 18.7632 13.166 18.7894 13.1699 18.8787C13.2876 18.8229 13.3727 18.7006 13.4778 18.5917C13.5572 18.5096 13.7497 18.3256 13.8142 18.2499C13.8595 18.1967 13.9002 18.1152 13.9511 18.0574C13.9296 17.9647 13.8646 18.0003 13.7526 18.0513C13.6677 17.9823 13.5829 17.9134 13.498 17.8445C13.465 17.8721 13.4319 17.8996 13.3988 17.9272C13.3988 17.9273 13.3987 17.9274 13.3986 17.9274C13.3361 17.941 13.3866 17.844 13.3831 17.8108C13.3504 17.4932 12.8992 17.3846 12.6925 17.2628C12.648 17.2365 12.5481 17.0911 12.4791 17.1244C12.4612 17.1331 12.4204 17.1833 12.4109 17.1797C12.3645 17.0969 12.3181 17.0142 12.2717 16.9314C12.0688 16.9048 11.9708 16.7278 11.8362 16.6077C11.4721 16.2825 11.1173 15.9531 10.7251 15.6786C10.6492 15.6256 10.5844 15.5166 10.4932 15.4873C10.4552 15.475 10.3804 15.5486 10.387 15.4569C10.3699 15.479 10.3527 15.501 10.3355 15.5231C10.3211 15.4701 10.3371 15.4026 10.3021 15.3683C10.2726 15.3396 10.1885 15.2714 10.1532 15.2583C10.135 15.2513 10.1092 15.2973 10.0954 15.2866C10.072 15.268 10.0641 15.1719 10.0311 15.1471C10.0011 15.1247 9.91462 15.1351 9.89684 15.1109C9.83253 15.024 9.79575 14.885 9.69312 14.838C9.66467 14.8252 9.59269 14.8559 9.58619 14.8486C9.57362 14.8343 9.60863 14.7783 9.60367 14.764C9.57839 14.6917 9.45215 14.6948 9.40039 14.6599C9.23171 14.5462 9.07666 14.3942 8.90751 14.2825C8.80066 14.212 8.63762 14.0754 8.51351 14.0442C8.48673 14.0375 8.44895 14.0993 8.43185 14.0865C8.4129 14.0722 8.43182 14.0256 8.42532 14.0158C8.38051 13.9478 8.27463 13.807 8.18688 13.8034C8.17012 13.8028 8.12826 13.842 8.12178 13.8369C8.11844 13.8344 8.13399 13.7979 8.12586 13.7869C8.05412 13.6896 7.97308 13.6569 7.87437 13.5995C7.68549 13.4893 7.52701 13.281 7.32109 13.1752C7.27623 13.1521 7.18196 13.2211 7.17704 13.216C7.16611 13.205 7.2033 13.139 7.18955 13.1055C7.14343 12.9947 6.98398 12.9754 6.92791 12.8864C6.90018 12.8424 6.90396 12.7261 6.87837 12.6805C6.85794 12.6441 6.76338 12.62 6.77495 12.5764C6.78188 12.55 6.82679 12.4821 6.82302 12.4665ZM7.09362 14.2497C7.16607 14.1417 7.15852 14.2709 7.09526 14.3107C7.08101 14.3196 7.07481 14.2778 7.09362 14.2497ZM9.90664 16.0752C9.88387 16.1045 9.8611 16.1338 9.83832 16.1631C9.84007 16.1452 9.84183 16.1272 9.84358 16.1092C9.86117 16.0945 9.87876 16.0798 9.89636 16.0651C9.89979 16.0685 9.90321 16.0719 9.90664 16.0752Z" fill="#E9E6DF"/>
</svg>
